<?xml version="1.0" encoding="UTF-8"?>
<!--
 Licensed to the Apache Software Foundation (ASF) under one
 or more contributor license agreements.  See the NOTICE file
 distributed with this work for additional information
 regarding copyright ownership.  The ASF licenses this file
 to you under the Apache License, Version 2.0 (the
 "License"); you may not use this file except in compliance
 with the License.  You may obtain a copy of the License at

   http://www.apache.org/licenses/LICENSE-2.0

 Unless required by applicable law or agreed to in writing,
 software distributed under the License is distributed on an
 "AS IS" BASIS, WITHOUT WARRANTIES OR CONDITIONS OF ANY
 KIND, either express or implied.  See the License for the
 specific language governing permissions and limitations
 under the License.
-->
<svg xmlns="http://www.w3.org/2000/svg" width="112" height="113" fill="none" viewBox="0 0 112 113">
    <path fill="#FFE5D9" d="M56 112.909c30.928 0 56-25.072 56-56s-25.072-56-56-56-56 25.072-56 56 25.072 56 56 56z"/>
    <g clip-path="url(#clip0)">
        <path fill="#fff" d="M32.816 38.666c-1.601-1.215-2.78-2.903-3.368-4.825-.588-1.922-.557-3.981.09-5.884.646-1.904 1.875-3.555 3.512-4.721s3.6-1.788 5.61-1.776c2.01.011 3.966.655 5.59 1.84 1.624 1.184 2.834 2.85 3.459 4.76.624 1.91.632 3.97.022 5.885-.61 1.915-1.808 3.59-3.422 4.786-.752.736-1.32 1.64-1.66 2.636-.338.996-.437 2.058-.289 3.1-.005 1.016-.414 1.988-1.137 2.702-.723.715-1.7 1.113-2.715 1.107-1.016-.006-1.988-.415-2.703-1.138-.714-.722-1.112-1.699-1.106-2.715.16-1.04.073-2.103-.255-3.103-.327-1-.885-1.91-1.628-2.654z"/>
        <mask id="bqe9icatua" width="9" height="14" x="34" y="30" maskUnits="userSpaceOnUse">
            <path fill="#FBC23E" d="M35.935 38.784c-.735-.558-1.276-1.333-1.546-2.215-.27-.883-.256-1.827.041-2.701.297-.874.861-1.632 1.613-2.167.751-.536 1.652-.82 2.575-.816.923.006 1.82.301 2.566.845.746.544 1.301 1.308 1.588 2.185.287.877.29 1.822.01 2.702-.28.879-.83 1.648-1.57 2.197-.346.338-.607.752-.762 1.21-.156.457-.201.945-.133 1.423-.003.466-.19.913-.522 1.24-.332.328-.78.511-1.247.509-.466-.003-.913-.191-1.24-.523-.328-.331-.511-.78-.508-1.246.073-.477.033-.966-.117-1.425-.15-.459-.406-.876-.748-1.218z"/>
        </mask>
        <g mask="url(#bqe9icatua)">
            <path fill="#FBC23E" d="M44.224 38.839c-.932 1.156-2.204 1.99-3.636 2.383s-2.952.325-4.344-.194c-1.391-.518-2.584-1.462-3.41-2.696-.826-1.234-1.242-2.697-1.19-4.181.052-1.485.57-2.915 1.48-4.089.91-1.173 2.166-2.03 3.59-2.45 1.425-.42 2.945-.382 4.346.11 1.401.492 2.612 1.413 3.461 2.631.527.572 1.182 1.01 1.91 1.282.729.272 1.51.368 2.283.281.75.026 1.46.35 1.971.899.512.549.785 1.279.759 2.029-.026.75-.35 1.459-.899 1.97-.549.513-1.279.785-2.029.76-.764-.142-1.551-.1-2.297.12-.746.22-1.43.612-1.995 1.145z"/>
        </g>
        <path stroke="#000" stroke-linecap="round" stroke-width="2.5" d="M34.827 41.303h7.286M34.827 45.187h7.286"/>
    </g>
    <path fill="#FF570B" d="M48.584 58.058s2.558-16.136 10.911-27.864c.05-.109.14-.193.25-.234.112-.041.235-.037.343.013.107.05.191.141.233.253.041.112.037.236-.013.344-1.398 4.67-4.795 15.623-8.385 25.138"/>
    <path fill="#FF570B" d="M54.367 86.516s16.456 2.03 19.036-13.379c1.497-9.017.452-10.537 2.871-15.245.099-.196.151-.412.155-.63.003-.22-.044-.437-.136-.635-.093-.199-.229-.373-.398-.51-.17-.137-.368-.234-.58-.283-6.83-1.57-30.689-6.22-36.887 3.47-6.353 9.92-6.563 22.332 7.655 25.645-.007-.002 6.112 1.478 8.284 1.567z"/>
    <path fill="#fff" d="M38.07 67.627c-.945 3.372-1.998 6.434-3.32 6.15-.528-.663-1.562-3.277-.757-7.089 1.07-4.207 2.881-6.584 4.71-7.299 1.331 1.615-.074 5.573-.633 8.238z"/>
    <path fill="#1D1D1B" d="M35.212 65.638c-.75 2.952-.433 5.586.73 5.881 1.163.296 2.365-1.78 3.115-4.732.75-2.953.745-5.678-.397-5.969-1.142-.29-2.697 1.86-3.448 4.82z"/>
    <path fill="#fff" d="M37.68 63.573c-.337-.437-.14-1.16.44-1.615.58-.455 1.325-.468 1.663-.03.338.437.142 1.16-.439 1.615-.58.454-1.325.468-1.663.03zM46.93 76.26c-2.31-3.023-1.088-7.87 2.728-10.825 3.816-2.955 8.781-2.9 11.09.123 2.31 3.023 1.089 7.869-2.727 10.824s-8.782 2.9-11.091-.122z"/>
    <path fill="#1D1D1B" d="M49.067 73.803c-1.447-2.41-.318-5.768 2.522-7.498 2.84-1.73 6.314-1.18 7.761 1.23 1.447 2.411.318 5.768-2.522 7.499-2.84 1.73-6.314 1.18-7.761-1.231z"/>
    <path fill="#fff" d="M58.217 69.958c-.469-.476-.396-1.314.163-1.872s1.392-.624 1.861-.149c.47.476.397 1.314-.162 1.872-.56.558-1.393.624-1.862.149z"/>
    <path fill="#FF570B" d="M56.319 60.315s6.208-14.587 22.759-24.68c.088-.05.19-.07.29-.056.1.015.193.063.263.137.07.074.113.17.123.271.01.102-.015.204-.07.29-3.26 4.767-14.513 18.536-18.073 22.522"/>
    <path fill="#fff" d="M38.442 75.961c-.672-.17-1.312.382-1.153 1.057.775 3.294 2.96 3.95 5.299 1.353.466-.517.168-1.314-.507-1.486l-3.639-.924z"/>
    <defs>
        <clipPath id="clip0">
            <path fill="#fff" d="M0 0H43.922V43.922H0z" transform="rotate(.326 -1697.975 3004.221)"/>
        </clipPath>
    </defs>
</svg>
