<!--
    Licensed to the Apache Software Foundation (ASF) under one
    or more contributor license agreements.  See the NOTICE file
    distributed with this work for additional information
    regarding copyright ownership.  The ASF licenses this file
    to you under the Apache License, Version 2.0 (the
    "License"); you may not use this file except in compliance
    with the License.  You may obtain a copy of the License at

      http://www.apache.org/licenses/LICENSE-2.0

    Unless required by applicable law or agreed to in writing,
    software distributed under the License is distributed on an
    "AS IS" BASIS, WITHOUT WARRANTIES OR CONDITIONS OF ANY
    KIND, either express or implied.  See the License for the
    specific language governing permissions and limitations
    under the License.
-->

<svg width="24" height="24" viewBox="0 0 24 24" fill="none" xmlns="http://www.w3.org/2000/svg">
    <path
        d="M10 2.25C8.48122 2.25 7.25 3.48122 7.25 5V6H8.75V5C8.75 4.30964 9.30964 3.75 10 3.75H19C19.6904 3.75 20.25 4.30964 20.25 5V14C20.25 14.6904 19.6904 15.25 19 15.25H18V16.75H19C20.5188 16.75 21.75 15.5188 21.75 14V5C21.75 3.48122 20.5188 2.25 19 2.25H10Z"
        fill="#A0A4AB" />
    <path fill-rule="evenodd" clip-rule="evenodd"
        d="M2.25 10C2.25 8.48122 3.48122 7.25 5 7.25H14C15.5188 7.25 16.75 8.48122 16.75 10V19C16.75 20.5188 15.5188 21.75 14 21.75H5C3.48122 21.75 2.25 20.5188 2.25 19V10ZM5 8.75C4.30964 8.75 3.75 9.30964 3.75 10V19C3.75 19.6904 4.30964 20.25 5 20.25H14C14.6904 20.25 15.25 19.6904 15.25 19V10C15.25 9.30964 14.6904 8.75 14 8.75H5Z"
        fill="#A0A4AB" />
</svg>
