<!--
    Licensed to the Apache Software Foundation (ASF) under one
    or more contributor license agreements.  See the NOTICE file
    distributed with this work for additional information
    regarding copyright ownership.  The ASF licenses this file
    to you under the Apache License, Version 2.0 (the
    "License"); you may not use this file except in compliance
    with the License.  You may obtain a copy of the License at

      http://www.apache.org/licenses/LICENSE-2.0

    Unless required by applicable law or agreed to in writing,
    software distributed under the License is distributed on an
    "AS IS" BASIS, WITHOUT WARRANTIES OR CONDITIONS OF ANY
    KIND, either express or implied.  See the License for the
    specific language governing permissions and limitations
    under the License.
-->

<svg width="24" height="24" viewBox="0 0 24 24" fill="none" xmlns="http://www.w3.org/2000/svg">
<path fill-rule="evenodd" clip-rule="evenodd" d="M10.75 4.36639C10.75 3.67604 11.3096 3.11639 12 3.11639H20C20.6904 3.11639 21.25 3.67604 21.25 4.36639V12.3664C21.25 13.0567 20.6904 13.6164 20 13.6164H19.5V15.1164H20C21.5188 15.1164 22.75 13.8852 22.75 12.3664V4.36639C22.75 2.84761 21.5188 1.61639 20 1.61639H12C10.4812 1.61639 9.25 2.84761 9.25 4.36639H10.75ZM6.75 8.36639C6.75 7.67604 7.30964 7.11639 8 7.11639H16C16.6904 7.11639 17.25 7.67604 17.25 8.36639V16.3664C17.25 17.0568 16.6904 17.6164 16 17.6164V19.1164C17.5188 19.1164 18.75 17.8852 18.75 16.3664V8.36639C18.75 6.84761 17.5188 5.61639 16 5.61639H8C6.48122 5.61639 5.25 6.84761 5.25 8.36639H6.75ZM2.75 11.8664C2.75 11.176 3.30964 10.6164 4 10.6164H12C12.6904 10.6164 13.25 11.176 13.25 11.8664V19.8664C13.25 20.5567 12.6904 21.1164 12 21.1164H4C3.30964 21.1164 2.75 20.5567 2.75 19.8664V11.8664ZM4 9.11639C2.48122 9.11639 1.25 10.3476 1.25 11.8664V19.8664C1.25 21.3852 2.48122 22.6164 4 22.6164H12C13.5188 22.6164 14.75 21.3852 14.75 19.8664V11.8664C14.75 10.3476 13.5188 9.11639 12 9.11639H4ZM6.7279 18.6469C7.06909 18.7906 7.47014 18.8624 7.93105 18.8624C8.32612 18.8624 8.69125 18.7996 9.02646 18.6739C9.36167 18.5422 9.63103 18.3536 9.83455 18.1082C10.0381 17.8568 10.1398 17.5515 10.1398 17.1924C10.1398 16.8332 10.0381 16.5399 9.83455 16.3125C9.63103 16.085 9.36765 15.9234 9.04442 15.8276V15.7917C9.65497 15.5223 9.96025 15.1123 9.96025 14.5616C9.96025 14.0468 9.7717 13.6518 9.39459 13.3764C9.02347 13.0951 8.52365 12.9544 7.89514 12.9544C7.54796 12.9544 7.22173 13.0203 6.91645 13.1519C6.61716 13.2776 6.32685 13.4572 6.04552 13.6907L6.81769 14.6245C6.99726 14.4688 7.16187 14.3521 7.31152 14.2743C7.46715 14.1965 7.63775 14.1576 7.82331 14.1576C8.21837 14.1576 8.4159 14.3311 8.4159 14.6783C8.4159 14.8759 8.32911 15.0345 8.15552 15.1542C7.98193 15.2679 7.6557 15.3248 7.17684 15.3248V16.4022C7.57789 16.4022 7.87718 16.4292 8.07471 16.4831C8.27823 16.5369 8.4159 16.6147 8.48774 16.7165C8.55957 16.8183 8.59548 16.941 8.59548 17.0846C8.59548 17.2642 8.52066 17.3989 8.37101 17.4887C8.22137 17.5785 8.02084 17.6234 7.76943 17.6234C7.56592 17.6234 7.3624 17.5755 7.15888 17.4797C6.96135 17.3779 6.77579 17.2462 6.6022 17.0846L5.90186 18.0543C6.11735 18.3057 6.39269 18.5033 6.7279 18.6469Z" fill="#A0A4AB"/>
</svg>
