<!--
    * Licensed to the Apache Software Foundation (ASF) under one
    * or more contributor license agreements.  See the NOTICE file
    * distributed with this work for additional information
    * regarding copyright ownership.  The ASF licenses this file
    * to you under the Apache License, Version 2.0 (the
    * "License"); you may not use this file except in compliance
    * with the License.  You may obtain a copy of the License at
    *
    *     http://www.apache.org/licenses/LICENSE-2.0
    *
    * Unless required by applicable law or agreed to in writing, software
    * distributed under the License is distributed on an "AS IS" BASIS,
    * WITHOUT WARRANTIES OR CONDITIONS OF ANY KIND, either express or implied.
    * See the License for the specific language governing permissions and
    * limitations under the License.
-->

<svg width="88" height="42" viewBox="0 0 88 42" fill="none" xmlns="http://www.w3.org/2000/svg">
<g clip-path="url(#clip0_22_6)">
<path d="M41.0315 27.35H53.017L47.0296 14.7885L41.0315 27.35ZM54.7709 29.9787H39.2904C39.1114 29.9781 38.9343 29.9393 38.7691 29.8644C38.6039 29.7895 38.4539 29.6801 38.3278 29.5424C38.2016 29.4047 38.1016 29.2413 38.0336 29.0617C37.9657 28.8821 37.931 28.6897 37.9315 28.4956C37.9316 28.2622 37.9831 28.0323 38.0818 27.825L45.8231 11.601C45.9368 11.3601 46.1096 11.1578 46.3225 11.0165C46.5353 10.8752 46.78 10.8003 47.0296 10.8V10.8C47.279 10.7998 47.5236 10.8742 47.7365 11.0152C47.9494 11.1561 48.1223 11.358 48.2361 11.5987L55.9645 27.8227C56.072 28.0484 56.124 28.3003 56.1154 28.5541C56.1069 28.808 56.0381 29.0551 55.9157 29.2717C55.7933 29.4883 55.6215 29.6669 55.4168 29.7904C55.2121 29.9138 54.9815 29.9779 54.7473 29.9764" fill="#FFD200"/>
<path d="M78.0635 12.2203V28.6631C78.0635 29.0157 77.9343 29.3539 77.7044 29.6032C77.4745 29.8525 77.1628 29.9926 76.8376 29.9926C76.5125 29.9926 76.2008 29.8525 75.9709 29.6032C75.741 29.3539 75.6118 29.0157 75.6118 28.6631V16.6558L70.5304 25.2707C70.4236 25.5036 70.2579 25.6987 70.0526 25.8331C69.8472 25.9675 69.6109 26.0357 69.3711 26.0297C69.1366 26.0228 68.9082 25.9464 68.7107 25.809C68.5132 25.6715 68.3541 25.4781 68.2505 25.2498L63.1841 16.686V28.6631C63.1841 30.3884 60.7325 30.3884 60.7325 28.6631V12.2203C60.7147 11.9156 60.7924 11.6134 60.9529 11.3628C61.1135 11.1121 61.3475 10.9277 61.617 10.8395C61.8925 10.7712 62.1812 10.8061 62.4361 10.9384C62.691 11.0708 62.8972 11.2928 63.021 11.5683L69.4098 22.3626L75.7557 11.5543C76.1077 10.9629 76.6809 10.6905 77.2155 10.8558C77.4753 10.9493 77.6994 11.1333 77.8528 11.3793C78.0061 11.6252 78.0802 11.9192 78.0635 12.2156" fill="#FFD200"/>
<path d="M33.7302 28.7772C33.7308 29.0937 33.6161 29.3975 33.411 29.6226C33.2059 29.8476 32.9271 29.9756 32.6354 29.9787H20.8517C20.7061 29.9865 20.5606 29.963 20.4235 29.9096C20.2863 29.8562 20.1603 29.7739 20.0526 29.6675C19.9448 29.561 19.8576 29.4325 19.7958 29.2894C19.734 29.1463 19.699 28.9913 19.6926 28.8334C19.6862 28.6755 19.7087 28.5178 19.7587 28.3694C19.8087 28.221 19.8853 28.0847 19.9841 27.9685C20.0828 27.8523 20.2017 27.7584 20.3341 27.6922C20.4664 27.626 20.6095 27.5888 20.7551 27.5828C20.7872 27.5805 20.8195 27.5805 20.8517 27.5828H32.6354C32.7803 27.5825 32.9238 27.6131 33.0578 27.673C33.1918 27.7329 33.3136 27.8208 33.4163 27.9317C33.5189 28.0426 33.6004 28.1744 33.6561 28.3194C33.7119 28.4645 33.7407 28.6201 33.741 28.7772" fill="#FFD200"/>
<path d="M15.5469 24.1741C15.5469 29.222 10.9893 29.9787 8.27572 29.9787H1.12049C0.844136 29.9493 0.587767 29.8094 0.401263 29.5862C0.214759 29.3631 0.111459 29.0727 0.111459 28.7715C0.111459 28.4703 0.214759 28.1799 0.401263 27.9568C0.587767 27.7336 0.844136 27.5937 1.12049 27.5642H8.27572C11.4336 27.5642 13.0416 26.4303 13.0416 24.1858C13.0416 21.4267 10.2744 21.1333 9.08721 21.1333H1.12049C0.845648 21.1012 0.591439 20.9601 0.406729 20.737C0.222019 20.5139 0.119844 20.2247 0.119844 19.9249C0.119844 19.6251 0.222019 19.3358 0.406729 19.1128C0.591439 18.8897 0.845648 18.7486 1.12049 18.7165H7.73259C9.61102 18.7165 11.8501 18.2508 11.8501 16.1553C11.8501 13.324 8.08036 13.2425 7.65101 13.2425H1.12049C0.821864 13.2425 0.535465 13.1138 0.324301 12.8848C0.113137 12.6558 -0.00549316 12.3452 -0.00549316 12.0213C-0.00549316 11.6974 0.113137 11.3868 0.324301 11.1577C0.535465 10.9287 0.821864 10.8 1.12049 10.8H7.65101C9.21172 10.8 14.306 11.1819 14.306 16.1343C14.306 17.6547 13.6899 18.8818 12.5886 19.5849C14.5014 20.4371 15.5469 22.046 15.5469 24.1741Z" fill="#FFD200"/>
<path d="M33.4491 19.8807C33.4493 20.0376 33.4211 20.193 33.366 20.338C33.311 20.4831 33.2301 20.6149 33.128 20.726C33.0259 20.8372 32.9047 20.9254 32.7712 20.9857C32.6377 21.046 32.4945 21.0772 32.3499 21.0775H21.1287C20.8442 21.0639 20.5755 20.9318 20.3786 20.7086C20.1817 20.4854 20.0718 20.1885 20.0718 19.8796C20.0718 19.5707 20.1817 19.2737 20.3786 19.0506C20.5755 18.8274 20.8442 18.6952 21.1287 18.6816H32.3478C32.4927 18.6816 32.6363 18.7127 32.7702 18.773C32.9041 18.8333 33.0257 18.9217 33.128 19.0331C33.2303 19.1445 33.3114 19.2768 33.3665 19.4222C33.4215 19.5677 33.4496 19.7235 33.4491 19.8807V19.8807Z" fill="#FFD200"/>
<path d="M19.7546 11.9992C19.7541 11.8423 19.782 11.6869 19.8368 11.5417C19.8917 11.3966 19.9723 11.2645 20.0742 11.1532C20.176 11.0418 20.2971 10.9533 20.4305 10.8928C20.5639 10.8322 20.707 10.8007 20.8517 10.8H32.6353C32.928 10.8 33.2087 10.9261 33.4156 11.1506C33.6225 11.375 33.7388 11.6794 33.7388 11.9968C33.7388 12.3142 33.6225 12.6186 33.4156 12.8431C33.2087 13.0675 32.928 13.1936 32.6353 13.1936H20.8517C20.5608 13.1905 20.2828 13.0636 20.0776 12.8401C19.8723 12.6166 19.7563 12.3146 19.7546 11.9992" fill="#FFD200"/>
<path d="M1.24733 41.4297C0.969562 41.2083 0.737114 40.9268 0.564656 40.6031C0.475959 40.445 0.448748 40.2552 0.488999 40.0753C0.52925 39.8954 0.633673 39.7402 0.779335 39.6438C0.813316 39.6207 0.84926 39.6013 0.886674 39.5856C1.02962 39.5176 1.1905 39.5081 1.33937 39.5591C1.48825 39.6101 1.61499 39.718 1.69601 39.8627C1.77506 40.0188 1.87651 40.1603 1.99656 40.2818C2.11293 40.4008 2.24982 40.4938 2.39939 40.5553C2.54896 40.6169 2.70826 40.6458 2.86815 40.6404C3.1342 40.6496 3.39622 40.5682 3.61738 40.4075C3.71596 40.3354 3.79604 40.2374 3.85011 40.1225C3.90418 40.0077 3.93047 39.8798 3.92652 39.7509C3.93072 39.6175 3.90612 39.4849 3.85468 39.3636C3.80325 39.2423 3.7264 39.1358 3.63026 39.0524C3.30934 38.8031 2.9544 38.6098 2.57834 38.4796L2.14898 38.3097C1.7172 38.1509 1.32493 37.8864 1.0026 37.5367C0.845443 37.3646 0.722162 37.1596 0.640237 36.9343C0.558313 36.709 0.519452 36.4679 0.526014 36.2258C0.523323 35.8455 0.620897 35.4723 0.807243 35.1501C1.00321 34.8212 1.27872 34.557 1.6037 34.3864C1.96723 34.1973 2.36629 34.1025 2.7694 34.1093C3.29945 34.0725 3.82476 34.2372 4.25498 34.575C4.40356 34.7049 4.53823 34.8525 4.65642 35.015C4.74765 35.1492 4.78621 35.3171 4.76368 35.482C4.74116 35.6469 4.65938 35.7954 4.53621 35.8952C4.49568 35.9253 4.45254 35.951 4.4074 35.972L4.29791 36.0209C4.18129 36.0682 4.05369 36.0734 3.93415 36.0356C3.81461 35.9978 3.70952 35.9192 3.63456 35.8113C3.58577 35.7495 3.53188 35.6926 3.47355 35.6414C3.27767 35.4787 3.03515 35.3963 2.78872 35.4085C2.53875 35.3977 2.29209 35.4735 2.08458 35.6251C1.99995 35.6856 1.93039 35.7678 1.88208 35.8645C1.83378 35.9612 1.80821 36.0693 1.80764 36.1792C1.80805 36.2906 1.83208 36.4004 1.87787 36.5002C1.92365 36.5999 1.98997 36.6868 2.0717 36.7543C2.33112 36.962 2.62162 37.1195 2.93041 37.22L3.35977 37.3783C3.88601 37.5492 4.36578 37.8569 4.75732 38.2748C5.0438 38.6486 5.21131 39.1127 5.23491 39.5981C5.2585 40.0836 5.13693 40.5642 4.88828 40.9687C4.65955 41.3078 4.34906 41.5721 3.99092 41.7324C3.63464 41.9046 3.2496 41.9957 2.85957 42.0001C2.2803 42.0099 1.71402 41.8136 1.24733 41.4413" fill="#FFD200"/>
<path d="M15.5943 41.609C15.1866 41.3542 14.8584 40.9731 14.6518 40.5146C14.4185 39.9853 14.3038 39.4038 14.3169 38.8173V34.9848C14.3169 34.7995 14.3848 34.6219 14.5056 34.4909C14.6263 34.3599 14.7902 34.2863 14.961 34.2863V34.2863C15.1318 34.2863 15.2956 34.3599 15.4164 34.4909C15.5372 34.6219 15.605 34.7995 15.605 34.9848V38.9034C15.5856 39.3562 15.7149 39.8017 15.97 40.1607C16.0997 40.308 16.255 40.4261 16.4269 40.5083C16.5988 40.5905 16.7839 40.6351 16.9717 40.6397C17.1596 40.6442 17.3463 40.6086 17.5214 40.5348C17.6965 40.461 17.8565 40.3505 17.9922 40.2096L18.0373 40.1607C18.2924 39.8017 18.4217 39.3562 18.4023 38.9034V34.9848C18.4023 34.7977 18.4708 34.6182 18.5928 34.4859C18.7148 34.3536 18.8802 34.2793 19.0527 34.2793C19.2253 34.2793 19.3907 34.3536 19.5127 34.4859C19.6347 34.6182 19.7032 34.7977 19.7032 34.9848V38.8173C19.7147 39.3896 19.6014 39.9568 19.3726 40.4727C19.1648 40.9357 18.8373 41.3232 18.4302 41.588C18.0021 41.8628 17.5128 42.0053 17.0154 42.0001C16.519 42.013 16.0284 41.882 15.5943 41.6206" fill="#FFD200"/>
<path d="M30.143 34.2793C30.3457 34.2788 30.5437 34.3455 30.7105 34.4703C30.8774 34.5951 31.0052 34.7722 31.0768 34.9778L32.6783 39.574H32.7556L34.3528 34.9801C34.4252 34.775 34.5532 34.5985 34.7199 34.4739C34.8866 34.3492 35.0842 34.2822 35.2867 34.2816V34.2816C35.5514 34.2816 35.8053 34.3957 35.9925 34.5987C36.1797 34.8018 36.2849 35.0772 36.2849 35.3643V35.3643V41.12C36.2849 41.3053 36.2171 41.4829 36.0963 41.6139C35.9755 41.7449 35.8117 41.8185 35.6409 41.8185C35.4701 41.8185 35.3062 41.7449 35.1855 41.6139C35.0647 41.4829 34.9968 41.3053 34.9968 41.12V38.0932L35.0741 36.8382H34.9968L33.3889 41.3622C33.3424 41.4942 33.2601 41.6079 33.1527 41.6882C33.0454 41.7684 32.9182 41.8114 32.7878 41.8115H32.6526C32.5222 41.8114 32.3949 41.7684 32.2876 41.6882C32.1803 41.6079 32.0979 41.4942 32.0515 41.3622L30.4349 36.8382H30.3555L30.4349 38.0932V41.12C30.4349 41.3053 30.3671 41.4829 30.2463 41.6139C30.1255 41.7449 29.9617 41.8185 29.7909 41.8185C29.6201 41.8185 29.4563 41.7449 29.3355 41.6139C29.2147 41.4829 29.1469 41.3053 29.1469 41.12V35.3643C29.1466 35.2221 29.1721 35.0813 29.222 34.9498C29.2719 34.8183 29.3452 34.6988 29.4377 34.5981C29.5302 34.4973 29.6401 34.4173 29.7611 34.3626C29.8821 34.3079 30.0119 34.2796 30.143 34.2793V34.2793" fill="#FFD200"/>
<path d="M46.8449 34.2793C47.0476 34.2792 47.2454 34.3459 47.4122 34.4707C47.579 34.5955 47.7069 34.7723 47.7788 34.9778L49.3803 39.5763H49.4576L51.0591 34.9801C51.131 34.7747 51.2588 34.5978 51.4256 34.473C51.5924 34.3483 51.7903 34.2815 51.9929 34.2816H52.0037C52.2684 34.2816 52.5223 34.3957 52.7095 34.5987C52.8967 34.8018 53.0019 35.0772 53.0019 35.3643V35.3643V41.12C53.0019 41.3053 52.9341 41.4829 52.8133 41.6139C52.6925 41.7449 52.5287 41.8185 52.3579 41.8185V41.8185C52.1871 41.8185 52.0232 41.7449 51.9025 41.6139C51.7817 41.4829 51.7138 41.3053 51.7138 41.12V38.0931L51.7911 36.8382H51.7138L50.1059 41.3622C50.0593 41.4946 49.9766 41.6085 49.8688 41.6888C49.7611 41.7691 49.6334 41.8119 49.5026 41.8115H49.3803C49.2496 41.8119 49.1218 41.7691 49.0141 41.6888C48.9063 41.6085 48.8237 41.4946 48.777 41.3622L47.1605 36.8382H47.0832L47.1605 38.0931V41.12C47.1605 41.3053 47.0927 41.4829 46.9719 41.6139C46.8511 41.7449 46.6873 41.8185 46.5165 41.8185C46.3457 41.8185 46.1819 41.7449 46.0611 41.6139C45.9403 41.4829 45.8724 41.3053 45.8724 41.12V35.3643C45.8722 35.2221 45.8977 35.0813 45.9476 34.9498C45.9975 34.8183 46.0708 34.6988 46.1633 34.5981C46.2558 34.4973 46.3657 34.4173 46.4867 34.3626C46.6077 34.3079 46.7375 34.2796 46.8685 34.2793" fill="#FFD200"/>
<path d="M63.2035 34.2793C63.375 34.2805 63.5393 34.3541 63.6615 34.4845C63.7838 34.6149 63.8543 34.7919 63.8583 34.9778V41.0967C63.8632 41.1901 63.8511 41.2837 63.8227 41.372C63.7943 41.4604 63.7501 41.5418 63.6927 41.6116C63.6353 41.6815 63.5658 41.7384 63.4881 41.7791C63.4104 41.8197 63.3261 41.8434 63.24 41.8488C63.1539 41.8541 63.0676 41.841 62.9861 41.8102C62.9047 41.7794 62.8296 41.7315 62.7652 41.6693C62.7008 41.607 62.6484 41.5316 62.6109 41.4473C62.5734 41.3631 62.5515 41.2716 62.5466 41.1782C62.5444 41.1511 62.5444 41.1238 62.5466 41.0967V34.9894C62.5494 34.8027 62.6199 34.6247 62.7429 34.494C62.8658 34.3633 63.0313 34.2903 63.2035 34.2909" fill="#FFD200"/>
<path d="M74.8111 35.6272H73.4909C73.4091 35.6327 73.3272 35.6206 73.2497 35.5917C73.1723 35.5627 73.1009 35.5175 73.0396 35.4586C72.9783 35.3996 72.9283 35.3282 72.8925 35.2482C72.8567 35.1683 72.8358 35.0815 72.831 34.9929C72.8262 34.9042 72.8376 34.8153 72.8645 34.7314C72.8914 34.6475 72.9334 34.5702 72.9879 34.5039C73.0424 34.4376 73.1084 34.3836 73.1822 34.345C73.256 34.3064 73.3361 34.284 73.4179 34.2791C73.4422 34.2768 73.4666 34.2768 73.4909 34.2791H77.441C77.5227 34.2736 77.6047 34.2857 77.6821 34.3146C77.7596 34.3436 77.831 34.3888 77.8923 34.4477C77.9536 34.5067 78.0035 34.5781 78.0393 34.6581C78.0751 34.738 78.096 34.8248 78.1008 34.9135C78.1056 35.0021 78.0942 35.091 78.0673 35.1749C78.0404 35.2588 77.9985 35.3361 77.944 35.4024C77.8894 35.4687 77.8234 35.5227 77.7496 35.5613C77.6758 35.5999 77.5957 35.6223 77.5139 35.6272C77.4897 35.6295 77.4652 35.6295 77.441 35.6272H76.1228V41.1454C76.1228 41.3245 76.0572 41.4962 75.9405 41.6229C75.8237 41.7495 75.6654 41.8206 75.5003 41.8206H75.4316C75.2668 41.82 75.109 41.7486 74.9927 41.6221C74.8764 41.4955 74.8111 41.3241 74.8111 41.1454V35.6272Z" fill="#FFD200"/>
</g>
<path fill-rule="evenodd" clip-rule="evenodd" d="M82.1334 0.945591C79.3918 0.945591 77.1693 3.27405 77.1693 6.14634C77.1693 9.01864 79.3918 11.3471 82.1334 11.3471C84.875 11.3471 87.0975 9.01864 87.0975 6.14634C87.0975 3.27405 84.875 0.945591 82.1334 0.945591ZM76.2667 6.14634C76.2667 2.75181 78.8933 0 82.1334 0C85.3735 0 88.0001 2.75181 88.0001 6.14634C88.0001 9.54087 85.3735 12.2927 82.1334 12.2927C78.8933 12.2927 76.2667 9.54087 76.2667 6.14634ZM82.1334 4.25508C82.4657 4.25508 82.7351 4.57028 82.7351 4.88547V9.29823C82.7351 9.61343 82.4657 9.92862 82.1334 9.92862C81.8011 9.92862 81.5317 9.61343 81.5317 9.29823L81.5317 4.88547C81.5317 4.57028 81.8011 4.25508 82.1334 4.25508ZM82.7351 2.98337C82.7351 2.64144 82.4657 2.36426 82.1334 2.36426C81.8011 2.36426 81.5317 2.64144 81.5317 2.98337V3.00594C81.5317 3.34786 81.8011 3.62505 82.1334 3.62505C82.4657 3.62505 82.7351 3.34786 82.7351 3.00594V2.98337Z" fill="#A0A4AB"/>
<defs>
<clipPath id="clip0_22_6">
<rect width="78.1" height="31.2" fill="white" transform="translate(0 10.8)"/>
</clipPath>
</defs>
</svg>
