<!--
    Licensed to the Apache Software Foundation (ASF) under one
    or more contributor license agreements.  See the NOTICE file
    distributed with this work for additional information
    regarding copyright ownership.  The ASF licenses this file
    to you under the Apache License, Version 2.0 (the
    "License"); you may not use this file except in compliance
    with the License.  You may obtain a copy of the License at

      http://www.apache.org/licenses/LICENSE-2.0

    Unless required by applicable law or agreed to in writing,
    software distributed under the License is distributed on an
    "AS IS" BASIS, WITHOUT WARRANTIES OR CONDITIONS OF ANY
    KIND, either express or implied.  See the License for the
    specific language governing permissions and limitations
    under the License.
-->

<svg width="24" height="24" viewBox="0 0 24 24" fill="none" xmlns="http://www.w3.org/2000/svg">
    <path
        d="M12 21C16.9706 21 21 16.9706 21 12C21 10.8144 20.7708 9.68239 20.3542 8.64581C20.3067 8.52774 20.2569 8.41091 20.2046 8.29539C19.754 7.29897 19.1272 6.39928 18.364 5.63604C18.1972 5.46923 18.0238 5.30895 17.8444 5.15559C17.2028 4.60724 16.4833 4.14752 15.7046 3.79539C14.5748 3.28444 13.3206 3 12 3V11V17V21Z"
        fill="#A0A4AB" />
    <path
        d="M12 21C16.9706 21 21 16.9706 21 12C21 10.8144 20.7708 9.68239 20.3542 8.64581C20.3067 8.52774 20.2569 8.41091 20.2046 8.29539C19.754 7.29897 19.1272 6.39928 18.364 5.63604C18.1972 5.46923 18.0238 5.30895 17.8444 5.15559C17.2028 4.60724 16.4833 4.14752 15.7046 3.79539C14.5748 3.28444 13.3206 3 12 3M12 21C7.02944 21 3 16.9706 3 12C3 7.02944 7.02944 3 12 3M12 21V17V11V3"
        stroke="#A0A4AB" stroke-width="1.5" stroke-linecap="round" stroke-linejoin="round" />
</svg>
