<svg width="40" height="40" viewBox="0 0 40 40" fill="none" xmlns="http://www.w3.org/2000/svg">
    <path
        d="M0 8C0 3.58172 3.58172 0 8 0H32C36.4183 0 40 3.58172 40 8V32C40 36.4183 36.4183 40 32 40H8C3.58172 40 0 36.4183 0 32V8Z"
        fill="#FFBC11" fill-opacity="0.15" />
    <path fill-rule="evenodd" clip-rule="evenodd"
        d="M8.97793 29.5131C8.70259 30.0129 9.06419 30.6249 9.63486 30.6249L30.3698 30.6249C30.94 30.6249 31.3017 30.0138 31.0272 29.5139L20.6757 10.664C20.3911 10.1457 19.6466 10.1453 19.3613 10.6632L8.97793 29.5131ZM18.7669 23.1249C18.7669 23.8153 19.3265 24.3749 20.0169 24.3749C20.7073 24.3749 21.2669 23.8153 21.2669 23.1249V17.9017C21.2669 17.2113 20.7073 16.6517 20.0169 16.6517C19.3265 16.6517 18.7669 17.2113 18.7669 17.9017V23.1249ZM20.0169 28.1249C19.3265 28.1249 18.7669 27.5653 18.7669 26.8749V26.6517C18.7669 25.9613 19.3265 25.4017 20.0169 25.4017C20.7073 25.4017 21.2669 25.9613 21.2669 26.6517V26.8749C21.2669 27.5653 20.7073 28.1249 20.0169 28.1249Z"
        fill="#EEAB00" />
</svg>
