<?xml version="1.0" encoding="UTF-8"?>
<!--
 Licensed to the Apache Software Foundation (ASF) under one
 or more contributor license agreements.  See the NOTICE file
 distributed with this work for additional information
 regarding copyright ownership.  The ASF licenses this file
 to you under the Apache License, Version 2.0 (the
 "License"); you may not use this file except in compliance
 with the License.  You may obtain a copy of the License at

   http://www.apache.org/licenses/LICENSE-2.0

 Unless required by applicable law or agreed to in writing,
 software distributed under the License is distributed on an
 "AS IS" BASIS, WITHOUT WARRANTIES OR CONDITIONS OF ANY
 KIND, either express or implied.  See the License for the
 specific language governing permissions and limitations
 under the License.
-->
<svg width="112" height="113" viewBox="0 0 112 113" fill="none" xmlns="http://www.w3.org/2000/svg">
<path d="M56 112.445C86.9279 112.445 112 87.3732 112 56.4453C112 25.5174 86.9279 0.445312 56 0.445312C25.0721 0.445312 0 25.5174 0 56.4453C0 87.3732 25.0721 112.445 56 112.445Z" fill="#FFE5D9"/>
<path d="M68.1905 25.3509C68.5234 24.5068 69.7181 24.5068 70.051 25.3509L71.0279 27.8279C71.1296 28.0856 71.3336 28.2896 71.5913 28.3913L74.0683 29.3682C74.9124 29.7011 74.9124 30.8958 74.0683 31.2287L71.5913 32.2056C71.3336 32.3073 71.1296 32.5113 71.0279 32.769L70.051 35.246C69.7181 36.0902 68.5234 36.0902 68.1905 35.246L67.2135 32.769C67.1119 32.5113 66.9079 32.3073 66.6502 32.2056L64.1732 31.2287C63.329 30.8958 63.329 29.7011 64.1732 29.3682L66.6502 28.3913C66.9079 28.2896 67.1119 28.0856 67.2135 27.8279L68.1905 25.3509Z" fill="#FF570B"/>
<path d="M79.6601 37.7806C79.993 36.9364 81.1877 36.9364 81.5206 37.7806L81.6095 38.0059C81.7112 38.2636 81.9152 38.4676 82.1729 38.5693L82.3982 38.6582C83.2424 38.9911 83.2424 40.1858 82.3982 40.5187L82.1729 40.6076C81.9152 40.7092 81.7112 40.9132 81.6095 41.1709L81.5206 41.3963C81.1877 42.2404 79.993 42.2404 79.6601 41.3963L79.5712 41.1709C79.4696 40.9132 79.2656 40.7092 79.0079 40.6076L78.7825 40.5187C77.9384 40.1858 77.9384 38.9911 78.7825 38.6582L79.0079 38.5693C79.2656 38.4676 79.4696 38.2636 79.5712 38.0059L79.6601 37.7806Z" fill="#FF570B"/>
<path d="M30.4804 72.0638C30.8134 71.2196 32.008 71.2196 32.341 72.0638L32.4298 72.2891C32.5315 72.5468 32.7355 72.7508 32.9932 72.8525L33.2185 72.9414C34.0627 73.2743 34.0627 74.469 33.2185 74.8019L32.9932 74.8908C32.7355 74.9924 32.5315 75.1964 32.4298 75.4541L32.341 75.6795C32.008 76.5236 30.8133 76.5236 30.4804 75.6795L30.3916 75.4541C30.2899 75.1964 30.0859 74.9924 29.8282 74.8908L29.6029 74.8019C28.7587 74.469 28.7587 73.2743 29.6029 72.9414L29.8282 72.8525C30.0859 72.7508 30.2899 72.5468 30.3916 72.2891L30.4804 72.0638Z" fill="#FF570B"/>
<path fill-rule="evenodd" clip-rule="evenodd" d="M56.1328 80.4646L57.8672 82.2843C58.6655 83.1219 60.0059 83.1093 60.7884 82.2568L80.1362 61.1767C80.7153 60.5458 80.8284 59.6161 80.4175 58.8647L74.3729 47.8119C74.0221 47.1704 73.3493 46.7715 72.6182 46.7715H70.0838L75.7339 57.103C76.1448 57.8544 76.0317 58.7841 75.4526 59.415L56.1328 80.4646Z" fill="#1D1D1B"/>
<mask id="mask0" mask-type="alpha" maskUnits="userSpaceOnUse" x="32" y="45" width="44" height="37">
<path d="M53.1836 80.5226L33.098 59.4483C32.4835 58.8035 32.3695 57.8301 32.8182 57.0608L39.2687 46.0021C39.6271 45.3876 40.2849 45.0098 40.9962 45.0098H67.9346C68.6657 45.0098 69.3386 45.4087 69.6894 46.0501L75.734 57.103C76.1449 57.8544 76.0318 58.7841 75.4527 59.415L56.1049 80.4951C55.3224 81.3476 53.982 81.3602 53.1836 80.5226Z" fill="#1D1D1B"/>
</mask>
<g mask="url(#mask0)">
<path d="M39.6895 44.4004L46.8017 58.154L54.7995 44.4004H39.6895Z" fill="#FBC23E"/>
<path d="M54.7246 44.4004L62.5043 58.1896L69.1587 44.4004H54.7246Z" fill="#FBC23E"/>
<path d="M62.4941 58.1543L54.735 44.4015L46.7943 58.1543L62.4941 58.1543Z" fill="white"/>
<path d="M46.7969 58.1543L39.6961 44.4048L31.9337 58.1543L46.7969 58.1543Z" fill="white"/>
<path d="M76.7969 58.041L69.0378 44.2882L62.5771 58.041L76.7969 58.041Z" fill="white"/>
<path d="M54.6395 81.9527L31.8926 58.041L46.8061 58.1549L54.6395 81.9527Z" fill="#FF570B"/>
<path d="M54.6347 81.9559L76.834 58.041H62.489L54.6347 81.9559Z" fill="#FF570B"/>
<path d="M54.6419 81.9339L46.793 58.1543H62.4974L54.6419 81.9339Z" fill="#FBC23E"/>
</g>
</svg>
