<!--
 Licensed to the Apache Software Foundation (ASF) under one
 or more contributor license agreements.  See the NOTICE file
 distributed with this work for additional information
 regarding copyright ownership.  The ASF licenses this file
 to you under the Apache License, Version 2.0 (the
 "License"); you may not use this file except in compliance
 with the License.  You may obtain a copy of the License at

   http://www.apache.org/licenses/LICENSE-2.0

 Unless required by applicable law or agreed to in writing,
 software distributed under the License is distributed on an
 "AS IS" BASIS, WITHOUT WARRANTIES OR CONDITIONS OF ANY
 KIND, either express or implied.  See the License for the
 specific language governing permissions and limitations
 under the License.
-->
<svg id="Layer_1" data-name="Layer 1" xmlns="http://www.w3.org/2000/svg" xmlns:xlink="http://www.w3.org/1999/xlink" viewBox="0 0 46.08141 52.39035"><defs><style>.cls-1,.cls-8{fill:#ff6d00;stroke:#ff6d00;stroke-miterlimit:10;}.cls-1{stroke-width:0.07702px;}.cls-2{fill:#fee900;}.cls-3{fill:#ffc400;}.cls-4{opacity:0.75;fill:url(#linear-gradient);}.cls-5{fill:#ffe082;}.cls-6{fill:url(#linear-gradient-2);}.cls-7{fill:#fff;}.cls-8{stroke-width:0.07658px;}</style><linearGradient id="linear-gradient" x1="13.47842" y1="13.77808" x2="20.33423" y2="13.77808" gradientUnits="userSpaceOnUse"><stop offset="0" stop-color="#ffc400"/><stop offset="0.13695" stop-color="#fecd00"/><stop offset="0.36528" stop-color="#fed400"/><stop offset="1" stop-color="#fed600"/></linearGradient><linearGradient id="linear-gradient-2" x1="13.47842" y1="11.46331" x2="27.73643" y2="11.46331" gradientUnits="userSpaceOnUse"><stop offset="0" stop-color="#ff0" stop-opacity="0.7"/><stop offset="0.13194" stop-color="#fff600" stop-opacity="0.66022"/><stop offset="0.31385" stop-color="#feef00" stop-opacity="0.62592"/><stop offset="0.54652" stop-color="#feea00" stop-opacity="0.60587"/><stop offset="1" stop-color="#fee900" stop-opacity="0.6"/></linearGradient></defs><title>beam-logo_3-color_name-bottom</title><path class="cls-1" d="M310.05225,590.74284a8.2666,8.2666,0,0,1-.26855,2.17773,5.11109,5.11109,0,0,1-.78613,1.69434,3.6728,3.6728,0,0,1-1.26953,1.10352,3.61552,3.61552,0,0,1-1.709.39551,4.17687,4.17687,0,0,1-1.9873-.43945,3.7825,3.7825,0,0,1-1.35254-1.20117l-0.04883,1.44531h-1.09375v-15h1.16211v5.9668a3.7626,3.7626,0,0,1,1.33789-1.27441,3.96054,3.96054,0,0,1,1.96289-.4541,3.75235,3.75235,0,0,1,1.71875.38086,3.59684,3.59684,0,0,1,1.27441,1.084,5.01528,5.01528,0,0,1,.791,1.69434,8.49281,8.49281,0,0,1,.26855,2.22168v0.20508Zm-1.17187-.20508a8.01359,8.01359,0,0,0-.17578-1.71875,4.23092,4.23092,0,0,0-.55176-1.38672,2.65518,2.65518,0,0,0-2.36816-1.25977,3.49616,3.49616,0,0,0-1.17187.18066,2.96231,2.96231,0,0,0-.87891.4834,3.02455,3.02455,0,0,0-.625.69336,4.13245,4.13245,0,0,0-.41016.81055v4.76563a3.88314,3.88314,0,0,0,.46387.78613,2.97018,2.97018,0,0,0,.65918.63477,3.04123,3.04123,0,0,0,.874.41992,3.74933,3.74933,0,0,0,1.1084.15137,2.71541,2.71541,0,0,0,1.37207-.332,2.78148,2.78148,0,0,0,.96191-0.918,4.22959,4.22959,0,0,0,.56152-1.38184,7.76429,7.76429,0,0,0,.18066-1.72363v-0.20508Z" transform="translate(-301.49811 -543.76209)"/><path class="cls-1" d="M316.42236,596.11393a4.6321,4.6321,0,0,1-1.9043-.38574,4.45385,4.45385,0,0,1-1.499-1.07422,4.9347,4.9347,0,0,1-.98145-1.63574,5.93038,5.93038,0,0,1-.35156-2.08008v-0.41992a6.34648,6.34648,0,0,1,.36621-2.21191,5.21915,5.21915,0,0,1,.99121-1.68945,4.45383,4.45383,0,0,1,1.44043-1.0791,4.02384,4.02384,0,0,1,1.72363-.38086,4.22323,4.22323,0,0,1,1.78711.36133,3.68768,3.68768,0,0,1,1.31348,1.00586,4.41724,4.41724,0,0,1,.80566,1.5332,6.58916,6.58916,0,0,1,.27344,1.94336v0.71289h-7.53906v0.22461a4.99061,4.99061,0,0,0,.26367,1.63574,4.10536,4.10536,0,0,0,.74219,1.333,3.50019,3.50019,0,0,0,1.14258.89355,3.2824,3.2824,0,0,0,1.47461.32715,3.79834,3.79834,0,0,0,1.65527-.3418,3.66112,3.66112,0,0,0,1.30371-1.09375l0.73242,0.55664a5.05129,5.05129,0,0,1-.61035.72266,3.62988,3.62988,0,0,1-.80566.5957,4.30962,4.30962,0,0,1-1.03516.40039A5.23867,5.23867,0,0,1,316.42236,596.11393Zm-0.21484-9.96094a2.97733,2.97733,0,0,0-1.23047.25391,3.0726,3.0726,0,0,0-1.001.72266,3.83666,3.83666,0,0,0-.71289,1.12793,5.42618,5.42618,0,0,0-.376,1.46h6.33789v-0.127a4.72158,4.72158,0,0,0-.21484-1.28418,3.43867,3.43867,0,0,0-.57129-1.09863,2.826,2.826,0,0,0-.93262-0.7666A2.7966,2.7966,0,0,0,316.20752,586.153Z" transform="translate(-301.49811 -543.76209)"/><path class="cls-1" d="M329.03223,595.91862a3.34628,3.34628,0,0,1-.15137-0.66895q-0.05347-.39551-0.07324-0.80566a4.17156,4.17156,0,0,1-1.43555,1.17188,4.84508,4.84508,0,0,1-.98633.36133,4.67053,4.67053,0,0,1-1.16211.13672,4.13408,4.13408,0,0,1-1.40137-.22461,3.12524,3.12524,0,0,1-1.07422-.62988,2.82851,2.82851,0,0,1-.68848-0.95215,3.05769,3.05769,0,0,1,.08789-2.583,3.01543,3.01543,0,0,1,.957-1.05469,4.69316,4.69316,0,0,1,1.51855-.66406,8.10864,8.10864,0,0,1,2.00684-.22949h2.168v-1.20117a2.31666,2.31666,0,0,0-.69824-1.78223,2.88718,2.88718,0,0,0-2.03613-.64941,3.7027,3.7027,0,0,0-1.13281.166,2.86974,2.86974,0,0,0-.89355.459,2.18809,2.18809,0,0,0-.58594.67871,1.69984,1.69984,0,0,0-.21.8252l-1.17187-.00977a2.446,2.446,0,0,1,.293-1.15234,3.20742,3.20742,0,0,1,.82519-0.99121,4.24122,4.24122,0,0,1,1.27931-.69824,4.94591,4.94591,0,0,1,1.65527-.26367,5.33283,5.33283,0,0,1,1.54785.21484,3.379,3.379,0,0,1,1.21582.64453,2.93358,2.93358,0,0,1,.791,1.07422,3.711,3.711,0,0,1,.2832,1.50391v5.11719q0,0.27393.01953,0.56641c0.01318,0.19531.03418,0.38477,0.06348,0.56641q0.04395,0.27393.10254,0.52246a2.71078,2.71078,0,0,0,.13672.43457v0.11719h-1.25Zm-3.67187-.83984a4.11268,4.11268,0,0,0,1.17676-.16113,3.77685,3.77685,0,0,0,.98145-0.44434,3.45584,3.45584,0,0,0,.76172-0.65918,3.31326,3.31326,0,0,0,.51758-0.81543v-2.32422h-2.002a7.26913,7.26913,0,0,0-1.60645.16113,3.92189,3.92189,0,0,0-1.19629.46387,2.19519,2.19519,0,0,0-.74707.7373,1.88437,1.88437,0,0,0-.25879.98145,1.96505,1.96505,0,0,0,.166.80566,1.9175,1.9175,0,0,0,.47363.6543,2.25663,2.25663,0,0,0,.74707.43945A2.8489,2.8489,0,0,0,325.36035,595.07877Z" transform="translate(-301.49811 -543.76209)"/><path class="cls-1" d="M333.83984,585.35221l0.03906,1.71875a4.5411,4.5411,0,0,1,.61035-0.78613,3.58937,3.58937,0,0,1,.77637-0.60547,3.894,3.894,0,0,1,.9375-0.38574,4.20746,4.20746,0,0,1,1.09375-.13672,3.8643,3.8643,0,0,1,1.99219.48828,2.70091,2.70091,0,0,1,1.18164,1.5625,4.34354,4.34354,0,0,1,.61035-0.81543,3.87576,3.87576,0,0,1,.81055-0.64941,4.16451,4.16451,0,0,1,1.001-.42969,4.31062,4.31062,0,0,1,1.18164-.15625,4.52793,4.52793,0,0,1,1.46484.21973,2.63408,2.63408,0,0,1,1.08887.69336,3.12565,3.12565,0,0,1,.67871,1.20605,5.80465,5.80465,0,0,1,.23438,1.75781v6.88477h-1.17187v-6.89453a4.43673,4.43673,0,0,0-.18555-1.3916,2.13512,2.13512,0,0,0-.52734-0.87891,1.85824,1.85824,0,0,0-.81543-0.4541,4.04093,4.04093,0,0,0-1.04-.127,3.09015,3.09015,0,0,0-2.24121.92285,3.07311,3.07311,0,0,0-.85449,1.83105v6.99219H339.5332V588.9362a4.02053,4.02053,0,0,0-.18555-1.31836,2.09772,2.09772,0,0,0-.52734-0.84961,1.96925,1.96925,0,0,0-.81543-0.459,3.7906,3.7906,0,0,0-1.0498-.13672,3.05277,3.05277,0,0,0-1.17187.21,2.91731,2.91731,0,0,0-.88379.56152,3.15875,3.15875,0,0,0-.62012.80078,5.04962,5.04962,0,0,0-.39062.92773v7.24609H332.7168V585.35221h1.123Z" transform="translate(-301.49811 -543.76209)"/><polygon class="cls-2" points="13.478 9.483 20.334 13.786 27.736 9.141 27.736 5.513 13.478 1.044 13.478 9.483"/><polygon class="cls-3" points="13.478 1.044 13.478 9.483 13.478 9.597 13.478 18.089 27.736 9.141 27.736 5.513 13.478 1.044"/><polygon class="cls-4" points="13.478 9.589 13.478 18.081 20.334 13.778 13.478 9.476 13.478 9.589"/><polygon class="cls-3" points="13.478 9.483 13.478 18.089 13.478 26.443 27.736 22.059 27.736 18.432 13.478 9.483"/><polygon class="cls-5" points="13.415 19.465 13.415 21.017 27.736 22.293 27.736 18.19 13.415 19.465"/><polygon class="cls-5" points="13.367 6.598 13.367 8.151 27.67 9.426 27.67 5.323 13.367 6.598"/><polygon class="cls-2" points="13.478 1.044 27.736 5.513 27.736 5.513 13.478 1.044"/><polygon class="cls-6" points="20.334 13.786 27.736 9.141 20.334 13.786 20.334 13.786"/><path class="cls-7" d="M327.60557,564.00318a1.629,1.629,0,0,0,1.629,1.629v-3.258A1.629,1.629,0,0,0,327.60557,564.00318Z" transform="translate(-301.49811 -543.76209)"/><path class="cls-7" d="M327.60557,551.13677a1.629,1.629,0,0,0,1.629,1.629v-3.258A1.629,1.629,0,0,0,327.60557,551.13677Z" transform="translate(-301.49811 -543.76209)"/><path class="cls-8" d="M334.35123,561.19285a6.11749,6.11749,0,0,0-.85923-1.83177,5.77531,5.77531,0,0,0-1.45409-1.44474,6.56547,6.56547,0,0,0-2.06782-.93477,6.56259,6.56259,0,0,0,2.98371-2.34164,5.93691,5.93691,0,0,0,1.01975-3.39916,7.87167,7.87167,0,0,0-.65151-3.33307,5.92106,5.92106,0,0,0-1.879-2.31332,8.449,8.449,0,0,0-3.00259-1.35022,16.55166,16.55166,0,0,0-4.00346-.44378h-9.42323v1.06115l13.95629,4.34814a0.38292,0.38292,0,0,1,.26447.36414v3.116a0.38292,0.38292,0,0,1-.19569.334l-7.15044,4.52428,7.15044,4.5243a0.38292,0.38292,0,0,1,.19569.334v3.116a0.38292,0.38292,0,0,1-.26447.36414l-13.95629,4.34814v1.06116H325.098a14.40135,14.40135,0,0,0,3.994-.50987,8.33886,8.33886,0,0,0,3.00259-1.52027,6.56572,6.56572,0,0,0,1.88842-2.5116,8.68771,8.68771,0,0,0,.65151-3.484A7.59145,7.59145,0,0,0,334.35123,561.19285Z" transform="translate(-301.49811 -543.76209)"/></svg>
