<?xml version="1.0" encoding="UTF-8"?>
<!--
 Licensed to the Apache Software Foundation (ASF) under one
 or more contributor license agreements.  See the NOTICE file
 distributed with this work for additional information
 regarding copyright ownership.  The ASF licenses this file
 to you under the Apache License, Version 2.0 (the
 "License"); you may not use this file except in compliance
 with the License.  You may obtain a copy of the License at

   http://www.apache.org/licenses/LICENSE-2.0

 Unless required by applicable law or agreed to in writing,
 software distributed under the License is distributed on an
 "AS IS" BASIS, WITHOUT WARRANTIES OR CONDITIONS OF ANY
 KIND, either express or implied.  See the License for the
 specific language governing permissions and limitations
 under the License.
-->
<svg xmlns="http://www.w3.org/2000/svg" width="112" height="113" fill="none" viewBox="0 0 112 113">
    <path fill="#FFE5D9" d="M56 112.445c30.928 0 56-25.072 56-56s-25.072-56-56-56-56 25.072-56 56 25.072 56 56 56z"/>
    <path fill="#FBC23E" d="M80.493 38.334c-.543-.1-.995-.538-.995-1.09v-5.83c0-.553-.448-1-1-1h-5.56c-.542 0-.978-.438-1.076-.972-.5-2.707-2.786-4.755-5.54-4.755-2.75 0-5.04 2.048-5.54 4.755-.1.534-.535.971-1.078.971h-5.56c-.552 0-1 .448-1 1v5.83c0 .553.452.991.995 1.091 2.644.49 4.652 2.892 4.652 5.78 0 2.89-2.008 5.292-4.652 5.781-.543.1-.995.539-.995 1.091v5.83c0 .553.448 1 1 1h5.531c.552 0 .991.451 1.081.996.455 2.768 2.774 4.876 5.565 4.876 2.792 0 5.11-2.108 5.566-4.876.09-.545.528-.996 1.08-.996h5.531c.552 0 1-.447 1-1v-5.83c0-.552.452-.99.995-1.09 2.644-.49 4.651-2.892 4.651-5.781 0-2.89-2.003-5.293-4.65-5.78z"/>
    <path fill="#FF570B" d="M66.882 89.353c.201-.52.72-.886 1.267-.78l5.37 1.05c.547.106 1.076-.255 1.176-.803l.952-5.217c.098-.54.613-.889 1.161-.89 2.611-.005 4.902-1.801 5.38-4.405.478-2.613-1.037-5.161-3.48-6.147-.498-.2-.842-.703-.746-1.232l.961-5.267c.098-.538-.255-1.056-.792-1.16l-5.394-1.054c-.547-.107-1.067.26-1.268.779-.933 2.407-3.524 3.858-6.227 3.334-2.711-.531-4.613-2.877-4.622-5.484-.002-.547-.345-1.066-.881-1.17l-5.395-1.054c-.547-.107-1.076.254-1.176.802l-.945 5.188c-.1.548-.631.9-1.188.89-2.658-.05-5.012 1.769-5.496 4.413-.485 2.655 1.08 5.244 3.587 6.196.512.194.87.703.771 1.241l-.954 5.238c-.098.539.255 1.056.792 1.16l5.418 1.059c.537.105.88.625.882 1.172.006 2.605 1.913 4.952 4.623 5.483 2.698.522 5.29-.934 6.224-3.342z"/>
    <path fill="#fff" d="M54.06 38.33c-.545-.095-.996-.534-.996-1.086v-5.83c0-.553-.448-1-1-1h-5.796c-.543 0-.977-.438-1.08-.971-.515-2.707-2.878-4.756-5.713-4.756s-5.197 2.049-5.713 4.756c-.102.533-.537.97-1.08.97h-5.795c-.553 0-1 .448-1 1v5.83c0 .553.451.992.995 1.086 2.741.477 4.827 2.886 4.827 5.786 0 2.9-2.085 5.31-4.827 5.785-.544.095-.995.534-.995 1.086v5.83c0 .553.447 1 1 1h5.766c.552 0 .99.451 1.083.996.47 2.768 2.86 4.876 5.74 4.876 2.878 0 5.27-2.108 5.739-4.876.092-.544.53-.996 1.083-.996h5.766c.552 0 1-.447 1-1v-5.83c0-.552.451-.991.995-1.085 2.742-.477 4.828-2.886 4.828-5.786 0-2.9-2.086-5.31-4.828-5.786z"/>
    <path stroke="#000" stroke-linecap="round" stroke-width="3" d="M85.144 53.688l5-3M85.55 62.161l4.191 4.053M87.145 57.994l7.423.394"/>
</svg>
