<?xml version="1.0" encoding="UTF-8"?>
<!--
 Licensed to the Apache Software Foundation (ASF) under one
 or more contributor license agreements.  See the NOTICE file
 distributed with this work for additional information
 regarding copyright ownership.  The ASF licenses this file
 to you under the Apache License, Version 2.0 (the
 "License"); you may not use this file except in compliance
 with the License.  You may obtain a copy of the License at

   http://www.apache.org/licenses/LICENSE-2.0

 Unless required by applicable law or agreed to in writing,
 software distributed under the License is distributed on an
 "AS IS" BASIS, WITHOUT WARRANTIES OR CONDITIONS OF ANY
 KIND, either express or implied.  See the License for the
 specific language governing permissions and limitations
 under the License.
-->
<svg xmlns="http://www.w3.org/2000/svg" width="112" height="112" fill="none" viewBox="0 0 112 112">
    <path fill="#FFE5D9" d="M56 112c30.928 0 56-25.072 56-56S86.928 0 56 0 0 25.072 0 56s25.072 56 56 56z"/>
    <path fill="#FF570B" d="M76.344 52.516s-7.312-19.178-20.61-31.439c-.089-.12-.221-.2-.369-.223-.147-.022-.297.016-.417.105-.12.09-.2.223-.221.37-.022.15.015.3.104.42 2.925 5.381 9.93 17.97 16.8 28.74"/>
    <path fill="#FF570B" d="M52.953 85.709S32.288 83.09 33.913 63.53c.966-11.442 2.709-12.97 1.22-19.45-.06-.269-.057-.548.007-.816.064-.268.187-.518.361-.73.174-.213.394-.383.643-.498.248-.115.52-.17.794-.164 8.802.2 39.289 1.917 43.839 15.633 4.667 14.042 1.083 29.22-17.252 28.857.009 0-7.9-.091-10.572-.654z"/>
    <path fill="#1D1D1B" d="M73.637 79.565c-.584-.005-1.164-.106-1.715-.3-.713-.237-3.485-1.654-3.467-3 .005-.357.15-.698.404-.949.253-.25.595-.39.95-.387.203.002.403.05.584.142.182.091.34.223.464.385.772.793 1.8 1.283 2.897 1.382.417-.05.817-.196 1.168-.428.35-.232.644-.543.855-.908.105-.145.238-.267.39-.36.153-.092.322-.154.498-.18.176-.028.355-.02.528.023.173.043.336.12.48.226.143.106.264.24.356.393.093.154.154.324.18.501.028.177.02.358-.023.532-.043.174-.119.338-.225.483-.468.73-1.107 1.336-1.86 1.762-.754.426-1.6.66-2.464.683z"/>
    <path fill="#fff" d="M78.639 67.749c.108 4.399.442 8.453 2.14 8.516.848-.645 2.915-3.508 3.114-8.398 0-5.453-1.472-8.907-3.476-10.343-2.121 1.554-1.634 6.808-1.778 10.225z"/>
    <path fill="#1D1D1B" d="M82.737 66.213c0 3.826-1.201 6.934-2.709 6.934-1.507 0-2.329-2.899-2.329-6.725 0-3.827.849-7.144 2.33-7.144 1.48 0 2.708 3.1 2.708 6.935z"/>
    <path fill="#fff" d="M80.375 62.936c.547-.428.532-1.37-.035-2.103-.566-.733-1.469-.98-2.016-.551-.547.428-.53 1.37.035 2.103.567.733 1.47.98 2.016.551zM65.185 75.522c3.747-2.966 3.758-9.245.026-14.023-3.732-4.778-9.795-6.247-13.542-3.281-3.747 2.966-3.759 9.245-.026 14.023 3.732 4.778 9.795 6.247 13.542 3.281z"/>
    <path fill="#1D1D1B" d="M63.34 71.87c2.508-2.488 2.172-6.924-.75-9.91-2.923-2.985-7.324-3.389-9.832-.901-2.507 2.487-2.17 6.924.752 9.91 2.922 2.985 7.324 3.388 9.83.9z"/>
    <path fill="#fff" d="M53.38 64.356c.719-.434.889-1.477.381-2.33-.508-.852-1.502-1.19-2.22-.757-.718.434-.889 1.477-.38 2.33.507.851 1.501 1.19 2.22.757z"/>
    <path fill="#FF570B" d="M59.38 51.907S52.8 33.11 32.885 19.096c-.106-.071-.233-.104-.36-.094-.127.01-.247.063-.34.15-.094.087-.156.203-.177.33-.02.126.003.256.064.368 3.693 6.244 16.666 24.431 20.8 29.721"/>
</svg>
