<?xml version="1.0" encoding="UTF-8"?>
<!--
 Licensed to the Apache Software Foundation (ASF) under one
 or more contributor license agreements.  See the NOTICE file
 distributed with this work for additional information
 regarding copyright ownership.  The ASF licenses this file
 to you under the Apache License, Version 2.0 (the
 "License"); you may not use this file except in compliance
 with the License.  You may obtain a copy of the License at

   http://www.apache.org/licenses/LICENSE-2.0

 Unless required by applicable law or agreed to in writing,
 software distributed under the License is distributed on an
 "AS IS" BASIS, WITHOUT WARRANTIES OR CONDITIONS OF ANY
 KIND, either express or implied.  See the License for the
 specific language governing permissions and limitations
 under the License.
-->
<svg xmlns="http://www.w3.org/2000/svg" width="154" height="154" fill="none" viewBox="0 0 154 154">
    <path fill="#FFE5D9" d="M77.324 153.223c42.25 0 76.5-34.251 76.5-76.5 0-42.25-34.25-76.5-76.5-76.5s-76.5 34.25-76.5 76.5c0 42.249 34.25 76.5 76.5 76.5z"/>
    <path fill="#FBC23E" d="M97.176 103.781c3.313 0 6-2.686 6-6s-2.687-6-6-6c-3.314 0-6 2.686-6 6s2.686 6 6 6zM70.328 46.258c1.657 0 3-1.343 3-3s-1.343-3-3-3-3 1.343-3 3 1.343 3 3 3z"/>
    <circle cx="77.328" cy="76.724" r="26.066" fill="#fff"/>
    <path fill="#FF570B" fill-rule="evenodd" d="M83.19 90.192c.252.467.828.66 1.293.403 4.584-2.528 7.689-7.407 7.689-13.011 0-8.2-6.648-14.848-14.848-14.848-8.2 0-14.847 6.648-14.847 14.848 0 5.605 3.106 10.485 7.691 13.012.465.257 1.04.065 1.293-.403l3.572-6.627c.292-.54.023-1.211-.497-1.538-1.477-.928-2.458-2.572-2.458-4.445 0-2.896 2.348-5.245 5.245-5.245 2.897 0 5.245 2.349 5.245 5.246 0 1.87-.98 3.513-2.454 4.441-.52.328-.788.998-.497 1.539l3.573 6.628z" clip-rule="evenodd"/>
    <path fill="#FF570B" d="M52.83 48.818c.332-.844 1.527-.844 1.86 0l.977 2.477c.101.257.305.461.563.563l2.477.977c.844.333.844 1.528 0 1.86l-2.477.977c-.258.102-.462.306-.563.564l-.977 2.477c-.333.844-1.528.844-1.86 0l-.978-2.477c-.101-.258-.305-.462-.563-.564l-2.477-.976c-.844-.333-.844-1.528 0-1.861l2.477-.977c.258-.102.462-.306.563-.563l.977-2.477z"/>
    <path fill="#1D1D1B" fill-rule="evenodd" d="M102.204 57.412c-.821 0-1.525.585-1.676 1.391-.01.053-.049.095-.1.111-.262.085-.517.188-.761.308-.017.009-.038.007-.054-.005-.679-.506-1.626-.437-2.225.162-.58.58-.665 1.491-.201 2.169.017.026.019.06.005.087-.138.262-.255.536-.35.82-.01.03-.036.05-.066.055-.838.122-1.46.84-1.46 1.688 0 .82.585 1.525 1.391 1.676.063.012.113.057.134.117.08.242.178.477.29.704.015.03.011.066-.009.093-.506.679-.437 1.626.162 2.225.58.58 1.491.665 2.169.202.05-.035.115-.038.17-.01.215.108.439.203.67.284.039.013.068.047.074.088.122.838.84 1.46 1.687 1.46.821 0 1.525-.585 1.676-1.391.01-.053.049-.096.1-.112.236-.076.466-.167.687-.272.057-.027.124-.021.174.016.679.506 1.627.438 2.226-.161.58-.58.665-1.492.201-2.17-.043-.062-.047-.143-.013-.21.1-.198.189-.403.265-.613.018-.049.061-.084.112-.092.838-.122 1.46-.84 1.46-1.688 0-.82-.585-1.524-1.392-1.676-.044-.008-.08-.04-.093-.084-.078-.255-.175-.503-.288-.74-.02-.045-.016-.097.013-.136.507-.68.438-1.627-.161-2.225-.58-.58-1.492-.665-2.169-.202-.039.027-.09.03-.132.007-.242-.127-.494-.237-.755-.328-.039-.014-.068-.048-.074-.089-.122-.838-.84-1.459-1.687-1.459zm.016 9.937c1.677 0 3.036-1.36 3.036-3.036 0-1.677-1.359-3.037-3.036-3.037s-3.036 1.36-3.036 3.037c0 1.677 1.359 3.036 3.036 3.036z" clip-rule="evenodd"/>
    <path fill="#FBC23E" fill-rule="evenodd" d="M45.683 79.09c-.962 0-1.788.685-1.966 1.631l-.039.21c-.096.513-.475.922-.96 1.114-.489.195-1.047.151-1.47-.164l-.112-.084c-.796-.593-1.907-.513-2.61.19l-1.306 1.307c-.68.68-.78 1.749-.236 2.543l.058.086c.31.452.334 1.033.118 1.536-.22.513-.671.907-1.223.988l-.12.017c-.983.144-1.712.986-1.712 1.98v1.848c0 .962.686 1.788 1.632 1.965l.263.05c.497.093.896.459 1.086.927.196.482.155 1.033-.156 1.45l-.114.153c-.594.796-.513 1.907.189 2.61l1.307 1.306c.68.681 1.749.78 2.543.237l.232-.159c.407-.278.93-.303 1.384-.109.461.198.813.606.886 1.103l.035.244c.143.983.986 1.712 1.98 1.712h1.847c.963 0 1.789-.686 1.966-1.632l.042-.222c.094-.506.47-.911.948-1.101.483-.192 1.034-.148 1.451.163l.226.168c.797.594 1.908.513 2.61-.189l1.307-1.307c.68-.68.78-1.75.236-2.543l-.193-.282c-.274-.401-.297-.916-.103-1.361.195-.447.592-.786 1.074-.856l.302-.044c.983-.143 1.712-.986 1.712-1.98v-1.847c0-.963-.686-1.789-1.632-1.966l-.176-.033c-.519-.097-.933-.484-1.124-.976-.191-.49-.145-1.047.169-1.469l.139-.186c.593-.796.512-1.907-.19-2.61l-1.306-1.306c-.681-.68-1.75-.78-2.544-.236l-.142.097c-.443.303-1.013.325-1.504.11-.494-.215-.872-.652-.95-1.185l-.027-.187c-.143-.983-.986-1.711-1.979-1.711h-1.848zm.933 18.007c3.039 0 5.502-2.463 5.502-5.502 0-3.039-2.463-5.502-5.502-5.502-3.039 0-5.502 2.463-5.502 5.502 0 3.039 2.463 5.502 5.502 5.502z" clip-rule="evenodd"/>
</svg>
