<?xml version="1.0" encoding="UTF-8"?>
<!--
 Licensed to the Apache Software Foundation (ASF) under one
 or more contributor license agreements.  See the NOTICE file
 distributed with this work for additional information
 regarding copyright ownership.  The ASF licenses this file
 to you under the Apache License, Version 2.0 (the
 "License"); you may not use this file except in compliance
 with the License.  You may obtain a copy of the License at

   http://www.apache.org/licenses/LICENSE-2.0

 Unless required by applicable law or agreed to in writing,
 software distributed under the License is distributed on an
 "AS IS" BASIS, WITHOUT WARRANTIES OR CONDITIONS OF ANY
 KIND, either express or implied.  See the License for the
 specific language governing permissions and limitations
 under the License.
-->
<svg xmlns="http://www.w3.org/2000/svg" width="112" height="112" fill="none" viewBox="0 0 112 112">
    <path fill="#FFE5D9" d="M56 112c30.928 0 56-25.072 56-56S86.928 0 56 0 0 25.072 0 56s25.072 56 56 56z"/>
    <path stroke="#1D1D1B" stroke-linecap="round" stroke-miterlimit="10" stroke-width="3" d="M40 27v5.719C40 36.188 43.475 39 47.762 39h17.475C69.526 39 73 36.188 73 32.719V27M57 22v44M73 87v-5.719C73 77.812 69.525 75 65.238 75H47.763C43.474 75 40 77.812 40 81.281V87M57 90V48"/>
    <path fill="#FBC23E" d="M61 20h-8c-1.105 0-2 .895-2 2v8c0 1.105.895 2 2 2h8c1.105 0 2-.895 2-2v-8c0-1.105-.895-2-2-2zM40 33c3.314 0 6-2.686 6-6s-2.686-6-6-6-6 2.686-6 6 2.686 6 6 6z"/>
    <path fill="#FF570B" d="M68 92h10c1.105 0 2-.895 2-2v-5c0-1.105-.895-2-2-2H68c-1.105 0-2 .895-2 2v5c0 1.105.895 2 2 2zM35 92h10c1.105 0 2-.895 2-2v-5c0-1.105-.895-2-2-2H35c-1.105 0-2 .895-2 2v5c0 1.105.895 2 2 2zM52 92h10c1.105 0 2-.895 2-2v-5c0-1.105-.895-2-2-2H52c-1.105 0-2 .895-2 2v5c0 1.105.895 2 2 2z"/>
    <path fill="#fff" d="M57 70c7.18 0 13-5.82 13-13s-5.82-13-13-13-13 5.82-13 13 5.82 13 13 13z"/>
    <path fill="#FBC23E" d="M71.792 21.802c.78-1.279 2.636-1.279 3.416 0l4.666 7.657c.812 1.333-.147 3.041-1.708 3.041h-9.332c-1.561 0-2.52-1.708-1.708-3.04l4.666-7.658z"/>
</svg>
