<svg xmlns="http://www.w3.org/2000/svg" width="43" height="31" fill="none" viewBox="0 0 43 31">
    <path fill="red" d="M42.1 4.84c-.493-1.905-1.951-3.405-3.8-3.915C34.946 0 21.5 0 21.5 0S8.053 0 4.7.925c-1.849.51-3.307 2.01-3.8 3.915C0 8.295 0 15.5 0 15.5s0 7.205.9 10.66c.493 1.905 1.951 3.405 3.8 3.915C8.054 31 21.5 31 21.5 31s13.447 0 16.8-.925c1.849-.51 3.307-2.01 3.8-3.915.9-3.455.9-10.66.9-10.66s0-7.205-.9-10.66z"/>
    <path fill="#fff" d="M17.102 22.043L28.34 15.5 17.102 8.958v13.085z"/>
</svg>
