<?xml version="1.0" encoding="UTF-8" standalone="no"?>
<!--
 Licensed to the Apache Software Foundation (ASF) under one
 or more contributor license agreements.  See the NOTICE file
 distributed with this work for additional information
 regarding copyright ownership.  The ASF licenses this file
 to you under the Apache License, Version 2.0 (the
 "License"); you may not use this file except in compliance
 with the License.  You may obtain a copy of the License at

   http://www.apache.org/licenses/LICENSE-2.0

 Unless required by applicable law or agreed to in writing,
 software distributed under the License is distributed on an
 "AS IS" BASIS, WITHOUT WARRANTIES OR CONDITIONS OF ANY
 KIND, either express or implied.  See the License for the
 specific language governing permissions and limitations
 under the License.
-->
<svg
   xmlns:dc="http://purl.org/dc/elements/1.1/"
   xmlns:cc="http://creativecommons.org/ns#"
   xmlns:rdf="http://www.w3.org/1999/02/22-rdf-syntax-ns#"
   xmlns:svg="http://www.w3.org/2000/svg"
   xmlns="http://www.w3.org/2000/svg"
   xmlns:sodipodi="http://sodipodi.sourceforge.net/DTD/sodipodi-0.dtd"
   xmlns:inkscape="http://www.inkscape.org/namespaces/inkscape"
   version="1.1"
   id="Livello_1"
   x="0px"
   y="0px"
   width="440.00003"
   height="506.47379"
   viewBox="0 0 440.00003 506.47376"
   enable-background="new 0 0 419.53 595.28"
   xml:space="preserve"
   sodipodi:docname="hop-logo.svg"
   inkscape:version="1.0.1 (3bc2e813f5, 2020-09-07)"><metadata
   id="metadata9"><rdf:RDF><cc:Work
       rdf:about=""><dc:format>image/svg+xml</dc:format><dc:type
         rdf:resource="http://purl.org/dc/dcmitype/StillImage" /><dc:title></dc:title></cc:Work></rdf:RDF></metadata><defs
   id="defs7" /><sodipodi:namedview
   pagecolor="#ffffff"
   bordercolor="#666666"
   borderopacity="1"
   objecttolerance="10"
   gridtolerance="10"
   guidetolerance="10"
   inkscape:pageopacity="0"
   inkscape:pageshadow="2"
   inkscape:window-width="1821"
   inkscape:window-height="1708"
   id="namedview5"
   showgrid="false"
   inkscape:zoom="1.6664426"
   inkscape:cx="209.765"
   inkscape:cy="297.64001"
   inkscape:window-x="8259"
   inkscape:window-y="49"
   inkscape:window-maximized="0"
   inkscape:current-layer="Livello_1"
   fit-margin-top="0"
   fit-margin-left="0"
   fit-margin-right="0"
   fit-margin-bottom="0" />
<path
   fill="#0e3a5a"
   d="m 183.36503,200.61519 c -11.86432,12.89396 -19.46245,31.04416 -22.7926,54.44518 l -16.1611,113.54358 c -3.33015,23.40462 -0.89644,41.54942 7.29751,54.44338 3.13574,4.77921 8.20476,9.43602 15.20347,13.97042 6.99331,4.53799 16.81814,6.80429 29.47809,6.80429 12.89397,0 23.42443,-2.2663 31.59319,-6.80429 8.16696,-4.5344 14.49963,-9.19121 19.00163,-13.97042 11.86612,-12.89396 19.46245,-31.03876 22.7908,-54.44338 l 16.16111,-113.54358 c 3.33015,-23.40102 0.90004,-41.55122 -7.29572,-54.44518 -3.14294,-4.77381 -8.14896,-9.43061 -15.02526,-13.96861 -6.8763,-4.5344 -16.76234,-6.8061 -29.6563,-6.8061 -6.44788,0 -12.27294,0.66063 -17.47516,1.97109 -5.20044,1.31406 -9.91664,2.98813 -14.14503,5.01501 -4.22838,2.0305 -7.88974,4.24279 -10.97148,6.62609 -3.08893,2.38871 -5.75665,4.77742 -8.00315,7.16252 z m 17.30957,30.62474 c 2.82612,-5.60904 5.97265,-9.67182 9.43601,-12.17934 3.45614,-2.5075 6.83669,-3.99617 10.12904,-4.47679 3.29054,-0.47522 6.24627,-0.71643 8.87799,-0.71643 2.3833,0 5.21302,0.24121 8.49457,0.71643 3.27074,0.48062 6.28228,1.96929 9.03279,4.47679 2.74513,2.50752 4.73602,6.5703 5.96907,12.17934 1.22765,5.61265 1.11425,13.55459 -0.34562,23.81864 l -16.1611,113.54358 c -1.49407,10.51066 -3.65957,18.56961 -6.48569,24.17685 -2.82973,5.61265 -5.97627,9.67183 -9.43422,12.17935 -3.46334,2.5075 -6.8997,4.00157 -10.30724,4.47678 -3.41475,0.48243 -6.31648,0.71644 -8.69979,0.71644 -2.62991,0 -5.51724,-0.23401 -8.67097,-0.71644 -3.15735,-0.47521 -6.11307,-1.96928 -8.85639,-4.47678 -2.74873,-2.50752 -4.73961,-6.56489 -5.96727,-12.17935 -1.23485,-5.60724 -1.09985,-13.66619 0.39602,-24.17685 l 16.16111,-113.54358 c 1.45807,-10.26405 3.60196,-18.20599 6.43169,-23.81864 z m 237.94702,-31.47978 c -3.43276,24.12106 -11.4089,42.39006 -23.91945,54.8016 -13.36559,13.37639 -31.39158,20.06008 -54.07617,20.06008 l 4.84401,-34.02689 c 9.31181,0 15.7903,-1.07464 19.44266,-3.22394 3.64875,-2.1511 6.03386,-3.81797 7.16071,-5.01682 6.03206,-5.49024 10.20824,-16.35012 12.51955,-32.59403 1.22405,-8.59898 1.49226,-15.51848 0.80463,-20.77471 -0.68223,-5.25083 -2.1997,-9.31361 -4.5344,-12.17933 -2.3401,-2.86393 -5.52984,-4.77381 -9.56922,-5.72965 -4.04657,-0.95404 -8.81318,-1.43466 -14.30342,-1.43466 h -21.13113 l -11.5187,80.95134 -4.84401,34.02689 -16.36452,114.97644 h -0.009 c -7.86454,64.45723 -66.80452,116.87732 -131.44356,116.87732 -32.036,0 -60.79946,-12.54655 -80.99274,-35.33015 C 91.271226,449.23668 82.153826,420.55063 84.724339,389.95648 H 84.53533 l 0.621027,-4.48039 c 0.0018,-0.0108 0.0018,-0.0216 0.0036,-0.0342 h 0.0018 l 8.022946,-57.86894 H 42.323455 l -8.64938,62.38354 H 0 L 37.569446,125.97132 H 71.239921 L 47.160266,293.54606 H 98.021494 L 131.42376,61.420491 103.83935,59.3306 153.32712,0 193.31047,66.109697 165.09783,63.971202 118.5604,389.95829 h -0.0666 c -2.59211,22.41638 3.55696,43.31349 17.35817,58.88597 13.72019,15.48249 33.54806,24.00765 55.82764,24.00765 48.24571,0 92.24324,-39.21111 98.07729,-87.40823 l 0.28982,0.036 36.98442,-259.86299 h 54.8016 c 22.44339,0 38.58289,6.57029 48.41492,19.70007 8.94279,12.65815 11.73832,30.80295 8.37397,54.44338 z"
   id="path2"
   style="stroke-width:1.80008" />
</svg>
