<?xml version="1.0" encoding="utf-8"?>
<!--
Licensed under the Apache License, Version 2.0 (the "License");
you may not use this file except in compliance with the License.
You may obtain a copy of the License at

http://www.apache.org/licenses/LICENSE-2.0

Unless required by applicable law or agreed to in writing, software
distributed under the License is distributed on an "AS IS" BASIS,
WITHOUT WARRANTIES OR CONDITIONS OF ANY KIND, either express or implied.
See the License for the specific language governing permissions and
limitations under the License.
-->
<!-- Generator: Adobe Illustrator 24.1.0, SVG Export Plug-In . SVG Version: 6.00 Build 0)  -->
<svg version="1.1" id="Layer_1" xmlns="http://www.w3.org/2000/svg" xmlns:xlink="http://www.w3.org/1999/xlink" x="0px" y="0px"
	 viewBox="0 0 100 100" style="enable-background:new 0 0 100 100;" xml:space="preserve">
<style type="text/css">
	.st0{fill:#FF6D70;}
	.st1{fill:#F8F3EF;}
</style>
<g id="Artwork_3_1_">
	<g>
		<path class="st0" d="M48.98326,20.06858c-19.03618,0-34.46796,15.43178-34.46796,34.46796s15.43178,34.46797,34.46796,34.46797
			s34.46796-15.43179,34.46796-34.46797S68.01945,20.06858,48.98326,20.06858"/>
		<path class="st1" d="M67.32928,59.22544c-0.57591-0.41204-0.99451-0.95424-1.25671-1.62755
			c-0.26221-0.67424-0.39237-1.42528-0.39237-2.25497c0-0.79973,0.16481-1.54234,0.49632-2.22782
			c0.33057-0.68548,0.82782-1.23612,1.48896-1.65377c0.66207-0.41766,1.46835-0.62649,2.41885-0.62649
			c0.48882,0,0.90367,0.03933,1.24267,0.11706c0.33993,0.07772,0.69391,0.2285,1.06287,0.45324l-0.07773-3.29069
			c0-0.37926-0.14796-0.64428-0.44482-0.79411c-0.29685-0.14983-0.72668-0.24442-1.29137-0.28468
			c-0.06929-0.02903-0.1208-0.0693-0.15545-0.12174c-0.03371-0.05151-0.0515-0.12548-0.0515-0.22381
			c0-0.08053,0.01966-0.16294,0.05993-0.24628c0.04027-0.08335,0.0899-0.1283,0.14702-0.13391
			c0.89806-0.05806,2.05552-0.08616,3.47237-0.08616h0.71638c0.06274,0,0.12267,0.02716,0.17699,0.08147
			c0.05431,0.05525,0.08241,0.14328,0.08241,0.26408v11.5118c0,0.23037,0.04682,0.40454,0.14234,0.52254
			c0.09459,0.11799,0.20695,0.19385,0.33712,0.22849c0.12923,0.03465,0.29124,0.06368,0.48696,0.08615
			c0.12736,0.01124,0.2107,0.03652,0.25097,0.07398c0.04026,0.03746,0.06087,0.11893,0.06087,0.24535
			c0,0.07586-0.02809,0.15265-0.08241,0.23412c-0.05524,0.0796-0.12548,0.11986-0.21163,0.11986h-2.97042
			c-0.21913,0-0.37646-0.03278-0.47104-0.09926c-0.09458-0.06555-0.15077-0.15639-0.16856-0.27157
			c-0.01686-0.11518-0.02248-0.30247-0.01686-0.56187c-0.27719,0.3802-0.68267,0.67331-1.21832,0.87651
			c-0.53471,0.20509-1.07317,0.30716-1.61444,0.30716C68.645,59.84257,67.9052,59.63655,67.32928,59.22544 M71.65569,58.37889
			c0.29311-0.1414,0.51224-0.33805,0.65645-0.59184v-5.11209c-0.04588-0.13859-0.14702-0.28093-0.30247-0.42796
			c-0.15545-0.14702-0.33244-0.26783-0.53097-0.36241c-0.19852-0.09552-0.38394-0.14234-0.55718-0.14234
			c-0.84093,0-1.43933,0.31184-1.79612,0.93645c-0.35678,0.62555-0.53471,1.51331-0.53471,2.6642
			c0,2.16508,0.73044,3.24761,2.19317,3.24761C71.07133,58.59053,71.36257,58.51936,71.65569,58.37889"/>
		<path class="st1" d="M45.53814,58.6588c-0.81096-0.78756-1.21738-1.92254-1.21738-3.40213
			c0-0.92709,0.21725-1.72401,0.65176-2.3917c0.43452-0.66769,1.01793-1.17337,1.74929-1.51611
			c0.73043-0.3418,1.53391-0.51411,2.40949-0.51411c1.27732,0,2.22969,0.25003,2.85805,0.74729
			c0.62743,0.49819,1.02167,1.22768,1.18368,2.18942c0.0515,0.31091,0.07679,0.78569,0.07679,1.42528l-5.99329,0.00843
			c0,0.83438,0.1311,1.51143,0.39331,2.02929c0.26127,0.51786,0.59464,0.88963,0.99732,1.11438s0.82876,0.33619,1.27826,0.33619
			c0.53003,0,0.97485-0.06836,1.33444-0.20695c0.3596-0.13766,0.67424-0.36615,0.94488-0.68174
			c0.00655-0.00562,0.02248-0.02529,0.04776-0.05619c0.02622-0.03184,0.05338-0.05338,0.08241-0.06461
			c0.0281-0.01218,0.05994-0.01499,0.09552-0.00937l0.37926,0.18167c0.05806,0.02341,0.08616,0.05713,0.08616,0.10395
			c0,0.03371-0.01686,0.08335-0.05151,0.14608c-0.3109,0.54128-0.76602,0.96736-1.36441,1.27826
			c-0.59933,0.3109-1.33538,0.46635-2.21096,0.46635C47.59365,59.84247,46.35005,59.44823,45.53814,58.6588 M50.07244,52.23849
			c-0.20134-0.44669-0.52441-0.66956-0.96735-0.66956c-0.46635,0-0.86809,0.23224-1.20522,0.69579
			c-0.33619,0.4626-0.54221,1.17618-0.61712,2.13698h3.09216C50.37492,53.40624,50.27378,52.68518,50.07244,52.23849"/>
		<path class="st1" d="M53.98841,59.47538c-0.05244-0.07772-0.07773-0.15639-0.07773-0.23692
			c0-0.09833,0.01966-0.17324,0.05993-0.22475c0.04027-0.05244,0.11518-0.08428,0.22475-0.09552
			c0.61057-0.07398,0.91491-0.2594,0.91491-0.55251V52.8734c0-0.26501-0.04869-0.46635-0.14608-0.60495
			c-0.09833-0.13766-0.21257-0.22943-0.34087-0.27625c-0.12923-0.04588-0.29873-0.08334-0.50568-0.11238
			c-0.16762-0.02247-0.26501-0.04026-0.29311-0.0515c-0.07023-0.02903-0.12173-0.0693-0.15545-0.1208
			c-0.03465-0.05244-0.05244-0.12642-0.05244-0.22475c0-0.08054,0.01873-0.16201,0.05619-0.24629
			c0.03746-0.08334,0.08803-0.12829,0.1517-0.13391c1.34662-0.0796,2.56401-0.1208,3.6531-0.1208
			c0.05712,0,0.11143,0.02622,0.16388,0.07773c0.05151,0.05244,0.08335,0.1414,0.09459,0.26782v0.96736
			c0.13297-0.15545,0.3802-0.35023,0.7426-0.58341c0.36335-0.23317,0.78475-0.43732,1.26515-0.61244
			c0.48133-0.17605,0.95518-0.26408,1.4206-0.26408c0.85217,0,1.52922,0.18354,2.03022,0.54876
			c0.50006,0.36615,0.75104,1.0404,0.75104,2.0246v4.67289c0,0.32214,0.08054,0.53284,0.2416,0.63023
			c0.16107,0.09833,0.32964,0.15545,0.50568,0.17231c0.17512,0.01779,0.29124,0.02903,0.3493,0.03465
			c0.10395,0.01124,0.17699,0.03933,0.221,0.08241c0.04214,0.04308,0.06368,0.12268,0.06368,0.23786
			c0,0.08053-0.02528,0.15919-0.07773,0.23692c-0.05151,0.07773-0.12361,0.11706-0.21538,0.11706h-4.63731
			c-0.09271,0-0.16481-0.03933-0.21632-0.11706c-0.05151-0.07772-0.07772-0.15639-0.07772-0.23692
			c0-0.10395,0.01685-0.1798,0.05151-0.22943c0.03465-0.04869,0.10675-0.0796,0.21632-0.09084
			c0.21258-0.02248,0.40455-0.08334,0.57404-0.18167c0.1695-0.09739,0.25471-0.221,0.25471-0.37083v-4.91356
			c0-0.22475-0.01685-0.42608-0.0515-0.60495c-0.03465-0.17886-0.12829-0.339-0.28094-0.48321
			c-0.15264-0.14421-0.38395-0.21632-0.69485-0.21632c-0.29404,0-0.59465,0.05618-0.90274,0.16856
			c-0.30809,0.11237-0.58997,0.2519-0.84655,0.41859c-0.25565,0.16763-0.45605,0.3315-0.60027,0.49257v4.85363
			c0,0.23037,0.04214,0.40455,0.12548,0.52254c0.08334,0.118,0.18542,0.19572,0.30716,0.23318
			c0.1208,0.03746,0.27625,0.06461,0.46541,0.08147c0.12642,0.01124,0.2107,0.03652,0.25097,0.07398
			c0.04026,0.03746,0.05993,0.11893,0.05993,0.24629c0,0.07492-0.02716,0.1517-0.08147,0.23317
			c-0.05525,0.08054-0.12548,0.1208-0.21164,0.1208h-4.5343C54.11202,59.59244,54.03991,59.55311,53.98841,59.47538"/>
		<path class="st1" d="M43.95695,58.99255c-0.04026-0.03839-0.12361-0.06274-0.25097-0.07398
			c-0.21257-0.02341-0.38863-0.05057-0.52629-0.08241c-0.1386-0.0309-0.26033-0.1002-0.36709-0.20695
			c-0.10675-0.10582-0.16013-0.26033-0.16013-0.46167V46.56865c0-0.1208-0.02716-0.20789-0.08147-0.26314
			c-0.05525-0.05432-0.11425-0.08241-0.17699-0.08241c-1.31852,0-2.59959,0.0412-3.8432,0.12174
			c-0.05806,0.00562-0.10675,0.04963-0.14702,0.13391c-0.04027,0.08335-0.05993,0.16481-0.05993,0.24535
			c0,0.09832,0.01685,0.17324,0.05151,0.22475c0.03465,0.0515,0.08615,0.09271,0.15545,0.1208
			c0.02341,0.00562,0.13204,0.02341,0.32776,0.05244c0.23598,0.02809,0.42889,0.06649,0.57872,0.11143
			c0.14983,0.04682,0.27906,0.1386,0.38863,0.27719c0.10957,0.13766,0.16388,0.3418,0.16388,0.61338l-0.00843,10.32812
			c0,0.14421-0.86528,0.49726-1.49083,0.49726s-1.44307-0.34836-1.50675-0.50194c-0.06274-0.15265-0.09458-0.34087-0.09458-0.56562
			v-4.64574c0-0.47197-0.13298-0.88776-0.39706-1.24735c-0.26501-0.36053-0.67706-0.64241-1.23518-0.84749
			c-0.55906-0.20415-1.26327-0.30622-2.11638-0.30622c-0.59839,0-1.21552,0.07398-1.8523,0.22007
			c-0.63585,0.14703-1.17431,0.37458-1.61444,0.68267s-0.66113,0.69204-0.66113,1.15277c0,0.35679,0.1311,0.64896,0.39331,0.87652
			c0.17605,0.15358,0.38956,0.25003,0.63304,0.3006c0.25565,0.03652,0.52441-0.02341,0.4907-0.36053
			c-0.00187-0.02341,0-0.03559,0-0.05244c-0.059-0.70234,0.2903-1.43933,1.1715-1.8214
			c0.03933-0.01686,0.07492-0.0281,0.11144-0.04214c0.1517-0.07491,0.48602-0.13578,0.95705-0.13578
			c0.42608,0,0.74635,0.09645,0.96267,0.28936s0.32401,0.54595,0.32401,1.05819v1.42435
			c-0.98515,0.10394-1.86728,0.25284-2.64735,0.44481c-0.78006,0.19291-1.44213,0.50287-1.98621,0.92896
			c-0.54408,0.42608-0.81565,0.99264-0.81565,1.70059c0,0.5188,0.13391,0.9505,0.40174,1.29605
			c0.26783,0.34555,0.59933,0.59839,0.99732,0.7604c0.39705,0.16013,0.78849,0.2416,1.17431,0.2416
			c0.61619,0,1.18461-0.1002,1.70528-0.29873c0.5216-0.19759,0.96642-0.48977,1.33444-0.87652v0.02622
			c0,0.19572,0.03933,0.501,0.03933,0.501s0.03278,0.25003,0.32776,0.40361c0.29498,0.15451,2.12481,0.03652,2.45819,0.03652
			h6.65817c0.09177,0,0.16388-0.03839,0.21632-0.11612c0.05151-0.07772,0.07679-0.15639,0.07679-0.23786
			C44.01688,59.11148,43.99722,59.03001,43.95695,58.99255 M34.07645,57.89971c-0.35679,0.43733-0.82033,0.65646-1.39063,0.65646
			c-0.35679,0-0.63491-0.11237-0.83344-0.33712c-0.19853-0.22475-0.29779-0.49258-0.29779-0.80348
			c0-0.55812,0.12174-0.99545,0.36241-1.31197c0.24254-0.31652,0.54033-0.54127,0.89431-0.67424
			c0.35398-0.13204,0.77632-0.23599,1.26514-0.31091V57.89971z"/>
		<path class="st1" d="M28.03615,58.68071c-0.03465-0.1002-0.08335-0.19384-0.14702-0.28
			c-0.06368-0.08709-0.11237-0.12173-0.14609-0.10395c-0.21913,0.10957-0.45886,0.20134-0.71732,0.27626
			c-0.2594,0.07491-0.48415,0.11237-0.67331,0.11237c-0.21351,0-0.37645-0.04776-0.48789-0.14234
			c-0.11237-0.09552-0.19291-0.27063-0.24254-0.52722c-0.0487-0.25565-0.07304-0.62836-0.07304-1.11813v-4.966h1.85698
			c0.06368,0,0.12174-0.05994,0.17699-0.18074c0.05431-0.1208,0.08241-0.27064,0.08241-0.4495
			c0-0.07398-0.01966-0.14141-0.05712-0.19853c-0.03746-0.05713-0.08709-0.0899-0.15077-0.09458h-1.90849v-2.41043
			c0-0.1002-0.06649-0.17043-0.18448-0.21819c-0.21538-0.06836-0.3418,0.16669-0.3418,0.16669
			c-0.5806,1.34288-1.7212,2.37859-3.13149,2.82059c0,0-0.28843,0.06929-0.21445,0.3699
			c0.00937,0.02622,0.01686,0.05244,0.02903,0.07866c0.04027,0.08335,0.08896,0.1283,0.14702,0.13391h0.92334v5.71704
			c0,0.8119,0.24629,1.37846,0.73886,1.7006c0.49257,0.32307,1.15277,0.48414,1.98247,0.48414
			c0.25846,0,0.55906-0.04869,0.9018-0.14702c0.34274-0.09739,0.66488-0.22287,0.96735-0.37551
			c0.30247-0.15264,0.52535-0.30622,0.66956-0.46167C28.0708,58.84365,28.0708,58.78185,28.03615,58.68071"/>
	</g>
</g>
</svg>
