<?xml version="1.0" encoding="UTF-8"?>
<!--
 Licensed to the Apache Software Foundation (ASF) under one
 or more contributor license agreements.  See the NOTICE file
 distributed with this work for additional information
 regarding copyright ownership.  The ASF licenses this file
 to you under the Apache License, Version 2.0 (the
 "License"); you may not use this file except in compliance
 with the License.  You may obtain a copy of the License at

   http://www.apache.org/licenses/LICENSE-2.0

 Unless required by applicable law or agreed to in writing,
 software distributed under the License is distributed on an
 "AS IS" BASIS, WITHOUT WARRANTIES OR CONDITIONS OF ANY
 KIND, either express or implied.  See the License for the
 specific language governing permissions and limitations
 under the License.
-->

<svg width="96" height="96" viewBox="0 0 96 96" fill="none" xmlns="http://www.w3.org/2000/svg">
<rect width="96" height="96" rx="8" fill="#F8F8F8"/>
<g clip-path="url(#clip0_1889_8360)">
<path d="M8 16C8 11.5817 11.5817 8 16 8H80C84.4183 8 88 11.5817 88 16V80C88 84.4183 84.4183 88 80 88H16C11.5817 88 8 84.4183 8 80V16Z" fill="#F8F8F8"/>
<circle cx="34.8" cy="35.5594" r="13.2" stroke="#E74D1A" stroke-width="3.2"/>
<circle cx="34.8" cy="35.5594" r="6" stroke="#E74D1A" stroke-width="3.2"/>
<circle cx="52" cy="18.3594" r="4" stroke="#E74D1A" stroke-width="3.2"/>
<circle cx="66.4" cy="65.5594" r="4" stroke="#E74D1A" stroke-width="3.2"/>
<circle cx="20.8" cy="57.5594" r="4" stroke="#E74D1A" stroke-width="3.2"/>
<path d="M53.9496 32.6804C53.3392 30.9367 54.8454 29.186 56.6607 29.5293L77.777 33.5221C79.5924 33.8654 80.3554 36.0451 79.1504 37.4456L65.1344 53.7365C63.9294 55.137 61.6602 54.7079 61.0498 52.9641L53.9496 32.6804Z" stroke="#E74D1A" stroke-width="3.2"/>
<path d="M62.4657 38.1795C62.2622 37.5982 62.7643 37.0147 63.3694 37.1291L68.7568 38.1478C69.3619 38.2622 69.6162 38.9888 69.2146 39.4556L65.6387 43.6119C65.237 44.0787 64.4806 43.9357 64.2772 43.3544L62.4657 38.1795Z" stroke="#E74D1A" stroke-width="3.2"/>
<rect x="30.4" y="57.6177" width="22.6839" height="22.6839" rx="3.2" transform="rotate(-10.3062 30.4 57.6177)" stroke="#E74D1A" stroke-width="3.2"/>
<rect x="37.6" y="61.8631" width="10.6407" height="10.6407" rx="3.2" transform="rotate(-10.3062 37.6 61.8631)" stroke="#E74D1A" stroke-width="3.2"/>
</g>
<defs>
<clipPath id="clip0_1889_8360">
<path d="M8 16C8 11.5817 11.5817 8 16 8H80C84.4183 8 88 11.5817 88 16V80C88 84.4183 84.4183 88 80 88H16C11.5817 88 8 84.4183 8 80V16Z" fill="white"/>
</clipPath>
</defs>
</svg>
