<?xml version="1.0" encoding="UTF-8"?>
<!--
 Licensed to the Apache Software Foundation (ASF) under one
 or more contributor license agreements.  See the NOTICE file
 distributed with this work for additional information
 regarding copyright ownership.  The ASF licenses this file
 to you under the Apache License, Version 2.0 (the
 "License"); you may not use this file except in compliance
 with the License.  You may obtain a copy of the License at

   http://www.apache.org/licenses/LICENSE-2.0

 Unless required by applicable law or agreed to in writing,
 software distributed under the License is distributed on an
 "AS IS" BASIS, WITHOUT WARRANTIES OR CONDITIONS OF ANY
 KIND, either express or implied.  See the License for the
 specific language governing permissions and limitations
 under the License.
-->

<svg width="96" height="96" viewBox="0 0 96 96" fill="none" xmlns="http://www.w3.org/2000/svg">
<rect width="96" height="96" rx="8" fill="#F8F8F8"/>
<path d="M46.2784 35.125L44.2784 35.1251V35.1251L46.2784 35.125ZM53.0275 33.125C51.923 33.125 51.0275 34.0204 51.0275 35.125C51.0275 36.2296 51.923 37.125 53.0275 37.125V33.125ZM53.0275 57.875C51.923 57.875 51.0275 58.7704 51.0275 59.875C51.0275 60.9796 51.923 61.875 53.0275 61.875V57.875ZM50.7529 49.5C51.8575 49.5 52.7529 48.6046 52.7529 47.5C52.7529 46.3954 51.8575 45.5 50.7529 45.5V49.5ZM66.5713 45.5C65.4667 45.5 64.5713 46.3955 64.5713 47.5C64.5713 48.6046 65.4667 49.5 66.5713 49.5V45.5ZM57.5322 45.5C56.4277 45.5 55.5322 46.3955 55.5322 47.5C55.5322 48.6046 56.4277 49.5 57.5322 49.5V45.5ZM59.792 49.5C60.8966 49.5 61.792 48.6046 61.792 47.5C61.792 46.3955 60.8966 45.5 59.792 45.5V49.5ZM37.4756 35.9577C36.6929 35.1784 35.4266 35.1811 34.6472 35.9639C33.8678 36.7466 33.8706 38.0129 34.6533 38.7923L37.4756 35.9577ZM40.2208 53.6151C39.8701 52.5676 38.7367 52.0028 37.6893 52.3535C36.6419 52.7041 36.077 53.8375 36.4277 54.8849L40.2208 53.6151ZM27.4979 48.8525C27.0022 49.8396 27.4006 51.0416 28.3877 51.5373C29.3748 52.033 30.5768 51.6346 31.0725 50.6475L27.4979 48.8525ZM25.7446 36.8791L25.0224 38.7441H25.0224L25.7446 36.8791ZM18.3205 46.3476L16.6747 47.484L18.3205 46.3476ZM33.2866 27.6472L32.4297 29.4543L33.2866 27.6472ZM26.0913 36.0573L27.7228 34.9006L26.0913 36.0573ZM35.8946 25.4018L37.801 24.7972L35.8946 25.4018ZM44.7384 19.2993L45.9687 17.7224V17.7224L44.7384 19.2993ZM23.2183 58.3111L22.5295 56.4334L23.2183 58.3111ZM17.0297 50.3331L18.64 51.5191L18.64 51.5191L17.0297 50.3331ZM25.258 60.8271L23.5962 59.7144L25.258 60.8271ZM31.7876 68.1917L30.8963 66.4013L31.7876 68.1917ZM18.2891 48.623L16.6788 47.437L16.6788 47.437L18.2891 48.623ZM45.867 74.7147L46.7938 76.487L46.7938 76.487L45.867 74.7147ZM64.3039 37.625C62.8968 37.625 61.7767 36.4944 61.7767 35.125H57.7767C57.7767 38.7262 60.7104 41.625 64.3039 41.625V37.625ZM61.7767 35.125C61.7767 33.7556 62.8968 32.625 64.3039 32.625V28.625C60.7104 28.625 57.7767 31.5238 57.7767 35.125H61.7767ZM64.3039 32.625C65.711 32.625 66.8311 33.7556 66.8311 35.125H70.8311C70.8311 31.5238 67.8974 28.625 64.3039 28.625V32.625ZM66.8311 35.125C66.8311 36.4944 65.711 37.625 64.3039 37.625V41.625C67.8974 41.625 70.8311 38.7262 70.8311 35.125H66.8311ZM64.3039 62.375C62.8968 62.375 61.7767 61.2444 61.7767 59.875H57.7767C57.7767 63.4762 60.7104 66.375 64.3039 66.375V62.375ZM61.7767 59.875C61.7767 58.5056 62.8968 57.375 64.3039 57.375V53.375C60.7104 53.375 57.7767 56.2738 57.7767 59.875H61.7767ZM64.3039 57.375C65.711 57.375 66.8311 58.5056 66.8311 59.875H70.8311C70.8311 56.2738 67.8974 53.375 64.3039 53.375V57.375ZM66.8311 59.875C66.8311 61.2444 65.711 62.375 64.3039 62.375V66.375C67.8974 66.375 70.8311 63.4762 70.8311 59.875H66.8311ZM48.2776 74.5001L48.2792 47.5001L44.2792 47.4999L44.2776 74.4999L48.2776 74.5001ZM45.3507 72.7277L44.9401 72.9425L46.7938 76.487L47.2044 76.2723L45.3507 72.7277ZM36.303 63.7096L30.8963 66.4013L32.6789 69.9821L38.0857 67.2904L36.303 63.7096ZM18.64 51.5191L19.8995 49.8091L16.6788 47.437L15.4193 49.147L18.64 51.5191ZM24.4597 37.214L25.3938 38.5317L28.657 36.2183L27.7228 34.9006L24.4597 37.214ZM27.7476 35.5099L26.4668 35.014L25.0224 38.7441L26.3033 39.2401L27.7476 35.5099ZM43.5082 20.8762L45.0473 22.0769L47.5078 18.9231L45.9687 17.7224L43.5082 20.8762ZM48.2784 35.1249L48.2776 20.4999L44.2776 20.5001L44.2784 35.1251L48.2784 35.1249ZM74.4728 50.0001C73.0657 50.0001 71.9456 48.8694 71.9456 47.5H67.9456C67.9456 51.1012 70.8793 54.0001 74.4728 54.0001V50.0001ZM71.9456 47.5C71.9456 46.1307 73.0657 45 74.4728 45V41C70.8793 41 67.9456 43.8989 67.9456 47.5H71.9456ZM74.4728 45C75.8799 45 77 46.1307 77 47.5H81C81 43.8989 78.0663 41 74.4728 41V45ZM77 47.5C77 48.8694 75.8799 50.0001 74.4728 50.0001V54.0001C78.0663 54.0001 81 51.1012 81 47.5H77ZM59.7688 23C58.3617 23 57.2416 21.8694 57.2416 20.5H53.2416C53.2416 24.1012 56.1753 27 59.7688 27V23ZM57.2416 20.5C57.2416 19.1306 58.3617 18 59.7688 18V14C56.1753 14 53.2416 16.8988 53.2416 20.5H57.2416ZM59.7688 18C61.1759 18 62.296 19.1306 62.296 20.5H66.296C66.296 16.8988 63.3623 14 59.7688 14V18ZM62.296 20.5C62.296 21.8694 61.1759 23 59.7688 23V27C63.3623 27 66.296 24.1012 66.296 20.5H62.296ZM59.7688 77C58.3617 77 57.2416 75.8694 57.2416 74.5L53.2416 74.5C53.2416 78.1012 56.1753 81 59.7688 81V77ZM57.2416 74.5C57.2416 73.1306 58.3617 72 59.7688 72V68C56.1753 68 53.2416 70.8988 53.2416 74.5L57.2416 74.5ZM59.7688 72C61.1759 72 62.296 73.1306 62.296 74.5L66.296 74.5C66.296 70.8988 63.3623 68 59.7688 68V72ZM62.296 74.5C62.296 75.8694 61.1759 77 59.7688 77V81C63.3623 81 66.296 78.1012 66.296 74.5L62.296 74.5ZM46.2776 22.5H55.2416V18.5H46.2776V22.5ZM46.2776 76.5L55.2416 76.5L55.2416 72.5L46.2776 72.5L46.2776 76.5ZM53.0275 37.125H59.7767V33.125H53.0275V37.125ZM53.0275 61.875H59.7767V57.875H53.0275V61.875ZM46.2792 49.5H50.7529V45.5H46.2792V49.5ZM66.5713 49.5H69.9456V45.5H66.5713V49.5ZM57.5322 49.5H59.792V45.5H57.5322V49.5ZM48.2792 47.4999L48.2787 40.7499L44.2787 40.7501L44.2792 47.5001L48.2792 47.4999ZM48.2787 40.7499L48.2784 35.1249L44.2784 35.1251L44.2787 40.7501L48.2787 40.7499ZM46.2787 38.75C45.2985 38.75 43.5943 38.5998 41.8428 38.1404C40.058 37.6723 38.4686 36.9464 37.4756 35.9577L34.6533 38.7923C36.3721 40.5036 38.7524 41.4652 40.828 42.0096C42.937 42.5627 44.9842 42.75 46.2787 42.75V38.75ZM38.7919 66.7033C40.2719 64.7385 42.2609 59.709 40.2208 53.6151L36.4277 54.8849C38.0032 59.5909 36.3766 63.2615 35.5969 64.2967L38.7919 66.7033ZM25.6143 38.7923C26.4471 39.6215 27.4192 41.2496 27.9103 43.2058C28.396 45.1402 28.3524 47.1508 27.4979 48.8525L31.0725 50.6475C32.4777 47.8492 32.4341 44.7973 31.7899 42.2317C31.1512 39.688 29.8636 37.3786 28.4366 35.9577L25.6143 38.7923ZM26.4668 35.014C18.8156 32.0514 12.0647 40.8075 16.6747 47.484L19.9663 45.2112C17.5508 41.713 21.1158 37.2315 25.0224 38.7441L26.4668 35.014ZM34.1434 25.84C27.0568 22.48 19.8076 30.6521 24.4597 37.214L27.7228 34.9006C25.5758 31.8721 28.8715 27.7673 32.4297 29.4543L34.1434 25.84ZM33.9882 26.0065C33.9888 26.0084 33.9852 25.997 33.9852 25.9753C33.9851 25.9541 33.9886 25.9325 33.9947 25.9129C34.0063 25.8757 34.0226 25.8599 34.0277 25.8555C34.0328 25.8511 34.0465 25.841 34.0756 25.8364C34.0912 25.8339 34.1082 25.8337 34.1243 25.8359C34.1409 25.8383 34.1479 25.8421 34.1434 25.84L32.4297 29.4543C35.4449 30.8839 38.8387 28.069 37.801 24.7972L33.9882 26.0065ZM37.801 24.7972C36.738 21.4456 40.6734 18.6646 43.5082 20.8762L45.9687 17.7224C40.0874 13.1342 31.7168 18.8448 33.9882 26.0065L37.801 24.7972ZM22.5295 56.4334C19.3357 57.605 16.8283 53.979 18.64 51.5191L15.4193 49.147C11.0581 55.0684 17.306 62.6102 23.907 60.1887L22.5295 56.4334ZM26.9199 61.9398C28.9928 58.844 25.7539 55.2506 22.5295 56.4334L23.907 60.1887C23.8778 60.1994 23.8076 60.2088 23.7311 60.1853C23.6685 60.1661 23.6312 60.1345 23.6093 60.1076C23.5873 60.0807 23.5555 60.0268 23.5485 59.939C23.5401 59.8345 23.573 59.7489 23.5962 59.7144L26.9199 61.9398ZM30.8963 66.4013C28.0136 67.8364 25.181 64.537 26.9199 61.9398L23.5962 59.7144C19.5284 65.7897 26.1985 73.2083 32.6789 69.9821L30.8963 66.4013ZM19.8995 49.8091C20.9051 48.4438 20.9219 46.5951 19.9663 45.2112L16.6747 47.484C16.6704 47.4778 16.6686 47.4702 16.6687 47.4645C16.6688 47.4584 16.6712 47.4473 16.6788 47.437L19.8995 49.8091ZM44.9401 72.9425C40.7911 75.1122 36.4996 70.4554 38.8989 66.5462L35.4898 64.4538C30.9241 71.8927 39.1176 80.5014 46.7938 76.487L44.9401 72.9425Z" fill="#F24E1E"/>
</svg>
