<?xml version="1.0" encoding="UTF-8"?>
<!--
 Licensed to the Apache Software Foundation (ASF) under one
 or more contributor license agreements.  See the NOTICE file
 distributed with this work for additional information
 regarding copyright ownership.  The ASF licenses this file
 to you under the Apache License, Version 2.0 (the
 "License"); you may not use this file except in compliance
 with the License.  You may obtain a copy of the License at

   http://www.apache.org/licenses/LICENSE-2.0

 Unless required by applicable law or agreed to in writing,
 software distributed under the License is distributed on an
 "AS IS" BASIS, WITHOUT WARRANTIES OR CONDITIONS OF ANY
 KIND, either express or implied.  See the License for the
 specific language governing permissions and limitations
 under the License.
-->

<svg width="96" height="96" viewBox="0 0 96 96" fill="none" xmlns="http://www.w3.org/2000/svg">
<rect width="96" height="96" rx="8" fill="#F8F8F8"/>
<path d="M8 16C8 11.5817 11.5817 8 16 8H80C84.4183 8 88 11.5817 88 16V80C88 84.4183 84.4183 88 80 88H16C11.5817 88 8 84.4183 8 80V16Z" fill="#F8F8F8"/>
<path d="M40.2892 62.4505L40.2892 60.4505L40.2892 62.4505ZM39.998 62.3295L41.3874 60.8909L39.998 62.3295ZM40.8487 62.4505L40.8487 60.4505L40.8487 62.4505ZM40.0055 68.6223L41.3984 70.0575L40.0055 68.6223ZM57.8227 53.5481L57.8227 51.5481L57.8227 53.5481ZM49.9738 55.3421L48.3099 54.2324L49.9738 55.3421ZM66 53.5481L66 55.5481L66 53.5481ZM68.4 53.9481L68.4 77.8672L64.4 77.8672L64.4 53.9481L68.4 53.9481ZM57.8227 51.5481L66 51.5481L66 55.5481L57.8227 55.5481L57.8227 51.5481ZM55.905 57.7403C55.905 57.2603 55.7619 56.8198 55.5164 56.4517L58.8442 54.2324C59.5144 55.2373 59.905 56.4462 59.905 57.7403L55.905 57.7403ZM53.5771 60.0683C54.8627 60.0683 55.905 59.026 55.905 57.7403L59.905 57.7403C59.905 61.2351 57.0719 64.0683 53.5771 64.0683L53.5771 60.0683ZM51.2491 57.7403C51.2491 59.026 52.2914 60.0683 53.5771 60.0683L53.5771 64.0683C50.0822 64.0683 47.2491 61.2351 47.2491 57.7403L51.2491 57.7403ZM51.6377 56.4517C51.3922 56.8199 51.2491 57.2603 51.2491 57.7403L47.2491 57.7403C47.2491 56.4462 47.6397 55.2373 48.3099 54.2324L51.6377 56.4517ZM41.6487 51.5481L49.3314 51.5481L49.3314 55.5481L41.6487 55.5481L41.6487 51.5481ZM39.2487 62.0505L39.2487 53.9481L43.2487 53.9481L43.2487 62.0505L39.2487 62.0505ZM40.8487 64.4505L40.2892 64.4505L40.2892 60.4505L40.8487 60.4505L40.8487 64.4505ZM38.6086 63.7681C38.1787 63.3529 37.599 63.1007 36.9563 63.1007L36.9563 59.1007C38.6769 59.1007 40.2418 59.7845 41.3874 60.8909L38.6086 63.7681ZM36.9563 63.1007C35.6425 63.1007 34.5775 64.1657 34.5775 65.4795L30.5775 65.4795C30.5775 61.9566 33.4334 59.1007 36.9563 59.1007L36.9563 63.1007ZM34.5775 65.4795C34.5775 66.7933 35.6425 67.8584 36.9563 67.8584L36.9563 71.8584C33.4334 71.8584 30.5775 69.0025 30.5775 65.4795L34.5775 65.4795ZM36.9563 67.8584C37.6011 67.8584 38.1824 67.6045 38.6127 67.187L41.3984 70.0575C40.2518 71.1702 38.6824 71.8584 36.9563 71.8584L36.9563 67.8584ZM40.2974 66.5006L40.8487 66.5006L40.8487 70.5006L40.2974 70.5006L40.2974 66.5006ZM39.2487 77.8672L39.2487 68.9006L43.2487 68.9006L43.2487 77.8672L39.2487 77.8672ZM66 80.2672L41.6487 80.2672L41.6487 76.2672L66 76.2672L66 80.2672ZM43.2487 77.8672C43.2487 76.9836 42.5324 76.2672 41.6487 76.2672L41.6487 80.2672C40.3233 80.2672 39.2487 79.1927 39.2487 77.8672L43.2487 77.8672ZM40.8487 66.5006C42.1742 66.5006 43.2487 67.5751 43.2487 68.9006L39.2487 68.9006C39.2487 69.7842 39.9651 70.5006 40.8487 70.5006L40.8487 66.5006ZM40.2892 64.4505C39.6215 64.4505 39.0299 64.175 38.6086 63.7681L41.3874 60.8909C41.123 60.6355 40.7388 60.4505 40.2892 60.4505L40.2892 64.4505ZM43.2487 62.0505C43.2487 63.3759 42.1742 64.4505 40.8487 64.4505L40.8487 60.4505C39.9651 60.4505 39.2487 61.1668 39.2487 62.0505L43.2487 62.0505ZM41.6487 55.5481C42.5324 55.5481 43.2487 54.8318 43.2487 53.9481L39.2487 53.9481C39.2487 52.6226 40.3233 51.5481 41.6487 51.5481L41.6487 55.5481ZM38.6127 67.187C39.0344 66.7778 39.6276 66.5006 40.2974 66.5006L40.2974 70.5006C40.7485 70.5006 41.1337 70.3144 41.3984 70.0575L38.6127 67.187ZM57.8227 55.5481C58.2778 55.5481 58.6108 55.3765 58.7903 55.2519C58.9643 55.131 59.0582 55.0124 59.0905 54.9692C59.1529 54.8855 59.1471 54.8643 59.123 54.9361C59.1021 54.9982 59.0998 55.0354 59.1009 55.0173C59.1015 55.0071 59.1054 54.941 59.0883 54.8347C59.0735 54.7428 59.0249 54.5032 58.8442 54.2324L55.5164 56.4517C55.072 55.7853 55.091 55.0605 55.1082 54.7762C55.1318 54.3851 55.2182 53.9982 55.3318 53.6606C55.442 53.3329 55.6164 52.9366 55.8841 52.5777C56.076 52.3205 56.7114 51.5481 57.8227 51.5481L57.8227 55.5481ZM48.3099 54.2324C48.1293 54.5032 48.0806 54.7428 48.0658 54.8347C48.0487 54.941 48.0526 55.0071 48.0532 55.0173C48.0543 55.0354 48.052 54.9982 48.0311 54.9361C48.007 54.8643 48.0012 54.8855 48.0636 54.9692C48.0959 55.0124 48.1898 55.131 48.3639 55.2519C48.5433 55.3765 48.8763 55.5481 49.3314 55.5481L49.3314 51.5481C50.4428 51.5481 51.0782 52.3205 51.27 52.5777C51.5377 52.9366 51.7121 53.3329 51.8223 53.6606C51.9359 53.9982 52.0223 54.3851 52.046 54.7762C52.0631 55.0605 52.0821 55.7853 51.6377 56.4517L48.3099 54.2324ZM68.4 77.8672C68.4 79.1927 67.3255 80.2672 66 80.2672L66 76.2672C65.1163 76.2672 64.4 76.9835 64.4 77.8672L68.4 77.8672ZM64.4 53.9481C64.4 54.8318 65.1163 55.5481 66 55.5481L66 51.5481C67.3255 51.5481 68.4 52.6226 68.4 53.9481L64.4 53.9481Z" fill="#E74D1A"/>
<path d="M80.4716 34.9495L79.3871 33.269L80.4716 34.9495ZM72.5202 40.081L73.6047 41.7614L72.5202 40.081ZM68.2333 43.8289L70.1256 44.4764L68.2333 43.8289ZM72.7625 40.8874L72.5844 42.8794L72.7625 40.8874ZM52.8912 33.754L54.7259 34.5502L52.8912 33.754ZM56.7988 39.8089L56.829 37.8091L56.7988 39.8089ZM66.8334 13.8169L67.9179 15.4973L66.8334 13.8169ZM46.7361 26.7869L47.8206 28.4673L46.7361 26.7869ZM45.6516 25.1065L65.7489 12.1364L67.9179 15.4973L47.8206 28.4673L45.6516 25.1065ZM49.3553 35.2714L44.9365 28.4244L48.2974 26.2554L52.7162 33.1025L49.3553 35.2714ZM55.5979 33.5249C55.1946 33.7852 54.902 34.1443 54.7259 34.5502L51.0565 32.9577C51.5375 31.8497 52.3415 30.8658 53.4289 30.164L55.5979 33.5249ZM58.8162 34.2186C58.119 33.1383 56.6781 32.8277 55.5979 33.5249L53.4289 30.164C56.3653 28.269 60.282 29.1132 62.1771 32.0496L58.8162 34.2186ZM58.1225 37.4369C59.2028 36.7397 59.5133 35.2988 58.8162 34.2186L62.1771 32.0496C64.0721 34.986 63.2279 38.9027 60.2915 40.7978L58.1225 37.4369ZM56.829 37.8091C57.2715 37.8158 57.7192 37.6972 58.1225 37.4369L60.2915 40.7978C59.2041 41.4995 57.9764 41.8269 56.7686 41.8086L56.829 37.8091ZM58.1408 48.8848L53.9595 42.4057L57.3204 40.2367L61.5017 46.7158L58.1408 48.8848ZM68.6727 44.9443L61.4588 49.5999L59.2898 46.239L66.5037 41.5835L68.6727 44.9443ZM69.8216 42.2986L69.8733 42.3788L66.5125 44.5478L66.4607 44.4676L69.8216 42.2986ZM70.1256 44.4764C69.8962 45.1469 69.9664 45.9033 70.3768 46.5393L67.0159 48.7082C65.9134 46.9999 65.7322 44.9607 66.341 43.1815L70.1256 44.4764ZM70.3768 46.5393C71.0892 47.6432 72.5616 47.9605 73.6655 47.2481L75.8345 50.609C72.8744 52.5193 68.9262 51.6683 67.0159 48.7082L70.3768 46.5393ZM73.6655 47.2481C74.7694 46.5357 75.0868 45.0633 74.3744 43.9594L77.7352 41.7904C79.6455 44.7505 78.7945 48.6987 75.8345 50.609L73.6655 47.2481ZM74.3744 43.9594C73.9613 43.3194 73.2949 42.943 72.5844 42.8794L72.9405 38.8953C74.826 39.0639 76.6255 40.0709 77.7352 41.7904L74.3744 43.9594ZM70.763 41.7843L70.7205 41.7185L74.0814 39.5495L74.1239 39.6153L70.763 41.7843ZM81.5561 36.6299L73.6047 41.7614L71.4357 38.4005L79.3871 33.269L81.5561 36.6299ZM69.0668 12.8516L82.2712 33.312L78.9103 35.481L65.706 15.0206L69.0668 12.8516ZM79.3871 33.269C78.6446 33.7482 78.4312 34.7385 78.9103 35.481L82.2712 33.312C82.9899 34.4257 82.6698 35.9112 81.5561 36.6299L79.3871 33.269ZM70.7205 41.7185C70.0018 40.6048 70.322 39.1193 71.4357 38.4005L73.6047 41.7614C74.3471 41.2823 74.5606 40.2919 74.0814 39.5495L70.7205 41.7185ZM69.8733 42.3788C70.3023 43.0434 70.3489 43.8237 70.1256 44.4764L66.341 43.1815C66.2012 43.59 66.2235 44.1 66.5125 44.5478L69.8733 42.3788ZM66.5037 41.5835C67.6174 40.8647 69.1029 41.1849 69.8216 42.2986L66.4607 44.4676C66.9399 45.2101 67.9302 45.4235 68.6727 44.9443L66.5037 41.5835ZM61.5017 46.7158C61.0226 45.9733 60.0322 45.7599 59.2898 46.239L61.4588 49.5999C60.3451 50.3187 58.8596 49.9985 58.1408 48.8848L61.5017 46.7158ZM72.5844 42.8794C71.8929 42.8176 71.1948 42.4534 70.763 41.7843L74.1239 39.6153C73.8329 39.1644 73.3733 38.934 72.9405 38.8953L72.5844 42.8794ZM52.7162 33.1025C52.4694 32.7201 52.1447 32.5334 51.9427 32.4502C51.7467 32.3695 51.5962 32.3549 51.5423 32.3512C51.4381 32.3441 51.4234 32.3605 51.4968 32.3418C51.5602 32.3257 51.5927 32.3075 51.5769 32.3164C51.568 32.3214 51.5103 32.354 51.4302 32.4261C51.361 32.4883 51.1861 32.6591 51.0565 32.9577L54.7259 34.5502C54.407 35.285 53.7876 35.6621 53.5395 35.8019C53.198 35.9941 52.8261 36.1313 52.4809 36.2189C52.1458 36.3039 51.7182 36.3723 51.2715 36.342C50.9513 36.3203 49.9579 36.2052 49.3553 35.2714L52.7162 33.1025ZM56.7686 41.8086C57.0941 41.8136 57.3217 41.7245 57.407 41.6871C57.5057 41.6439 57.5591 41.6047 57.5673 41.5987C57.5819 41.5879 57.5519 41.61 57.5112 41.6612C57.4639 41.7204 57.4849 41.7137 57.5214 41.6159C57.5402 41.5653 57.5889 41.422 57.5961 41.2103C57.6035 40.9919 57.5671 40.6191 57.3204 40.2367L53.9595 42.4057C53.3569 41.472 53.6612 40.5194 53.7733 40.2187C53.9297 39.7991 54.1682 39.4377 54.3837 39.1673C54.6058 38.8889 54.884 38.6065 55.1998 38.3746C55.4294 38.206 56.0281 37.797 56.829 37.8091L56.7686 41.8086ZM65.7489 12.1364C66.8626 11.4177 68.3481 11.7379 69.0668 12.8516L65.706 15.0206C66.1851 15.763 67.1754 15.9765 67.9179 15.4973L65.7489 12.1364ZM47.8206 28.4673C48.5631 27.9882 48.7765 26.9979 48.2974 26.2554L44.9365 28.4244C44.2177 27.3107 44.5379 25.8252 45.6516 25.1065L47.8206 28.4673Z" fill="#E74D1A"/>
<path d="M42.3164 43.8618L43.8939 42.6324L42.3164 43.8618ZM42.2974 38.5074L43.8836 39.7257L42.2974 38.5074ZM25.4911 51.2219L23.8008 52.291L25.4911 51.2219ZM32.8119 51.2219L31.1216 50.1529L32.8119 51.2219ZM14.4432 52.716L14.4432 28.7968L18.4432 28.7968L18.4432 52.716L14.4432 52.716ZM24.7995 55.116L16.8432 55.116L16.8432 51.116L24.7995 51.116L24.7995 55.116ZM26.8236 48.9116C26.8236 49.3716 26.955 49.7948 27.1814 50.1529L23.8008 52.291C23.1817 51.3121 22.8236 50.1506 22.8236 48.9116L26.8236 48.9116ZM29.1515 46.5837C27.8658 46.5837 26.8236 47.626 26.8236 48.9116L22.8236 48.9116C22.8236 45.4168 25.6567 42.5837 29.1515 42.5837L29.1515 46.5837ZM31.4795 48.9116C31.4795 47.626 30.4372 46.5837 29.1515 46.5837L29.1515 42.5837C32.6464 42.5837 35.4795 45.4168 35.4795 48.9116L31.4795 48.9116ZM31.1216 50.1529C31.3481 49.7948 31.4795 49.3716 31.4795 48.9116L35.4795 48.9116C35.4795 50.1506 35.1214 51.3121 34.5022 52.291L31.1216 50.1529ZM41.2809 55.116L33.5036 55.116L33.5036 51.116L41.2809 51.116L41.2809 55.116ZM43.6809 44.067L43.6809 52.716L39.6809 52.716L39.6809 44.067L43.6809 44.067ZM43.8939 42.6324C44.3326 43.1952 45.0103 43.5512 45.7723 43.5512L45.7723 47.5512C43.7252 47.5512 41.9028 46.5847 40.7389 45.0912L43.8939 42.6324ZM45.7723 43.5512C47.0861 43.5512 48.1511 42.4861 48.1511 41.1723L52.1511 41.1723C52.1511 44.6953 49.2952 47.5512 45.7723 47.5512L45.7723 43.5512ZM48.1511 41.1723C48.1511 39.8585 47.0861 38.7935 45.7723 38.7935L45.7723 34.7935C49.2952 34.7935 52.1511 37.6494 52.1511 41.1723L48.1511 41.1723ZM45.7723 38.7935C45.0044 38.7935 44.3218 39.1551 43.8836 39.7257L40.7113 37.2892C41.874 35.7754 43.7089 34.7935 45.7723 34.7935L45.7723 38.7935ZM43.6809 28.7968L43.6809 38.3105L39.6809 38.3105L39.6809 28.7968L43.6809 28.7968ZM16.8432 26.3969L41.2809 26.3968L41.2809 30.3968L16.8432 30.3969L16.8432 26.3969ZM39.6809 28.7968C39.6809 29.6805 40.3973 30.3968 41.2809 30.3968L41.2809 26.3968C42.6064 26.3968 43.6809 27.4714 43.6809 28.7968L39.6809 28.7968ZM42.0187 40.6482C40.7276 40.6482 39.6809 39.6016 39.6809 38.3105L43.6809 38.3105C43.6809 37.3924 42.9367 36.6482 42.0187 36.6482L42.0187 40.6482ZM42.0298 41.7181C42.8024 41.7181 43.4734 42.0927 43.8939 42.6324L40.7389 45.0912C41.0211 45.4533 41.4823 45.7181 42.0298 45.7181L42.0298 41.7181ZM39.6809 44.067C39.6809 42.7697 40.7325 41.7181 42.0298 41.7181L42.0298 45.7181C42.9417 45.7181 43.6809 44.9789 43.6809 44.067L39.6809 44.067ZM41.2809 51.116C40.3973 51.116 39.6809 51.8323 39.6809 52.716L43.6809 52.716C43.6809 54.0414 42.6064 55.116 41.2809 55.116L41.2809 51.116ZM43.8836 39.7257C43.4649 40.2707 42.7925 40.6482 42.0187 40.6482L42.0187 36.6482C41.4644 36.6482 40.9963 36.9181 40.7113 37.2892L43.8836 39.7257ZM24.7995 51.116C24.3164 51.116 23.9734 51.3076 23.8044 51.4296C23.6377 51.5499 23.5513 51.664 23.5269 51.6975C23.4787 51.7636 23.4939 51.7624 23.5258 51.6694C23.538 51.6339 23.548 51.5979 23.555 51.5664C23.5622 51.5336 23.5633 51.5186 23.5629 51.5236C23.5626 51.5269 23.5616 51.5405 23.5618 51.5635C23.562 51.5858 23.5634 51.6251 23.5704 51.6782C23.5809 51.7581 23.6204 52.0057 23.8008 52.291L27.1814 50.1529C27.6153 50.8388 27.5715 51.5816 27.5496 51.8494C27.5177 52.2392 27.426 52.6278 27.3091 52.9682C27.1956 53.2989 27.0201 53.6962 26.7583 54.055C26.5892 54.2867 25.9482 55.116 24.7995 55.116L24.7995 51.116ZM34.5022 52.291C34.6827 52.0057 34.7222 51.7581 34.7327 51.6782C34.7396 51.6251 34.7411 51.5858 34.7413 51.5635C34.7415 51.5405 34.7405 51.5269 34.7402 51.5236C34.7398 51.5186 34.7409 51.5336 34.7481 51.5664C34.7551 51.5979 34.765 51.6339 34.7772 51.6694C34.8091 51.7624 34.8244 51.7636 34.7762 51.6975C34.7518 51.664 34.6653 51.5499 34.4986 51.4296C34.3297 51.3076 33.9867 51.116 33.5036 51.116L33.5036 55.116C32.3549 55.116 31.7138 54.2867 31.5448 54.055C31.283 53.6962 31.1075 53.2989 30.994 52.9682C30.8771 52.6278 30.7853 52.2392 30.7535 51.8494C30.7316 51.5816 30.6878 50.8388 31.1216 50.1529L34.5022 52.291ZM14.4432 28.7968C14.4432 27.4714 15.5178 26.3969 16.8432 26.3969L16.8432 30.3969C17.7269 30.3969 18.4432 29.6805 18.4432 28.7968L14.4432 28.7968ZM18.4432 52.716C18.4432 51.8323 17.7269 51.116 16.8432 51.116L16.8432 55.116C15.5177 55.116 14.4432 54.0414 14.4432 52.716L18.4432 52.716Z" fill="#E74D1A"/>
<path d="M26.7007 52.716L28.7007 52.716L26.7007 52.716ZM31.9349 52.2883L33.1737 53.8584L31.9349 52.2883ZM41.2055 53.516L39.2055 53.516L41.2055 53.516ZM26.5344 52.3038L27.7642 50.7266L26.5344 52.3038ZM26.7007 52.6345L28.7007 52.6345L26.7007 52.6345ZM38.8436 69.369L37.974 67.568L38.8436 69.369ZM38.8436 61.5698L39.7133 59.7688L38.8436 61.5698ZM41.2055 60.6204L39.2055 60.6204L41.2055 60.6204ZM40.8055 80.2672L16.8 80.2672L16.8 76.2672L40.8055 76.2672L40.8055 80.2672ZM43.2055 70.3185L43.2055 77.8672L39.2055 77.8672L39.2055 70.3185L43.2055 70.3185ZM36.964 67.7974C37.33 67.7974 37.6709 67.7144 37.974 67.568L39.7133 71.17C38.8795 71.5727 37.9452 71.7974 36.964 71.7974L36.964 67.7974ZM34.6361 65.4694C34.6361 66.7551 35.6783 67.7974 36.964 67.7974L36.964 71.7974C33.4692 71.7974 30.6361 68.9642 30.6361 65.4694L34.6361 65.4694ZM36.964 63.1415C35.6783 63.1415 34.6361 64.1837 34.6361 65.4694L30.6361 65.4694C30.6361 61.9746 33.4692 59.1415 36.964 59.1415L36.964 63.1415ZM37.974 63.3708C37.6709 63.2245 37.33 63.1415 36.964 63.1415L36.964 59.1415C37.9452 59.1415 38.8795 59.3662 39.7133 59.7688L37.974 63.3708ZM43.2055 53.516L43.2055 60.6204L39.2055 60.6204L39.2055 53.516L43.2055 53.516ZM32.1705 51.116L40.8055 51.116L40.8055 55.116L32.1705 55.116L32.1705 51.116ZM29.7705 52.716L29.7705 52.6175L33.7705 52.6175L33.7705 52.716L29.7705 52.716ZM30.6961 50.7182C31.2524 50.2792 31.6036 49.6056 31.6036 48.8487L35.6036 48.8487C35.6036 50.8819 34.6501 52.6936 33.1737 53.8584L30.6961 50.7182ZM31.6036 48.8487C31.6036 47.5349 30.5386 46.4698 29.2247 46.4698L29.2247 42.4698C32.7477 42.4698 35.6036 45.3257 35.6036 48.8487L31.6036 48.8487ZM29.2247 46.4698C27.9109 46.4698 26.8459 47.5349 26.8459 48.8487L22.8459 48.8487C22.8459 45.3257 25.7018 42.4698 29.2247 42.4698L29.2247 46.4698ZM26.8459 48.8487C26.8459 49.6104 27.2017 50.288 27.7642 50.7266L25.3045 53.881C23.8118 52.717 22.8459 50.8951 22.8459 48.8487L26.8459 48.8487ZM28.7007 52.6345L28.7007 52.716L24.7007 52.716L24.7007 52.6345L28.7007 52.6345ZM16.8 51.116L26.3007 51.116L26.3007 55.116L16.8 55.116L16.8 51.116ZM14.4 77.8672L14.4 53.516L18.4 53.516L18.4 77.8672L14.4 77.8672ZM16.8 55.116C17.6837 55.116 18.4 54.3996 18.4 53.516L14.4 53.516C14.4 52.1905 15.4745 51.116 16.8 51.116L16.8 55.116ZM28.7007 52.716C28.7007 54.0414 27.6261 55.116 26.3007 55.116L26.3007 51.116C25.417 51.116 24.7007 51.8323 24.7007 52.716L28.7007 52.716ZM29.7705 52.6175C29.7705 51.8264 30.1545 51.1455 30.6961 50.7182L33.1737 53.8584C33.5127 53.591 33.7705 53.1504 33.7705 52.6175L29.7705 52.6175ZM32.1705 55.116C30.8451 55.116 29.7705 54.0414 29.7705 52.716L33.7705 52.716C33.7705 51.8323 33.0542 51.116 32.1705 51.116L32.1705 55.116ZM39.2055 53.516C39.2055 54.3996 39.9219 55.116 40.8055 55.116L40.8055 51.116C42.131 51.116 43.2055 52.1905 43.2055 53.516L39.2055 53.516ZM27.7642 50.7266C28.3117 51.1536 28.7007 51.8381 28.7007 52.6345L24.7007 52.6345C24.7007 53.171 24.9619 53.6138 25.3045 53.881L27.7642 50.7266ZM39.2055 70.3185C39.2055 70.9229 39.4958 71.3034 39.5853 71.4108C39.6448 71.4822 39.6953 71.5282 39.7219 71.5511C39.7499 71.5752 39.7676 71.5873 39.7698 71.5888C39.7719 71.5902 39.7468 71.5734 39.6874 71.5441C39.6309 71.5162 39.5598 71.4851 39.4785 71.4542C39.3065 71.389 39.15 71.348 39.0578 71.3322C39.0102 71.324 39.023 71.3301 39.0832 71.3297C39.1152 71.3295 39.1835 71.3274 39.2766 71.3116C39.3645 71.2966 39.5242 71.2614 39.7133 71.17L37.974 67.568C38.4235 67.3509 38.8515 67.3312 39.0565 67.3298C39.3052 67.3282 39.5399 67.3565 39.7342 67.3898C40.1255 67.457 40.5323 67.576 40.8965 67.714C41.2515 67.8486 41.6629 68.0379 42.0254 68.2854C42.203 68.4067 42.4428 68.5916 42.6584 68.8503C42.855 69.0862 43.2055 69.5935 43.2055 70.3185L39.2055 70.3185ZM39.7133 59.7688C39.5242 59.6775 39.3645 59.6422 39.2766 59.6273C39.1835 59.6114 39.1152 59.6093 39.0832 59.6091C39.0231 59.6087 39.0102 59.6148 39.0578 59.6066C39.15 59.5908 39.3065 59.5498 39.4785 59.4846C39.5598 59.4538 39.6309 59.4227 39.6874 59.3948C39.7468 59.3655 39.7719 59.3486 39.7698 59.3501C39.7676 59.3516 39.7499 59.3636 39.7219 59.3877C39.6953 59.4106 39.6448 59.4566 39.5853 59.528C39.4958 59.6354 39.2055 60.0159 39.2055 60.6204L43.2055 60.6204C43.2055 61.3454 42.855 61.8526 42.6584 62.0886C42.4428 62.3473 42.203 62.5322 42.0254 62.6534C41.6629 62.901 41.2515 63.0902 40.8965 63.2248C40.5323 63.3629 40.1255 63.4819 39.7342 63.549C39.5399 63.5823 39.3052 63.6107 39.0565 63.609C38.8515 63.6076 38.4235 63.5879 37.974 63.3708L39.7133 59.7688ZM16.8 80.2672C15.4745 80.2672 14.4 79.1927 14.4 77.8672L18.4 77.8672C18.4 76.9836 17.6836 76.2672 16.8 76.2672L16.8 80.2672ZM40.8055 76.2672C39.9219 76.2672 39.2055 76.9836 39.2055 77.8672L43.2055 77.8672C43.2055 79.1927 42.131 80.2672 40.8055 80.2672L40.8055 76.2672Z" fill="#E74D1A"/>
</svg>
