<?xml version="1.0" encoding="UTF-8"?>
<!--
 Licensed to the Apache Software Foundation (ASF) under one
 or more contributor license agreements.  See the NOTICE file
 distributed with this work for additional information
 regarding copyright ownership.  The ASF licenses this file
 to you under the Apache License, Version 2.0 (the
 "License"); you may not use this file except in compliance
 with the License.  You may obtain a copy of the License at

   http://www.apache.org/licenses/LICENSE-2.0

 Unless required by applicable law or agreed to in writing,
 software distributed under the License is distributed on an
 "AS IS" BASIS, WITHOUT WARRANTIES OR CONDITIONS OF ANY
 KIND, either express or implied.  See the License for the
 specific language governing permissions and limitations
 under the License.
-->

<svg width="96" height="96" viewBox="0 0 96 96" fill="none" xmlns="http://www.w3.org/2000/svg">
<rect width="96" height="96" rx="8" fill="#F8F8F8"/>
<path d="M8 16C8 11.5817 11.5817 8 16 8H80C84.4183 8 88 11.5817 88 16V80C88 84.4183 84.4183 88 80 88H16C11.5817 88 8 84.4183 8 80V16Z" fill="#F8F8F8"/>
<path d="M20 78.4H62.7333C65.4211 78.4 67.6 76.2211 67.6 73.5333V73.5333C67.6 70.8455 65.4211 68.6666 62.7333 68.6666H31.2667C28.5789 68.6666 26.4 66.4877 26.4 63.7999V63.7999C26.4 61.1122 28.5789 58.9333 31.2667 58.9333H62.7333C65.4211 58.9333 67.6 56.7544 67.6 54.0666V54.0666C67.6 51.3788 65.4211 49.2 62.7333 49.2H31.2667C28.5789 49.2 26.4 47.0211 26.4 44.3333V44.3333C26.4 41.6455 28.5789 39.4666 31.2667 39.4666H62.7333C65.4211 39.4666 67.6 37.2877 67.6 34.6V34.6C67.6 31.9122 65.4211 29.7333 62.7333 29.7333H31.2667C28.5789 29.7333 26.4 27.5544 26.4 24.8666V24.8666C26.4 22.1788 28.5789 20 31.2667 20H77.2M77.2 20L72.4 24.8M77.2 20L72.4 15.2" stroke="#E74D1A" stroke-width="4" stroke-linecap="round"/>
</svg>
