<!-- Licensed to the Apache Software Foundation (ASF) under one
or more contributor license agreements.  See the NOTICE file
distributed with this work for additional information
regarding copyright ownership.  The ASF licenses this file
to you under the Apache License, Version 2.0 (the
"License"); you may not use this file except in compliance
with the License.  You may obtain a copy of the License at
 
      http://www.apache.org/licenses/LICENSE-2.0
 
Unless required by applicable law or agreed to in writing, software
distributed under the License is distributed on an "AS IS" BASIS,
WITHOUT WARRANTIES OR CONDITIONS OF ANY KIND, either express or implied.
See the License for the specific language governing permissions and
limitations under the License. -->

<svg width="14" height="18" viewBox="0 0 14 18" fill="none" xmlns="http://www.w3.org/2000/svg">
    <path d="M6.24975 9C6.24975 9.41422 6.58554 9.75001 6.99976 9.75001C7.41398 9.75001 7.74977 9.41422 7.74977 9H6.24975ZM7.74977 5C7.74977 4.58578 7.41398 4.24999 6.99976 4.24999C6.58554 4.24999 6.24975 4.58578 6.24975 5H7.74977ZM4.99976 6.24999C4.58554 6.24999 4.24975 6.58578 4.24975 7C4.24975 7.41422 4.58554 7.75001 4.99976 7.75001V6.24999ZM8.99976 7.75001C9.41398 7.75001 9.74977 7.41422 9.74977 7C9.74977 6.58578 9.41398 6.24999 8.99976 6.24999V7.75001ZM3.55833 11.5586L4.08867 11.0282L3.55833 11.5586ZM13.2498 7.28994V7H11.7497V7.28994H13.2498ZM2.24977 7.28994V7H0.749745V7.28994H2.24977ZM4.24975 13V13.5607H5.74977V13H4.24975ZM9.74977 13.5607V13H8.24975V13.5607H9.74977ZM6.3632 17.25H7.63631V15.75H6.3632V17.25ZM4.99976 13.75H5.99976V12.25H4.99976V13.75ZM7.99976 13.75H8.99976V12.25H7.99976V13.75ZM5.99976 13.75H7.99976V12.25H5.99976V13.75ZM7.74977 9V5H6.24975V9H7.74977ZM4.99976 7.75001H6.99976V6.24999H4.99976V7.75001ZM6.99976 7.75001H8.99976V6.24999H6.99976V7.75001ZM9.53009 13.5303L10.9715 12.0889L9.91084 11.0282L8.46942 12.4697L9.53009 13.5303ZM5.53009 12.4697L4.08867 11.0282L3.02799 12.0889L4.46942 13.5303L5.53009 12.4697ZM7.63631 17.25C8.11414 17.25 8.56035 17.0112 8.82541 16.6136L7.57731 15.7816C7.59046 15.7618 7.6126 15.75 7.63631 15.75V17.25ZM5.1741 16.6136C5.43916 17.0112 5.88537 17.25 6.3632 17.25V15.75C6.38691 15.75 6.40905 15.7618 6.4222 15.7816L5.1741 16.6136ZM4.08867 11.0282C3.74185 10.6814 3.42008 10.3104 3.1258 9.91804L1.92578 10.8181C2.26265 11.2672 2.63098 11.6919 3.02799 12.0889L4.08867 11.0282ZM8.24975 13.5607C8.24975 14.3511 8.01577 15.1239 7.57731 15.7816L8.82541 16.6136C9.42814 15.7095 9.74977 14.6473 9.74977 13.5607H8.24975ZM10.9715 12.0889C11.3685 11.6919 11.7369 11.2672 12.0737 10.8181L10.8737 9.91804C10.5794 10.3104 10.2577 10.6814 9.91084 11.0282L10.9715 12.0889ZM4.24975 13.5607C4.24975 14.6473 4.57138 15.7095 5.1741 16.6136L6.4222 15.7816C5.98374 15.1239 5.74977 14.3511 5.74977 13.5607H4.24975ZM2.24977 7C2.24977 4.37665 4.37641 2.25001 6.99976 2.25001V0.74999C3.54797 0.74999 0.749745 3.54821 0.749745 7H2.24977ZM0.749745 7.28994C0.749745 8.56224 1.1624 9.80021 1.92578 10.8181L3.1258 9.91804C2.55716 9.15985 2.24977 8.23768 2.24977 7.28994H0.749745ZM13.2498 7C13.2498 3.54821 10.4515 0.74999 6.99976 0.74999V2.25001C9.6231 2.25001 11.7497 4.37665 11.7497 7H13.2498ZM11.7497 7.28994C11.7497 8.23768 11.4424 9.15985 10.8737 9.91804L12.0737 10.8181C12.8371 9.80021 13.2498 8.56224 13.2498 7.28994H11.7497Z" fill="#A0A4AB" />
</svg>