<?xml version="1.0" encoding="UTF-8"?>
<!--
 Licensed to the Apache Software Foundation (ASF) under one
 or more contributor license agreements.  See the NOTICE file
 distributed with this work for additional information
 regarding copyright ownership.  The ASF licenses this file
 to you under the Apache License, Version 2.0 (the
 "License"); you may not use this file except in compliance
 with the License.  You may obtain a copy of the License at

   http://www.apache.org/licenses/LICENSE-2.0

 Unless required by applicable law or agreed to in writing,
 software distributed under the License is distributed on an
 "AS IS" BASIS, WITHOUT WARRANTIES OR CONDITIONS OF ANY
 KIND, either express or implied.  See the License for the
 specific language governing permissions and limitations
 under the License.
-->
<svg xmlns="http://www.w3.org/2000/svg" width="44" height="44" fill="none" viewBox="0 0 44 44">
    <path stroke="#FF6D00" stroke-linecap="round" stroke-linejoin="round" stroke-width="2.75" d="M10.999 36.667c2.025 0 3.666-1.642 3.666-3.667S13.024 29.333 11 29.333 7.332 30.975 7.332 33s1.642 3.667 3.667 3.667zM10.999 14.667c2.025 0 3.666-1.642 3.666-3.667S13.024 7.333 11 7.333 7.332 8.975 7.332 11s1.642 3.667 3.667 3.667zM32.999 36.667c2.025 0 3.666-1.642 3.666-3.667S35.024 29.333 33 29.333 29.332 30.975 29.332 33s1.642 3.667 3.667 3.667zM11 14.667v14.666M20.168 11h9.167c.972 0 1.905.386 2.592 1.074.688.688 1.074 1.62 1.074 2.593v14.666"/>
    <path stroke="#FF6D00" stroke-linecap="round" stroke-linejoin="round" stroke-width="2.75" d="M25.668 16.5l-5.5-5.5 5.5-5.5"/>
</svg>
