<?xml version="1.0" encoding="UTF-8" standalone="no"?>
<!-- Created with Inkscape (http://www.inkscape.org/) -->
<svg id="svg2" xmlns:rdf="http://www.w3.org/1999/02/22-rdf-syntax-ns#" xmlns="http://www.w3.org/2000/svg" height="303.81" width="589.09" version="1.1" xmlns:cc="http://creativecommons.org/ns#" xmlns:dc="http://purl.org/dc/elements/1.1/">
 <metadata id="metadata7">
  <rdf:RDF>
   <cc:Work rdf:about="">
    <dc:format>image/svg+xml</dc:format>
    <dc:type rdf:resource="http://purl.org/dc/dcmitype/StillImage"/>
    <dc:title/>
   </cc:Work>
  </rdf:RDF>
 </metadata>
 <g id="layer1" transform="translate(20.046875,-752.34875)">
  <path id="path3207" stroke-linejoin="miter" d="m50,805.93,0,196.43h436.43" stroke="#000" stroke-linecap="butt" stroke-width="1px" fill="none"/>
  <text id="text3209" style="letter-spacing:0px;word-spacing:0px;" font-weight="normal" xml:space="preserve" font-size="16px" font-style="normal" y="779.505" x="20" font-family="Sans" line-height="125%" fill="#000000"><tspan id="tspan3211" y="779.505" x="20">Worker</tspan><tspan id="tspan3219" y="799.505" x="20">Thread</tspan></text>
  <text id="text3213" style="letter-spacing:0px;word-spacing:0px;" font-weight="normal" xml:space="preserve" font-size="16px" font-style="normal" y="1020.9336" x="445" font-family="Sans" line-height="125%" fill="#000000"><tspan id="tspan3215" y="1020.9336" x="445">Processing</tspan><tspan id="tspan3217" y="1040.9336" x="445">Time</tspan></text>
  <rect id="rect3025-7-19-4" height="36.429" width="114.29" y="900.8" x="80.357" fill="#afc6e9"/>
  <path id="path3029-9" d="m57.857,14.286c0,2.3669-1.9188,4.2857-4.2857,4.2857s-4.2857-1.9188-4.2857-4.2857c0.001-2.367,1.919-4.286,4.286-4.286,2.3669,0,4.2857,1.9188,4.2857,4.2857z" transform="translate(48.453122,912.45817)" fill="#4A0"/>
  <path id="path3029-0" d="m57.857,14.286c0,2.3669-1.9188,4.2857-4.2857,4.2857s-4.2857-1.9188-4.2857-4.2857c0.001-2.367,1.919-4.286,4.286-4.286,2.3669,0,4.2857,1.9188,4.2857,4.2857z" transform="translate(37.453124,899.60097)" fill="#4A0"/>
  <path id="path3029-6" d="m57.857,14.286c0,2.3669-1.9188,4.2857-4.2857,4.2857s-4.2857-1.9188-4.2857-4.2857c0.001-2.367,1.919-4.286,4.286-4.286,2.3669,0,4.2857,1.9188,4.2857,4.2857z" transform="translate(70.310271,897.45817)" fill="#ff2a2a"/>
  <path id="path3029-06" d="m57.857,14.286c0,2.3669-1.9188,4.2857-4.2857,4.2857s-4.2857-1.9188-4.2857-4.2857c0.001-2.367,1.919-4.286,4.286-4.286,2.3669,0,4.2857,1.9188,4.2857,4.2857z" transform="translate(98.167409,905.31527)" fill="#ffe680"/>
  <path id="path3029-06-4" d="m57.857,14.286c0,2.3669-1.9188,4.2857-4.2857,4.2857s-4.2857-1.9188-4.2857-4.2857c0.001-2.367,1.919-4.286,4.286-4.286,2.3669,0,4.2857,1.9188,4.2857,4.2857z" transform="translate(131.38169,914.95814)" fill="#ffe680"/>
  <rect id="rect3025-7-19-4-9" height="36.429" width="114.29" y="850.8" x="57.81" fill="#afc6e9"/>
  <path id="path3029-06-65" d="m57.857,14.286c0,2.3669-1.9188,4.2857-4.2857,4.2857s-4.2857-1.9188-4.2857-4.2857c0.001-2.367,1.919-4.286,4.286-4.286,2.3669,0,4.2857,1.9188,4.2857,4.2857z" transform="translate(113.52455,899.01729)" fill="#ffe680"/>
  <g id="g5265">
   <rect id="rect3025-7-19-4-1" height="36.429" width="114.29" y="850.8" x="215.67" fill="#afc6e9"/>
   <path id="path3029-9-5" d="m57.857,14.286c0,2.3669-1.9188,4.2857-4.2857,4.2857s-4.2857-1.9188-4.2857-4.2857c0.001-2.367,1.919-4.286,4.286-4.286,2.3669,0,4.2857,1.9188,4.2857,4.2857z" transform="translate(192.33482,862.45818)" fill="#4A0"/>
   <path id="path3029-0-97" d="m57.857,14.286c0,2.3669-1.9188,4.2857-4.2857,4.2857s-4.2857-1.9188-4.2857-4.2857c0.001-2.367,1.919-4.286,4.286-4.286,2.3669,0,4.2857,1.9188,4.2857,4.2857z" transform="translate(169.90625,858.17241)" fill="#4A0"/>
   <path id="path3029-6-7" d="m57.857,14.286c0,2.3669-1.9188,4.2857-4.2857,4.2857s-4.2857-1.9188-4.2857-4.2857c0.001-2.367,1.919-4.286,4.286-4.286,2.3669,0,4.2857,1.9188,4.2857,4.2857z" transform="translate(211.62054,853.45818)" fill="#4A0"/>
   <path id="path3029-06-6" d="m57.857,14.286c0,2.3669-1.9188,4.2857-4.2857,4.2857s-4.2857-1.9188-4.2857-4.2857c0.001-2.367,1.919-4.286,4.286-4.286,2.3669,0,4.2857,1.9188,4.2857,4.2857z" transform="translate(233.47768,855.31528)" fill="#4A0"/>
   <path id="path3029-06-6-3" d="m57.857,14.286c0,2.3669-1.9188,4.2857-4.2857,4.2857s-4.2857-1.9188-4.2857-4.2857c0.001-2.367,1.919-4.286,4.286-4.286,2.3669,0,4.2857,1.9188,4.2857,4.2857z" transform="translate(261.38169,864.0173)" fill="#4A0"/>
   <flowRoot id="flowRoot5183" style="letter-spacing:0px;word-spacing:0px;" font-weight="normal" xml:space="preserve" transform="translate(47.200894,756.81605)" line-height="125%" font-size="20px" font-style="normal" font-family="Sans" fill="#000000"><flowRegion id="flowRegion5185"><rect id="rect5187" y="94.526" x="192.86" width="125.71" height="30.714"/></flowRegion><flowPara id="flowPara5189" font-size="24px">Retry</flowPara></flowRoot>
   <path id="path3029-9-5-3" d="m57.857,14.286c0,2.3669-1.9188,4.2857-4.2857,4.2857s-4.2857-1.9188-4.2857-4.2857c0.001-2.367,1.919-4.286,4.286-4.286,2.3669,0,4.2857,1.9188,4.2857,4.2857z" transform="translate(183.52455,849.0173)" fill="#4A0"/>
  </g>
 </g>
</svg>
