<?xml version="1.0" encoding="UTF-8" standalone="no"?>
<!--
 Licensed to the Apache Software Foundation (ASF) under one
 or more contributor license agreements.  See the NOTICE file
 distributed with this work for additional information
 regarding copyright ownership.  The ASF licenses this file
 to you under the Apache License, Version 2.0 (the
 "License"); you may not use this file except in compliance
 with the License.  You may obtain a copy of the License at

   http://www.apache.org/licenses/LICENSE-2.0

 Unless required by applicable law or agreed to in writing,
 software distributed under the License is distributed on an
 "AS IS" BASIS, WITHOUT WARRANTIES OR CONDITIONS OF ANY
 KIND, either express or implied.  See the License for the
 specific language governing permissions and limitations
 under the License.
-->
<!-- Created with Inkscape (http://www.inkscape.org/) -->
<svg id="svg2" xmlns:rdf="http://www.w3.org/1999/02/22-rdf-syntax-ns#" xmlns="http://www.w3.org/2000/svg" height="248.27" width="601.9" version="1.1" xmlns:cc="http://creativecommons.org/ns#" xmlns:dc="http://purl.org/dc/elements/1.1/">
 <metadata id="metadata7">
  <rdf:RDF>
   <cc:Work rdf:about="">
    <dc:format>image/svg+xml</dc:format>
    <dc:type rdf:resource="http://purl.org/dc/dcmitype/StillImage"/>
    <dc:title/>
   </cc:Work>
  </rdf:RDF>
 </metadata>
 <path id="path3207-9" stroke-linejoin="miter" d="m65.98,68.662,0,151.23h360.38" stroke="#000" stroke-linecap="butt" stroke-width="0.79734099px" fill="none"/>
 <text id="text7100" style="letter-spacing:0px;word-spacing:0px;" font-weight="normal" xml:space="preserve" font-size="40px" font-style="normal" y="56.552471" x="67.671875" font-family="Sans" line-height="125%" fill="#000000"><tspan id="tspan7104" style="text-anchor:middle;text-align:center;" font-size="16px" y="56.552471" x="67.671875">Worker</tspan></text>
 <text id="text6762" style="letter-spacing:0px;word-spacing:0px;" font-weight="normal" xml:space="preserve" font-size="16px" font-style="normal" y="213.0417" x="478.54456" font-family="Sans" line-height="125%" fill="#000000"><tspan id="tspan6764" style="text-anchor:middle;text-align:center;" y="213.0417" x="478.54456">Processing</tspan><tspan id="tspan6766" style="text-anchor:middle;text-align:center;" y="233.0417" x="478.54456">Time</tspan></text>
 <text id="text9219" style="letter-spacing:0px;word-spacing:0px;" font-weight="normal" xml:space="preserve" font-size="40px" font-style="normal" y="32.49892" x="378.46069" font-family="Sans" line-height="125%" fill="#000000"><tspan id="tspan9221" font-size="12px" y="32.49892" x="378.46069">Bundle A</tspan></text>
 <rect id="rect3025-7-19-4-92" height="22.065" width="27.454" stroke="#000" stroke-dasharray="none" stroke-miterlimit="4" y="41.803" x="340.93" stroke-width="0.5" fill="#add8e6"/>
 <text id="text9219-0" style="letter-spacing:0px;word-spacing:0px;" font-weight="normal" xml:space="preserve" font-size="40px" font-style="normal" y="56.003277" x="378.46069" font-family="Sans" line-height="125%" fill="#000000"><tspan id="tspan9221-6" font-size="12px" y="56.003277" x="378.46069">Bundle B</tspan></text>
 <text id="text7065" style="letter-spacing:0px;word-spacing:0px;" font-weight="normal" xml:space="preserve" font-size="40px" font-style="normal" y="140.70111" x="44.729984" font-family="Sans" line-height="125%" fill="#000000"><tspan id="tspan7067" font-size="14px" y="140.70111" x="44.729984">2</tspan></text>
 <text id="text7065-4" style="letter-spacing:0px;word-spacing:0px;" font-weight="normal" xml:space="preserve" font-size="40px" font-style="normal" y="193.45233" x="45.071857" font-family="Sans" line-height="125%" fill="#000000"><tspan id="tspan7067-7" font-size="14px" y="193.45233" x="45.071857">1</tspan></text>
 <path id="path6657-3-5-62-2-5" stroke-linejoin="miter" d="m59.774,134.81h11.088" stroke="#000" stroke-linecap="butt" stroke-width="1.09913433px" fill="none"/>
 <path id="path6657-3-5-62-2-5-1" stroke-linejoin="miter" d="m60.427,187.7h11.088" stroke="#000" stroke-linecap="butt" stroke-width="1.09913433px" fill="none"/>
 <text id="text9219-0-2" style="letter-spacing:0px;word-spacing:0px;" font-weight="normal" xml:space="preserve" font-size="40px" font-style="normal" y="83.930176" x="378.79578" font-family="Sans" line-height="125%" fill="#000000"><tspan id="tspan9221-6-7" font-size="12px" y="83.930176" x="378.79578">Element processing successful</tspan></text>
 <text id="text9219-0-2-1" style="letter-spacing:0px;word-spacing:0px;" font-weight="normal" xml:space="preserve" font-size="40px" font-style="normal" y="104.47797" x="378.26312" font-family="Sans" line-height="125%" fill="#000000"><tspan id="tspan9221-6-7-0" font-size="12px" y="104.47797" x="378.26312">Element awaiting processing</tspan></text>
 <text id="text9219-0-2-6" style="letter-spacing:0px;word-spacing:0px;" font-weight="normal" xml:space="preserve" font-size="40px" font-style="normal" y="124.71785" x="378.26312" font-family="Sans" line-height="125%" fill="#000000"><tspan id="tspan9221-6-7-1" font-size="12px" y="124.71785" x="378.26312">Element processing failed</tspan></text>
 <path id="path3029-9-9-5" d="m359.12,79.622c0,2.3669-1.9188,4.2857-4.2857,4.2857s-4.2857-1.9188-4.2857-4.2857c0.001-2.367,1.919-4.286,4.286-4.286,2.3669,0,4.2857,1.9188,4.2857,4.2857z" stroke="#000" stroke-miterlimit="4" stroke-dasharray="none" stroke-width="0.5" fill="#32cd32"/>
 <path id="path3029-06-64-9" d="m358.47,99.862c0,2.3669-1.9188,4.2857-4.2857,4.2857s-4.2857-1.9188-4.2857-4.2857c0.001-2.367,1.919-4.286,4.286-4.286,2.3669,0,4.2857,1.9188,4.2857,4.2857z" stroke="#000" stroke-miterlimit="4" stroke-dasharray="none" stroke-width="0.5" fill="#FF0"/>
 <rect id="rect3025-7-19-4-92-2" height="22.065" width="27.454" stroke="#000" stroke-dasharray="none" stroke-miterlimit="4" y="15.25" x="340.8" stroke-width="0.5" fill="#d8bfd8"/>
 <rect id="rect3025-0" height="36.608" width="27.716" stroke="#000" stroke-dasharray="none" stroke-miterlimit="4" y="168.59" x="82.188" stroke-width="0.88569" fill="#d8bfd8"/>
 <rect id="rect3025-0-0" height="36.608" width="27.716" stroke="#000" stroke-dasharray="none" stroke-miterlimit="4" y="168.59" x="137.94" stroke-width="0.88569" fill="#d8bfd8"/>
 <rect id="rect3025-0-4" height="36.608" width="27.716" stroke="#000" stroke-dasharray="none" stroke-miterlimit="4" y="168.59" x="110.06" stroke-width="0.88569" fill="#d8bfd8"/>
 <rect id="rect3025-0-44" height="36.608" width="27.716" stroke="#000" stroke-dasharray="none" stroke-miterlimit="4" y="168.59" x="193.69" stroke-width="0.88569" fill="#d8bfd8"/>
 <rect id="rect3025-0-47" height="36.608" width="27.716" stroke="#000" stroke-dasharray="none" stroke-miterlimit="4" y="168.59" x="165.82" stroke-width="0.88569" fill="#d8bfd8"/>
 <rect id="rect3025-0-47-6" height="36.612" width="27.589" stroke="#000" stroke-dasharray="none" stroke-miterlimit="4" y="168.59" x="232.45" stroke-width="0.8837" fill="#add8e6"/>
 <rect id="rect3025-0-47-3" height="36.612" width="27.589" stroke="#000" stroke-dasharray="none" stroke-miterlimit="4" y="168.59" x="286.21" stroke-width="0.8837" fill="#add8e6"/>
 <rect id="rect3025-0-47-1" height="36.612" width="27.589" stroke="#000" stroke-dasharray="none" stroke-miterlimit="4" y="168.59" x="259.04" stroke-width="0.8837" fill="#add8e6"/>
 <rect id="rect3025-0-47-7" height="36.612" width="27.589" stroke="#000" stroke-dasharray="none" stroke-miterlimit="4" y="168.59" x="313.86" stroke-width="0.8837" fill="#add8e6"/>
 <rect id="rect3025-0-47-6-1" height="36.612" width="27.589" stroke="#000" stroke-dasharray="none" stroke-miterlimit="4" y="117.01" x="100.23" stroke-width="0.8837" fill="#add8e6"/>
 <rect id="rect3025-0-47-3-7" height="36.612" width="27.589" stroke="#000" stroke-dasharray="none" stroke-miterlimit="4" y="117.01" x="154" stroke-width="0.8837" fill="#add8e6"/>
 <rect id="rect3025-0-47-1-8" height="36.612" width="27.589" stroke="#000" stroke-dasharray="none" stroke-miterlimit="4" y="117.01" x="126.83" stroke-width="0.8837" fill="#add8e6"/>
 <rect id="rect3025-0-47-7-5" height="36.612" width="27.589" stroke="#000" stroke-dasharray="none" stroke-miterlimit="4" y="117.01" x="181.65" stroke-width="0.8837" fill="#add8e6"/>
 <path id="path3029-06-64-9-3" d="m198.85,135.97c0,2.3669-1.9188,4.2857-4.2857,4.2857s-4.2857-1.9188-4.2857-4.2857c0.001-2.367,1.919-4.286,4.286-4.286,2.3669,0,4.2857,1.9188,4.2857,4.2857z" stroke="#000" stroke-miterlimit="4" stroke-dasharray="none" stroke-width="0.5" fill="#FF0"/>
 <path id="path3029-9-9-5-8" d="m117.89,135.97c0,2.3669-1.9188,4.2857-4.2857,4.2857s-4.2857-1.9188-4.2857-4.2857c0.001-2.367,1.919-4.286,4.286-4.286,2.3669,0,4.2857,1.9188,4.2857,4.2857z" stroke="#000" stroke-miterlimit="4" stroke-dasharray="none" stroke-width="0.5" fill="#32cd32"/>
 <path id="path3029-9-9-5-6" d="m144.01,135.97c0,2.3669-1.9188,4.2857-4.2857,4.2857s-4.2857-1.9188-4.2857-4.2857c0.001-2.367,1.919-4.286,4.286-4.286,2.3669,0,4.2857,1.9188,4.2857,4.2857z" stroke="#000" stroke-miterlimit="4" stroke-dasharray="none" stroke-width="0.5" fill="#32cd32"/>
 <path id="path3029-9-9-5-0" d="m99.609,187.55c0,2.3669-1.9188,4.2857-4.2857,4.2857s-4.2857-1.9188-4.2857-4.2857c0.001-2.367,1.919-4.286,4.286-4.286,2.3669,0,4.2857,1.9188,4.2857,4.2857z" stroke="#000" stroke-miterlimit="4" stroke-dasharray="none" stroke-width="0.5" fill="#32cd32"/>
 <path id="path3029-9-9-5-4" d="m156.41,186.9c0,2.3669-1.9188,4.2857-4.2857,4.2857s-4.2857-1.9188-4.2857-4.2857c0.001-2.367,1.919-4.286,4.286-4.286,2.3669,0,4.2857,1.9188,4.2857,4.2857z" stroke="#000" stroke-miterlimit="4" stroke-dasharray="none" stroke-width="0.5" fill="#32cd32"/>
 <path id="path3029-9-9-5-88" d="m127.68,186.9c0,2.3669-1.9188,4.2857-4.2857,4.2857s-4.2857-1.9188-4.2857-4.2857c0.001-2.367,1.919-4.286,4.286-4.286,2.3669,0,4.2857,1.9188,4.2857,4.2857z" stroke="#000" stroke-miterlimit="4" stroke-dasharray="none" stroke-width="0.5" fill="#32cd32"/>
 <path id="path3029-9-9-5-89" d="m183.83,187.55c0,2.3669-1.9188,4.2857-4.2857,4.2857s-4.2857-1.9188-4.2857-4.2857c0.001-2.367,1.919-4.286,4.286-4.286,2.3669,0,4.2857,1.9188,4.2857,4.2857z" stroke="#000" stroke-miterlimit="4" stroke-dasharray="none" stroke-width="0.5" fill="#32cd32"/>
 <path id="path3029-9-9-5-7" d="m211.91,187.55c0,2.3669-1.9188,4.2857-4.2857,4.2857s-4.2857-1.9188-4.2857-4.2857c0.001-2.367,1.919-4.286,4.286-4.286,2.3669,0,4.2857,1.9188,4.2857,4.2857z" stroke="#000" stroke-miterlimit="4" stroke-dasharray="none" stroke-width="0.5" fill="#32cd32"/>
 <path id="path3029-9-9-5-76" d="m249.12,187.55c0,2.3669-1.9188,4.2857-4.2857,4.2857s-4.2857-1.9188-4.2857-4.2857c0.001-2.367,1.919-4.286,4.286-4.286,2.3669,0,4.2857,1.9188,4.2857,4.2857z" stroke="#000" stroke-miterlimit="4" stroke-dasharray="none" stroke-width="0.5" fill="#32cd32"/>
 <path id="path3029-9-9-5-43" d="m276.54,187.55c0,2.3669-1.9188,4.2857-4.2857,4.2857s-4.2857-1.9188-4.2857-4.2857c0.001-2.367,1.919-4.286,4.286-4.286,2.3669,0,4.2857,1.9188,4.2857,4.2857z" stroke="#000" stroke-miterlimit="4" stroke-dasharray="none" stroke-width="0.5" fill="#32cd32"/>
 <path id="path3029-9-9-5-03" d="m305.27,186.9c0,2.3669-1.9188,4.2857-4.2857,4.2857s-4.2857-1.9188-4.2857-4.2857c0.001-2.367,1.919-4.286,4.286-4.286,2.3669,0,4.2857,1.9188,4.2857,4.2857z" stroke="#000" stroke-miterlimit="4" stroke-dasharray="none" stroke-width="0.5" fill="#32cd32"/>
 <path id="path3029-9-9-5-09" d="m332.04,186.9c0,2.3669-1.9188,4.2857-4.2857,4.2857s-4.2857-1.9188-4.2857-4.2857c0.001-2.367,1.919-4.286,4.286-4.286,2.3669,0,4.2857,1.9188,4.2857,4.2857z" stroke="#000" stroke-miterlimit="4" stroke-dasharray="none" stroke-width="0.5" fill="#32cd32"/>
 <text id="text18024-8" style="letter-spacing:0px;word-spacing:0px;" font-family="Sans" font-weight="normal" xml:space="preserve" stroke-dasharray="none" transform="scale(0.97018693,1.0307292)" stroke="#000000" stroke-miterlimit="4" font-size="36.6902771px" font-style="normal" y="121.74629" x="359.76794" stroke-width="0.18345138" line-height="125%" fill="#000000"><tspan id="tspan18026-9" stroke-width="0.18345138" stroke-dasharray="none" font-size="14.67611027px" stroke="#000000" stroke-miterlimit="4" y="121.74629" x="359.76794" font-weight="bold" fill="#ff0000">X</tspan></text>
 <text id="text18024-8-8" style="letter-spacing:0px;word-spacing:0px;" font-family="Sans" font-weight="normal" xml:space="preserve" stroke-dasharray="none" transform="scale(0.97018693,1.0307292)" stroke="#000000" stroke-miterlimit="4" font-size="36.6902771px" font-style="normal" y="137.26543" x="166.62782" stroke-width="0.18345138" line-height="125%" fill="#000000"><tspan id="tspan18026-9-0" stroke-width="0.18345138" stroke-dasharray="none" font-size="14.67611027px" stroke="#000000" stroke-miterlimit="4" y="137.26543" x="166.62782" font-weight="bold" fill="#ff0000">X</tspan></text>
</svg>
