<!--
 Licensed to the Apache Software Foundation (ASF) under one
 or more contributor license agreements.  See the NOTICE file
 distributed with this work for additional information
 regarding copyright ownership.  The ASF licenses this file
 to you under the Apache License, Version 2.0 (the
 "License"); you may not use this file except in compliance
 with the License.  You may obtain a copy of the License at

   http://www.apache.org/licenses/LICENSE-2.0

 Unless required by applicable law or agreed to in writing,
 software distributed under the License is distributed on an
 "AS IS" BASIS, WITHOUT WARRANTIES OR CONDITIONS OF ANY
 KIND, either express or implied.  See the License for the
 specific language governing permissions and limitations
 under the License.
-->

<svg version="1.1" xmlns="http://www.w3.org/2000/svg" viewBox="0 0 3720 1006.6666666666665" width="3720" height="1006.6666666666665">
  <!-- svg-source:excalidraw -->
  
  <defs>
    <style>
      @font-face {
        font-family: "Virgil";
        src: url("https://excalidraw.com/Virgil.woff2");
      }
      @font-face {
        font-family: "Cascadia";
        src: url("https://excalidraw.com/Cascadia.woff2");
      }
    </style>
  </defs>
  <g stroke-linecap="round" transform="translate(10 10) rotate(0 1850 493.33333333333326)"><path d="M0 0 L3700 0 L3700 986.67 L0 986.67" stroke="none" stroke-width="0" fill="#f6f6f6"></path><path d="M0 0 C1072.37 0, 2144.74 0, 3700 0 M0 0 C1202.77 0, 2405.53 0, 3700 0 M3700 0 C3700 211.2, 3700 422.4, 3700 986.67 M3700 0 C3700 314.16, 3700 628.32, 3700 986.67 M3700 986.67 C2372.88 986.67, 1045.77 986.67, 0 986.67 M3700 986.67 C2644.99 986.67, 1589.98 986.67, 0 986.67 M0 986.67 C0 719.3, 0 451.94, 0 0 M0 986.67 C0 733.39, 0 480.12, 0 0" stroke="#ffff" stroke-width="1" fill="none"></path></g><g stroke-linecap="round" transform="translate(50 463.3333333333333) rotate(0 230 100)"><path d="M0 0 L460 0 L460 200 L0 200" stroke="none" stroke-width="0" fill="#e6fff1"></path><path d="M0 0 C174.35 0, 348.69 0, 460 0 M0 0 C130.54 0, 261.08 0, 460 0 M460 0 C460 58.33, 460 116.67, 460 200 M460 0 C460 50.14, 460 100.28, 460 200 M460 200 C320.96 200, 181.91 200, 0 200 M460 200 C282.74 200, 105.48 200, 0 200 M0 200 C0 147.13, 0 94.27, 0 0 M0 200 C0 137.42, 0 74.84, 0 0" stroke="#fff" stroke-width="1" fill="none"></path></g><g stroke-linecap="round" transform="translate(2610 463.3333333333333) rotate(0 230 100)"><path d="M0 0 L460 0 L460 200 L0 200" stroke="none" stroke-width="0" fill="#e6fff1"></path><path d="M0 0 C132.28 0, 264.55 0, 460 0 M0 0 C160.46 0, 320.92 0, 460 0 M460 0 C460 73.63, 460 147.26, 460 200 M460 0 C460 72.7, 460 145.4, 460 200 M460 200 C331.62 200, 203.23 200, 0 200 M460 200 C295.93 200, 131.85 200, 0 200 M0 200 C0 156.12, 0 112.24, 0 0 M0 200 C0 135.5, 0 70.99, 0 0" stroke="#fff" stroke-width="1" fill="none"></path></g><g stroke-linecap="round" transform="translate(3210 463.3333333333333) rotate(0 230 100)"><path d="M0 0 L460 0 L460 200 L0 200" stroke="none" stroke-width="0" fill="#e6fff1"></path><path d="M0 0 C100.19 0, 200.38 0, 460 0 M0 0 C103.43 0, 206.86 0, 460 0 M460 0 C460 50.89, 460 101.78, 460 200 M460 0 C460 79.01, 460 158.02, 460 200 M460 200 C367.01 200, 274.03 200, 0 200 M460 200 C364.33 200, 268.66 200, 0 200 M0 200 C0 156.73, 0 113.46, 0 0 M0 200 C0 123.88, 0 47.76, 0 0" stroke="#fff" stroke-width="1" fill="none"></path></g><g stroke-linecap="round" transform="translate(670 103.33333333333331) rotate(0 900 430)"><path d="M0 0 L1800 0 L1800 860 L0 860" stroke="none" stroke-width="0" fill="#e6fff1"></path><path d="M0 0 C398.5 0, 797 0, 1800 0 M0 0 C551.03 0, 1102.06 0, 1800 0 M1800 0 C1800 225.31, 1800 450.61, 1800 860 M1800 0 C1800 316.91, 1800 633.83, 1800 860 M1800 860 C1083.78 860, 367.56 860, 0 860 M1800 860 C1140.34 860, 480.69 860, 0 860 M0 860 C0 521.69, 0 183.38, 0 0 M0 860 C0 550.22, 0 240.44, 0 0" stroke="#ffff" stroke-width="1" fill="none"></path></g><g stroke-linecap="round" transform="translate(930 163.33333333333331) rotate(0 650 370)"><path d="M0 0 L1300 0 L1300 740 L0 740" stroke="none" stroke-width="0" fill="#c4e1ff"></path><path d="M0 0 C472.05 0, 944.1 0, 1300 0 M0 0 C493.12 0, 986.25 0, 1300 0 M1300 0 C1300 216.35, 1300 432.7, 1300 740 M1300 0 C1300 186.3, 1300 372.6, 1300 740 M1300 740 C980.25 740, 660.49 740, 0 740 M1300 740 C839.95 740, 379.91 740, 0 740 M0 740 C0 579.7, 0 419.4, 0 0 M0 740 C0 481.88, 0 223.77, 0 0" stroke="#ffff" stroke-width="1" fill="none"></path></g><g stroke-linecap="round" transform="translate(1010 483.3333333333333) rotate(0 90 80)"><path d="M0 0 L180 0 L180 160 L0 160" stroke="none" stroke-width="0" fill="#fffee9"></path><path d="M0 0 C68.83 0, 137.66 0, 180 0 M0 0 C38.88 0, 77.75 0, 180 0 M180 0 C180 52.54, 180 105.08, 180 160 M180 0 C180 55.48, 180 110.96, 180 160 M180 160 C143.84 160, 107.69 160, 0 160 M180 160 C112.84 160, 45.68 160, 0 160 M0 160 C0 96.22, 0 32.43, 0 0 M0 160 C0 113.16, 0 66.33, 0 0" stroke="#ffff" stroke-width="1" fill="none"></path></g><g stroke-linecap="round" transform="translate(1330 483.3333333333333) rotate(0 90 80)"><path d="M0 0 L180 0 L180 160 L0 160" stroke="none" stroke-width="0" fill="#fffee9"></path><path d="M0 0 C50.66 0, 101.31 0, 180 0 M0 0 C60.2 0, 120.41 0, 180 0 M180 0 C180 61.94, 180 123.88, 180 160 M180 0 C180 60.85, 180 121.71, 180 160 M180 160 C125.37 160, 70.74 160, 0 160 M180 160 C116 160, 51.99 160, 0 160 M0 160 C0 120.25, 0 80.5, 0 0 M0 160 C0 122.78, 0 85.57, 0 0" stroke="#ffff" stroke-width="1" fill="none"></path></g><g stroke-linecap="round" transform="translate(1650 263.3333333333333) rotate(0 90 80)"><path d="M0 0 L180 0 L180 160 L0 160" stroke="none" stroke-width="0" fill="#fffee9"></path><path d="M0 0 C67.54 0, 135.08 0, 180 0 M0 0 C54.52 0, 109.05 0, 180 0 M180 0 C180 57.84, 180 115.69, 180 160 M180 0 C180 36.45, 180 72.91, 180 160 M180 160 C119.57 160, 59.15 160, 0 160 M180 160 C129.06 160, 78.12 160, 0 160 M0 160 C0 123.22, 0 86.43, 0 0 M0 160 C0 102.26, 0 44.52, 0 0" stroke="#ffff" stroke-width="1" fill="none"></path></g><g stroke-linecap="round" transform="translate(1650 483.3333333333333) rotate(0 90 80)"><path d="M0 0 L180 0 L180 160 L0 160" stroke="none" stroke-width="0" fill="#fffee9"></path><path d="M0 0 C51.38 0, 102.76 0, 180 0 M0 0 C45 0, 90 0, 180 0 M180 0 C180 57.86, 180 115.72, 180 160 M180 0 C180 54.47, 180 108.95, 180 160 M180 160 C122.38 160, 64.77 160, 0 160 M180 160 C122.48 160, 64.96 160, 0 160 M0 160 C0 112.28, 0 64.55, 0 0 M0 160 C0 99.58, 0 39.15, 0 0" stroke="#ffff" stroke-width="1" fill="none"></path></g><g stroke-linecap="round" transform="translate(1970 363.3333333333333) rotate(0 90 80)"><path d="M0 0 L180 0 L180 160 L0 160" stroke="none" stroke-width="0" fill="#fffee9"></path><path d="M0 0 C60.95 0, 121.9 0, 180 0 M0 0 C49.43 0, 98.86 0, 180 0 M180 0 C180 42.63, 180 85.27, 180 160 M180 0 C180 52.25, 180 104.5, 180 160 M180 160 C142.44 160, 104.87 160, 0 160 M180 160 C130.03 160, 80.07 160, 0 160 M0 160 C0 107.36, 0 54.72, 0 0 M0 160 C0 103.58, 0 47.16, 0 0" stroke="#ffff" stroke-width="1" fill="none"></path></g><g stroke-linecap="round" transform="translate(1970 683.3333333333333) rotate(0 90 80)"><path d="M0 0 L180 0 L180 160 L0 160" stroke="none" stroke-width="0" fill="#fffee9"></path><path d="M0 0 C47.69 0, 95.38 0, 180 0 M0 0 C49.65 0, 99.31 0, 180 0 M180 0 C180 61.49, 180 122.97, 180 160 M180 0 C180 44.77, 180 89.55, 180 160 M180 160 C117.48 160, 54.96 160, 0 160 M180 160 C129.2 160, 78.4 160, 0 160 M0 160 C0 127.76, 0 95.53, 0 0 M0 160 C0 100.62, 0 41.23, 0 0" stroke="#ffff" stroke-width="1" fill="none"></path></g><g stroke-linecap="round" transform="translate(1650 683.3333333333333) rotate(0 90 80)"><path d="M0 0 L180 0 L180 160 L0 160" stroke="none" stroke-width="0" fill="#fffee9"></path><path d="M0 0 C60.79 0, 121.59 0, 180 0 M0 0 C62.83 0, 125.65 0, 180 0 M180 0 C180 36.04, 180 72.08, 180 160 M180 0 C180 51.36, 180 102.72, 180 160 M180 160 C113.21 160, 46.43 160, 0 160 M180 160 C110.69 160, 41.37 160, 0 160 M0 160 C0 99.3, 0 38.6, 0 0 M0 160 C0 119.89, 0 79.78, 0 0" stroke="#ffff" stroke-width="1" fill="none"></path></g><g transform="translate(1530 183.33333333333331) rotate(0 51 11.5)"><text x="0" y="18" font-family="Helvetica, Segoe UI Emoji" font-size="20px" fill="#000000" text-anchor="start" style="white-space: pre;" direction="ltr">Beam DAG</text></g><g transform="translate(1015 551.8333333333333) rotate(0 85 11.5)"><text x="85" y="18" font-family="Helvetica, Segoe UI Emoji" font-size="20px" fill="#000000" text-anchor="middle" style="white-space: pre;" direction="ltr">Load Data</text></g><g transform="translate(1335 551.8333333333333) rotate(0 85 11.5)"><text x="85" y="18" font-family="Helvetica, Segoe UI Emoji" font-size="20px" fill="#000000" text-anchor="middle" style="white-space: pre;" direction="ltr">Transform</text></g><g transform="translate(1655 331.8333333333333) rotate(0 85 11.5)"><text x="85" y="18" font-family="Helvetica, Segoe UI Emoji" font-size="20px" fill="#000000" text-anchor="middle" style="white-space: pre;" direction="ltr">Transform</text></g><g transform="translate(1655 551.8333333333333) rotate(0 85 11.5)"><text x="85" y="18" font-family="Helvetica, Segoe UI Emoji" font-size="20px" fill="#000000" text-anchor="middle" style="white-space: pre;" direction="ltr">Transform</text></g><g transform="translate(1975 431.8333333333333) rotate(0 85 11.5)"><text x="85" y="18" font-family="Helvetica, Segoe UI Emoji" font-size="20px" fill="#000000" text-anchor="middle" style="white-space: pre;" direction="ltr">Transform</text></g><g transform="translate(1975 751.8333333333333) rotate(0 85 11.5)"><text x="85" y="18" font-family="Helvetica, Segoe UI Emoji" font-size="20px" fill="#000000" text-anchor="middle" style="white-space: pre;" direction="ltr">Transform</text></g><g transform="translate(1655 751.8333333333333) rotate(0 85 11.5)"><text x="85" y="18" font-family="Helvetica, Segoe UI Emoji" font-size="20px" fill="#000000" text-anchor="middle" style="white-space: pre;" direction="ltr">Transform</text></g><g stroke-linecap="round" transform="translate(690 483.3333333333333) rotate(0 80 80)"><path d="M0 0 C54.76 0, 109.53 0, 160 0 M160 0 C160 38.61, 160 77.22, 160 160 M160 160 C112.12 160, 64.25 160, 0 160 M0 160 C0 122.16, 0 84.32, 0 0" stroke="#000000" stroke-width="1.5" fill="none" stroke-dasharray="8 9"></path></g><g stroke-linecap="round" transform="translate(2290 363.3333333333333) rotate(0 80 80)"><path d="M0 0 C53.19 0, 106.38 0, 160 0 M160 0 C160 54.1, 160 108.19, 160 160 M160 160 C106.56 160, 53.12 160, 0 160 M0 160 C0 121.1, 0 82.21, 0 0" stroke="#000000" stroke-width="1.5" fill="none" stroke-dasharray="8 9"></path></g><g stroke-linecap="round" transform="translate(2290 683.3333333333333) rotate(0 80 80)"><path d="M0 0 C44.02 0, 88.04 0, 160 0 M160 0 C160 33.64, 160 67.29, 160 160 M160 160 C126.33 160, 92.66 160, 0 160 M0 160 C0 117.78, 0 75.56, 0 0" stroke="#000000" stroke-width="1.5" fill="none" stroke-dasharray="8 9"></path></g><g transform="translate(695 551.8333333333333) rotate(0 75 11.5)"><text x="75" y="18" font-family="Helvetica, Segoe UI Emoji" font-size="20px" fill="#000000" text-anchor="middle" style="white-space: pre;" direction="ltr">Data sources</text></g><g transform="translate(2295 420.3333333333333) rotate(0 75 23)"><text x="75" y="17" font-family="Helvetica, Segoe UI Emoji" font-size="20px" fill="#000000" text-anchor="middle" style="white-space: pre;" direction="ltr">Train/Val </text><text x="75" y="40" font-family="Helvetica, Segoe UI Emoji" font-size="20px" fill="#000000" text-anchor="middle" style="white-space: pre;" direction="ltr">Dataset</text></g><g transform="translate(2295 740.3333333333333) rotate(0 75 23)"><text x="75" y="17" font-family="Helvetica, Segoe UI Emoji" font-size="20px" fill="#000000" text-anchor="middle" style="white-space: pre;" direction="ltr">Test </text><text x="75" y="40" font-family="Helvetica, Segoe UI Emoji" font-size="20px" fill="#000000" text-anchor="middle" style="white-space: pre;" direction="ltr">Dataset</text></g><g stroke-linecap="round"><g transform="translate(851 563.3333333333333) rotate(0 78.5 0)"><path d="M0 0 C26.17 0, 130.83 0, 157 0 M0 0 C26.17 0, 130.83 0, 157 0" stroke="#000000" stroke-width="1" fill="none"></path></g><g transform="translate(851 563.3333333333333) rotate(0 78.5 0)"><path d="M128.81 10.26 C138.98 6.56, 149.15 2.86, 157 0 M128.81 10.26 C139.6 6.33, 150.39 2.41, 157 0" stroke="#000000" stroke-width="1" fill="none"></path></g><g transform="translate(851 563.3333333333333) rotate(0 78.5 0)"><path d="M128.81 -10.26 C138.98 -6.56, 149.15 -2.86, 157 0 M128.81 -10.26 C139.6 -6.33, 150.39 -2.41, 157 0" stroke="#000000" stroke-width="1" fill="none"></path></g></g><g stroke-linecap="round"><g transform="translate(510 563.3333333333333) rotate(0 78.5 0)"><path d="M0 0 C26.17 0, 130.83 0, 157 0 M0 0 C26.17 0, 130.83 0, 157 0" stroke="#000000" stroke-width="1" fill="none"></path></g><g transform="translate(510 563.3333333333333) rotate(0 78.5 0)"><path d="M128.81 10.26 C136.12 7.6, 143.43 4.94, 157 0 M128.81 10.26 C135.26 7.91, 141.71 5.57, 157 0" stroke="#000000" stroke-width="1" fill="none"></path></g><g transform="translate(510 563.3333333333333) rotate(0 78.5 0)"><path d="M128.81 -10.26 C136.12 -7.6, 143.43 -4.94, 157 0 M128.81 -10.26 C135.26 -7.91, 141.71 -5.57, 157 0" stroke="#000000" stroke-width="1" fill="none"></path></g></g><g stroke-linecap="round"><g transform="translate(1830 763.3333333333333) rotate(0 70 0)"><path d="M0 0 C23.33 0, 116.67 0, 140 0 M0 0 C23.33 0, 116.67 0, 140 0" stroke="#000000" stroke-width="1" fill="none"></path></g><g transform="translate(1830 763.3333333333333) rotate(0 70 0)"><path d="M111.81 10.26 C120.21 7.2, 128.61 4.14, 140 0 M111.81 10.26 C117.53 8.18, 123.25 6.1, 140 0" stroke="#000000" stroke-width="1" fill="none"></path></g><g transform="translate(1830 763.3333333333333) rotate(0 70 0)"><path d="M111.81 -10.26 C120.21 -7.2, 128.61 -4.14, 140 0 M111.81 -10.26 C117.53 -8.18, 123.25 -6.1, 140 0" stroke="#000000" stroke-width="1" fill="none"></path></g></g><g stroke-linecap="round"><g transform="translate(2150 763.3333333333333) rotate(0 70 0)"><path d="M0 0 C23.33 0, 116.67 0, 140 0 M0 0 C23.33 0, 116.67 0, 140 0" stroke="#000000" stroke-width="1" fill="none"></path></g><g transform="translate(2150 763.3333333333333) rotate(0 70 0)"><path d="M111.81 10.26 C119.76 7.37, 127.71 4.47, 140 0 M111.81 10.26 C122.12 6.51, 132.43 2.76, 140 0" stroke="#000000" stroke-width="1" fill="none"></path></g><g transform="translate(2150 763.3333333333333) rotate(0 70 0)"><path d="M111.81 -10.26 C119.76 -7.37, 127.71 -4.47, 140 0 M111.81 -10.26 C122.12 -6.51, 132.43 -2.76, 140 0" stroke="#000000" stroke-width="1" fill="none"></path></g></g><g stroke-linecap="round"><g transform="translate(2150 443.3333333333333) rotate(0 70 0)"><path d="M0 0 C23.33 0, 116.67 0, 140 0 M0 0 C23.33 0, 116.67 0, 140 0" stroke="#000000" stroke-width="1" fill="none"></path></g><g transform="translate(2150 443.3333333333333) rotate(0 70 0)"><path d="M111.81 10.26 C120.93 6.94, 130.06 3.62, 140 0 M111.81 10.26 C119.51 7.46, 127.21 4.66, 140 0" stroke="#000000" stroke-width="1" fill="none"></path></g><g transform="translate(2150 443.3333333333333) rotate(0 70 0)"><path d="M111.81 -10.26 C120.93 -6.94, 130.06 -3.62, 140 0 M111.81 -10.26 C119.51 -7.46, 127.21 -4.66, 140 0" stroke="#000000" stroke-width="1" fill="none"></path></g></g><g stroke-linecap="round"><g transform="translate(1510 563.3333333333333) rotate(0 70 0)"><path d="M0 0 C23.33 0, 116.67 0, 140 0 M0 0 C23.33 0, 116.67 0, 140 0" stroke="#000000" stroke-width="1" fill="none"></path></g><g transform="translate(1510 563.3333333333333) rotate(0 70 0)"><path d="M111.81 10.26 C121.43 6.76, 131.06 3.25, 140 0 M111.81 10.26 C122.23 6.47, 132.65 2.67, 140 0" stroke="#000000" stroke-width="1" fill="none"></path></g><g transform="translate(1510 563.3333333333333) rotate(0 70 0)"><path d="M111.81 -10.26 C121.43 -6.76, 131.06 -3.25, 140 0 M111.81 -10.26 C122.23 -6.47, 132.65 -2.67, 140 0" stroke="#000000" stroke-width="1" fill="none"></path></g></g><g stroke-linecap="round"><g transform="translate(2470 563.3333333333333) rotate(0 70 0)"><path d="M0 0 C23.33 0, 116.67 0, 140 0 M0 0 C23.33 0, 116.67 0, 140 0" stroke="#000000" stroke-width="1" fill="none"></path></g><g transform="translate(2470 563.3333333333333) rotate(0 70 0)"><path d="M111.81 10.26 C122.78 6.27, 133.75 2.28, 140 0 M111.81 10.26 C118.28 7.91, 124.75 5.55, 140 0" stroke="#000000" stroke-width="1" fill="none"></path></g><g transform="translate(2470 563.3333333333333) rotate(0 70 0)"><path d="M111.81 -10.26 C122.78 -6.27, 133.75 -2.28, 140 0 M111.81 -10.26 C118.28 -7.91, 124.75 -5.55, 140 0" stroke="#000000" stroke-width="1" fill="none"></path></g></g><g stroke-linecap="round"><g transform="translate(3070 563.3333333333333) rotate(0 70 0)"><path d="M0 0 C23.33 0, 116.67 0, 140 0 M0 0 C23.33 0, 116.67 0, 140 0" stroke="#000000" stroke-width="1" fill="none"></path></g><g transform="translate(3070 563.3333333333333) rotate(0 70 0)"><path d="M111.81 10.26 C121.16 6.86, 130.51 3.46, 140 0 M111.81 10.26 C118.23 7.92, 124.65 5.59, 140 0" stroke="#000000" stroke-width="1" fill="none"></path></g><g transform="translate(3070 563.3333333333333) rotate(0 70 0)"><path d="M111.81 -10.26 C121.16 -6.86, 130.51 -3.46, 140 0 M111.81 -10.26 C118.23 -7.92, 124.65 -5.59, 140 0" stroke="#000000" stroke-width="1" fill="none"></path></g></g><g stroke-linecap="round"><g transform="translate(1191 563.3333333333333) rotate(0 68.5 0)"><path d="M0 0 C22.83 0, 114.17 0, 137 0 M0 0 C22.83 0, 114.17 0, 137 0" stroke="#000000" stroke-width="1" fill="none"></path></g><g transform="translate(1191 563.3333333333333) rotate(0 68.5 0)"><path d="M108.81 10.26 C117.84 6.97, 126.88 3.68, 137 0 M108.81 10.26 C116.08 7.62, 123.34 4.97, 137 0" stroke="#000000" stroke-width="1" fill="none"></path></g><g transform="translate(1191 563.3333333333333) rotate(0 68.5 0)"><path d="M108.81 -10.26 C117.84 -6.97, 126.88 -3.68, 137 0 M108.81 -10.26 C116.08 -7.62, 123.34 -4.97, 137 0" stroke="#000000" stroke-width="1" fill="none"></path></g></g><g stroke-linecap="round"><g transform="translate(1511 544.5670684238369) rotate(0 69 -96.45043848603018)"><path d="M0 0 C23 -32.15, 115 -160.75, 138 -192.9 M0 0 C23 -32.15, 115 -160.75, 138 -192.9" stroke="#000000" stroke-width="1" fill="none"></path></g><g transform="translate(1511 544.5670684238369) rotate(0 69 -96.45043848603018)"><path d="M129.94 -164 C131.65 -170.11, 133.35 -176.22, 138 -192.9 M129.94 -164 C132.45 -173, 134.96 -181.99, 138 -192.9" stroke="#000000" stroke-width="1" fill="none"></path></g><g transform="translate(1511 544.5670684238369) rotate(0 69 -96.45043848603018)"><path d="M113.25 -175.94 C118.48 -179.53, 123.71 -183.11, 138 -192.9 M113.25 -175.94 C120.96 -181.22, 128.66 -186.5, 138 -192.9" stroke="#000000" stroke-width="1" fill="none"></path></g></g><g stroke-linecap="round"><g transform="translate(1649 765.7687420049995) rotate(180 -69 -96.99615350109246)"><path d="M0 0 C-23 -32.33, -115 -161.66, -138 -193.99 M0 0 C-23 -32.33, -115 -161.66, -138 -193.99" stroke="#000000" stroke-width="1" fill="none"></path></g><g transform="translate(1649 765.7687420049995) rotate(180 -69 -96.99615350109246)"><path d="M-113.3 -176.97 C-120.47 -181.91, -127.64 -186.85, -138 -193.99 M-113.3 -176.97 C-122.5 -183.31, -131.7 -189.65, -138 -193.99" stroke="#000000" stroke-width="1" fill="none"></path></g><g transform="translate(1649 765.7687420049995) rotate(180 -69 -96.99615350109246)"><path d="M-130.02 -165.07 C-132.34 -173.47, -134.65 -181.86, -138 -193.99 M-130.02 -165.07 C-132.99 -175.85, -135.97 -186.62, -138 -193.99" stroke="#000000" stroke-width="1" fill="none"></path></g></g><g stroke-linecap="round"><g transform="translate(1830 343.3333333333333) rotate(0 70 40)"><path d="M0 0 C23.33 13.33, 116.67 66.67, 140 80 M0 0 C23.33 13.33, 116.67 66.67, 140 80" stroke="#000000" stroke-width="1" fill="none"></path></g><g transform="translate(1830 343.3333333333333) rotate(0 70 40)"><path d="M110.43 74.92 C118.79 76.36, 127.15 77.79, 140 80 M110.43 74.92 C118.21 76.26, 126 77.59, 140 80" stroke="#000000" stroke-width="1" fill="none"></path></g><g transform="translate(1830 343.3333333333333) rotate(0 70 40)"><path d="M120.61 57.1 C126.09 63.58, 131.57 70.05, 140 80 M120.61 57.1 C125.72 63.13, 130.82 69.16, 140 80" stroke="#000000" stroke-width="1" fill="none"></path></g></g><g stroke-linecap="round"><g transform="translate(1830 563.3333333333333) rotate(0 70 -50)"><path d="M0 0 C23.33 -16.67, 116.67 -83.33, 140 -100 M0 0 C23.33 -16.67, 116.67 -83.33, 140 -100" stroke="#000000" stroke-width="1" fill="none"></path></g><g transform="translate(1830 563.3333333333333) rotate(0 70 -50)"><path d="M123.02 -75.27 C128.3 -82.95, 133.57 -90.63, 140 -100 M123.02 -75.27 C129.16 -84.21, 135.3 -93.15, 140 -100" stroke="#000000" stroke-width="1" fill="none"></path></g><g transform="translate(1830 563.3333333333333) rotate(0 70 -50)"><path d="M111.1 -91.96 C120.07 -94.46, 129.05 -96.96, 140 -100 M111.1 -91.96 C121.55 -94.87, 132 -97.77, 140 -100" stroke="#000000" stroke-width="1" fill="none"></path></g></g><g transform="translate(55 546.8333333333333) rotate(0 225 16.5)"><text x="225" y="25" font-family="Helvetica, Segoe UI Emoji" font-size="28px" fill="#000f" text-anchor="middle" style="white-space: pre;" direction="ltr">Scrape Data</text></g><g transform="translate(2615 546.8333333333333) rotate(0 225 16.5)"><text x="225" y="25" font-family="Helvetica, Segoe UI Emoji" font-size="28px" fill="#000f" text-anchor="middle" style="white-space: pre;" direction="ltr">Train ML Model</text></g><g transform="translate(3215 546.8333333333333) rotate(0 225 16.5)"><text x="225" y="25" font-family="Helvetica, Segoe UI Emoji" font-size="28px" fill="#000f" text-anchor="middle" style="white-space: pre;" direction="ltr">Evaluate ML Model</text></g><g transform="translate(1750 29.474205507592558) rotate(0 119 16.5)"><text x="0" y="25" font-family="Helvetica, Segoe UI Emoji" font-size="28px" fill="#000f" text-anchor="start" style="white-space: pre;" direction="ltr">Orchestrating DAG</text></g></svg>