<?xml version="1.0" encoding="UTF-8" standalone="no"?>
<!--
 Licensed to the Apache Software Foundation (ASF) under one
 or more contributor license agreements.  See the NOTICE file
 distributed with this work for additional information
 regarding copyright ownership.  The ASF licenses this file
 to you under the Apache License, Version 2.0 (the
 "License"); you may not use this file except in compliance
 with the License.  You may obtain a copy of the License at

   http://www.apache.org/licenses/LICENSE-2.0

 Unless required by applicable law or agreed to in writing,
 software distributed under the License is distributed on an
 "AS IS" BASIS, WITHOUT WARRANTIES OR CONDITIONS OF ANY
 KIND, either express or implied.  See the License for the
 specific language governing permissions and limitations
 under the License.
-->
<svg
   xmlns:dc="http://purl.org/dc/elements/1.1/"
   xmlns:cc="http://creativecommons.org/ns#"
   xmlns:rdf="http://www.w3.org/1999/02/22-rdf-syntax-ns#"
   xmlns:svg="http://www.w3.org/2000/svg"
   xmlns="http://www.w3.org/2000/svg"
   xmlns:sodipodi="http://sodipodi.sourceforge.net/DTD/sodipodi-0.dtd"
   xmlns:inkscape="http://www.inkscape.org/namespaces/inkscape"
   inkscape:version="1.0 (4035a4fb49, 2020-05-01)"
   height="241.89746"
   width="776.61823"
   sodipodi:docname="SplittableDoFn 2020 Blog.svg"
   id="svg121"
   stroke-miterlimit="10"
   stroke-linecap="square"
   stroke="none"
   fill="none"
   viewBox="0 0 776.61823 241.89746"
   version="1.1">
  <metadata
     id="metadata127">
    <rdf:RDF>
      <cc:Work
         rdf:about="">
        <dc:format>image/svg+xml</dc:format>
        <dc:type
           rdf:resource="http://purl.org/dc/dcmitype/StillImage" />
      </cc:Work>
    </rdf:RDF>
  </metadata>
  <defs
     id="defs125" />
  <sodipodi:namedview
     inkscape:current-layer="svg121"
     inkscape:window-maximized="1"
     inkscape:window-y="0"
     inkscape:window-x="0"
     inkscape:cy="480"
     inkscape:cx="513.17521"
     inkscape:zoom="1.0210937"
     showgrid="false"
     id="namedview123"
     inkscape:window-height="1246"
     inkscape:window-width="2560"
     inkscape:pageshadow="2"
     inkscape:pageopacity="0"
     guidetolerance="10"
     gridtolerance="10"
     objecttolerance="10"
     borderopacity="1"
     bordercolor="#666666"
     pagecolor="#ffffff" />
  <clipPath
     id="p.0">
    <path
       id="path2"
       clip-rule="nonzero"
       d="M 0,0 H 1280 V 960 H 0 Z" />
  </clipPath>
  <g
     id="g119"
     clip-path="url(#p.0)">
    <path
       id="path5"
       fill-rule="evenodd"
       d="M 0,0 H 1280 V 960 H 0 Z"
       fill-opacity="0"
       fill="#000000" />
    <path
       id="path7"
       fill-rule="evenodd"
       d="m 46.39895,43.145138 v 0 C 46.39895,21.566464 63.891923,4.07349 85.470598,4.07349 H 696.9336 c 10.36242,0 20.30047,4.116465 27.62781,11.443821 7.32739,7.327356 11.44384,17.26538 11.44384,27.627827 V 199.42704 c 0,21.57867 -17.49298,39.07164 -39.07165,39.07164 H 85.470599 c -21.578674,0 -39.071648,-17.49297 -39.071648,-39.07164 z"
       fill-opacity="0"
       fill="#000000" />
    <path
       id="path9"
       fill-rule="evenodd"
       d="m 46.39895,43.145138 v 0 C 46.39895,21.566464 63.891923,4.07349 85.470598,4.07349 H 696.9336 c 10.36242,0 20.30047,4.116465 27.62781,11.443821 7.32739,7.327356 11.44384,17.26538 11.44384,27.627827 V 199.42704 c 0,21.57867 -17.49298,39.07164 -39.07165,39.07164 H 85.470599 c -21.578674,0 -39.071648,-17.49297 -39.071648,-39.07164 z"
       stroke-linecap="butt"
       stroke-linejoin="round"
       stroke-width="2"
       stroke="#b7b7b7" />
    <path
       id="path11"
       fill-rule="evenodd"
       d="m 72,87.2021 h 112 v 78.99213 H 72 Z"
       fill="#ff9900" />
    <path
       id="path13"
       fill-rule="nonzero"
       d="m 90.46094,109.10504 v 4.45313 h -1.5 v -11.375 h 4.1875 q 1.875,0 2.921875,0.95312 1.0625,0.95313 1.0625,2.51563 0,1.65625 -1.03125,2.5625 -1.03125,0.89062 -2.96875,0.89062 z m 0,-1.23437 h 2.6875 q 1.203125,0 1.84375,-0.5625 0.640625,-0.5625 0.640625,-1.64063 0,-1.01562 -0.640625,-1.625 -0.640625,-0.60937 -1.75,-0.625 h -2.78125 z m 13.49219,5.6875 q -0.125,-0.25 -0.20313,-0.89063 -1,1.04688 -2.40625,1.04688 -1.25,0 -2.046873,-0.70313 -0.796875,-0.71875 -0.796875,-1.79687 0,-1.32813 1,-2.04688 0.999998,-0.73437 2.828128,-0.73437 h 1.40625 v -0.67188 q 0,-0.75 -0.45313,-1.20312 -0.45312,-0.45313 -1.34375,-0.45313 -0.76562,0 -1.29687,0.39063 -0.51563,0.39062 -0.51563,0.95312 h -1.453123 q 0,-0.64062 0.4375,-1.21875 0.453125,-0.59375 1.218753,-0.9375 0.78125,-0.34375 1.70312,-0.34375 1.45313,0 2.28125,0.73438 0.82813,0.71875 0.85938,2 v 3.89062 q 0,1.17188 0.29687,1.85938 v 0.125 z m -2.39063,-1.10938 q 0.67188,0 1.28125,-0.34375 0.60938,-0.35937 0.89063,-0.92187 v -1.73438 h -1.14063 q -2.656248,0 -2.656248,1.5625 0,0.67188 0.453128,1.0625 0.45312,0.375 1.17187,0.375 z m 7.45313,1.10938 h -1.45313 v -8.45313 h 1.45313 z m -1.5625,-10.70313 q 0,-0.34375 0.20312,-0.57812 0.21875,-0.25 0.64063,-0.25 0.42187,0 0.64062,0.25 0.21875,0.23437 0.21875,0.59375 0,0.34375 -0.21875,0.57812 -0.21875,0.23438 -0.64062,0.23438 -0.42188,0 -0.64063,-0.23438 -0.20312,-0.23437 -0.20312,-0.59375 z m 7.96093,3.54688 q -0.32812,-0.0625 -0.71875,-0.0625 -1.42187,0 -1.92187,1.21875 v 6 h -1.45313 v -8.45313 h 1.40625 l 0.0312,0.96875 q 0.70313,-1.125 2.01563,-1.125 0.42187,0 0.64062,0.10938 z m 8.79688,7.3125 q -1.71875,0 -2.79688,-1.125 -1.07812,-1.14063 -1.07812,-3.03125 v -0.26563 q 0,-1.25 0.46875,-2.23437 0.48437,-1 1.34375,-1.54688 0.875,-0.5625 1.875,-0.5625 1.65625,0 2.5625,1.09375 0.92187,1.07813 0.92187,3.09375 v 0.60938 h -5.73437 q 0.0312,1.25 0.73437,2.01562 0.70313,0.76563 1.78125,0.76563 0.76563,0 1.29688,-0.3125 0.53125,-0.3125 0.92187,-0.82813 l 0.89063,0.6875 q -1.0625,1.64063 -3.1875,1.64063 z m -0.1875,-7.57813 q -0.875,0 -1.46875,0.64063 -0.59375,0.625 -0.73438,1.78125 h 4.23438 v -0.10938 q -0.0625,-1.10937 -0.59375,-1.70312 -0.53125,-0.60938 -1.4375,-0.60938 z m 10.36719,7.42188 q -0.125,-0.25 -0.20313,-0.89063 -1,1.04688 -2.40625,1.04688 -1.25,0 -2.04687,-0.70313 -0.79688,-0.71875 -0.79688,-1.79687 0,-1.32813 1,-2.04688 1,-0.73437 2.82813,-0.73437 h 1.40625 v -0.67188 q 0,-0.75 -0.45313,-1.20312 -0.45312,-0.45313 -1.34375,-0.45313 -0.76562,0 -1.29687,0.39063 -0.51563,0.39062 -0.51563,0.95312 h -1.45312 q 0,-0.64062 0.4375,-1.21875 0.45312,-0.59375 1.21875,-0.9375 0.78125,-0.34375 1.70312,-0.34375 1.45313,0 2.28125,0.73438 0.82813,0.71875 0.85938,2 v 3.89062 q 0,1.17188 0.29687,1.85938 v 0.125 z M 132,112.44879 q 0.67188,0 1.28125,-0.34375 0.60938,-0.35937 0.89063,-0.92187 v -1.73438 h -1.14063 q -2.65625,0 -2.65625,1.5625 0,0.67188 0.45313,1.0625 0.45312,0.375 1.17187,0.375 z m 9.26563,0.0781 q 0.78125,0 1.35937,-0.46875 0.57813,-0.46875 0.64063,-1.17188 h 1.35937 q -0.0312,0.73438 -0.5,1.39063 -0.45312,0.65625 -1.23437,1.04687 -0.76563,0.39063 -1.625,0.39063 -1.71875,0 -2.75,-1.15625 Q 137.5,111.40192 137.5,109.40192 v -0.23438 q 0,-1.23437 0.45313,-2.1875 0.45312,-0.96875 1.29687,-1.5 0.85938,-0.53125 2.01563,-0.53125 1.42187,0 2.35937,0.85938 0.9375,0.84375 1,2.20312 h -1.35937 q -0.0625,-0.82812 -0.625,-1.34375 -0.5625,-0.53125 -1.375,-0.53125 -1.10938,0 -1.71875,0.79688 -0.59375,0.78125 -0.59375,2.28125 v 0.28125 q 0,1.45312 0.59375,2.25 0.60937,0.78125 1.71875,0.78125 z m 6.4375,-6.40625 q 0.95312,-1.17188 2.5,-1.17188 2.67187,0 2.70312,3.01563 v 5.59375 h -1.45312 v -5.59375 q 0,-0.92188 -0.42188,-1.35938 -0.40625,-0.4375 -1.26562,-0.4375 -0.70313,0 -1.23438,0.375 -0.53125,0.375 -0.82812,0.98438 v 6.03125 H 146.25 v -12 h 1.45313 z m 17.83594,4.46875 h -4.76563 l -1.07812,2.96875 h -1.54688 l 4.34375,-11.375 h 1.3125 l 4.35938,11.375 h -1.54688 z m -4.3125,-1.23438 h 3.85937 l -1.9375,-5.32812 z"
       fill="#ffffff" />
    <path
       id="path15"
       fill-rule="nonzero"
       d="m 100.48047,130.55817 1.625,-6.45313 h 1.45312 l -2.46875,8.45313 h -1.17187 l -2.046875,-6.40625 -2,6.40625 H 94.69922 l -2.453125,-8.45313 h 1.4375 l 1.65625,6.32813 1.96875,-6.32813 h 1.171875 z m 6.11719,2 h -1.45313 v -8.45313 h 1.45313 z m -1.5625,-10.70313 q 0,-0.34375 0.20312,-0.57812 0.21875,-0.25 0.64063,-0.25 0.42187,0 0.64062,0.25 0.21875,0.23437 0.21875,0.59375 0,0.34375 -0.21875,0.57812 -0.21875,0.23438 -0.64062,0.23438 -0.42188,0 -0.64063,-0.23438 -0.20312,-0.23437 -0.20312,-0.59375 z m 5.83593,0.20313 v 2.04687 h 1.57813 v 1.10938 h -1.57813 v 5.25 q 0,0.5 0.20313,0.76562 0.21875,0.25 0.71875,0.25 0.25,0 0.6875,-0.0937 v 1.17188 q -0.5625,0.15625 -1.10938,0.15625 -0.96875,0 -1.46875,-0.57813 -0.48437,-0.59375 -0.48437,-1.67187 v -5.25 h -1.53125 v -1.10938 h 1.53125 v -2.04687 z m 4.71094,3.0625 q 0.95313,-1.17188 2.5,-1.17188 2.67188,0 2.70313,3.01563 v 5.59375 h -1.45313 v -5.59375 q 0,-0.92188 -0.42187,-1.35938 -0.40625,-0.4375 -1.26563,-0.4375 -0.70312,0 -1.23437,0.375 -0.53125,0.375 -0.82813,0.98438 v 6.03125 h -1.45312 v -12 h 1.45312 z m 12.89844,7.4375 h -1.45313 v -8.45313 h 1.45313 z m -1.5625,-10.70313 q 0,-0.34375 0.20312,-0.57812 0.21875,-0.25 0.64063,-0.25 0.42187,0 0.64062,0.25 0.21875,0.23437 0.21875,0.59375 0,0.34375 -0.21875,0.57812 -0.21875,0.23438 -0.64062,0.23438 -0.42188,0 -0.64063,-0.23438 -0.20312,-0.23437 -0.20312,-0.59375 z m 5.24219,2.25 0.0469,1.0625 q 0.96875,-1.21875 2.53125,-1.21875 2.67188,0 2.70313,3.01563 v 5.59375 h -1.45313 v -5.59375 q 0,-0.92188 -0.42187,-1.35938 -0.40625,-0.4375 -1.26563,-0.4375 -0.70312,0 -1.23437,0.375 -0.53125,0.375 -0.82813,0.98438 v 6.03125 h -1.45312 v -8.45313 z m 9.03125,8.45313 h -1.45313 v -8.45313 h 1.45313 z m -1.5625,-10.70313 q 0,-0.34375 0.20312,-0.57812 0.21875,-0.25 0.64063,-0.25 0.42187,0 0.64062,0.25 0.21875,0.23437 0.21875,0.59375 0,0.34375 -0.21875,0.57812 -0.21875,0.23438 -0.64062,0.23438 -0.42188,0 -0.64063,-0.23438 -0.20312,-0.23437 -0.20312,-0.59375 z m 5.83593,0.20313 v 2.04687 h 1.57813 v 1.10938 h -1.57813 v 5.25 q 0,0.5 0.20313,0.76562 0.21875,0.25 0.71875,0.25 0.25,0 0.6875,-0.0937 v 1.17188 q -0.5625,0.15625 -1.10938,0.15625 -0.96875,0 -1.46875,-0.57813 -0.48437,-0.59375 -0.48437,-1.67187 v -5.25 h -1.53125 v -1.10938 h 1.53125 v -2.04687 z m 4.83594,10.5 h -1.45312 v -8.45313 h 1.45312 z m -1.5625,-10.70313 q 0,-0.34375 0.20313,-0.57812 0.21875,-0.25 0.64062,-0.25 0.42188,0 0.64063,0.25 0.21875,0.23437 0.21875,0.59375 0,0.34375 -0.21875,0.57812 -0.21875,0.23438 -0.64063,0.23438 -0.42187,0 -0.64062,-0.23438 -0.20313,-0.23437 -0.20313,-0.59375 z m 9.08594,10.70313 q -0.125,-0.25 -0.20313,-0.89063 -1,1.04688 -2.40625,1.04688 -1.25,0 -2.04687,-0.70313 -0.79688,-0.71875 -0.79688,-1.79687 0,-1.32813 1,-2.04688 1,-0.73437 2.82813,-0.73437 h 1.40625 v -0.67188 q 0,-0.75 -0.45313,-1.20312 -0.45312,-0.45313 -1.34375,-0.45313 -0.76562,0 -1.29687,0.39063 -0.51563,0.39062 -0.51563,0.95312 h -1.45312 q 0,-0.64062 0.4375,-1.21875 0.45312,-0.59375 1.21875,-0.9375 0.78125,-0.34375 1.70312,-0.34375 1.45313,0 2.28125,0.73438 0.82813,0.71875 0.85938,2 v 3.89062 q 0,1.17188 0.29687,1.85938 v 0.125 z m -2.39063,-1.10938 q 0.67188,0 1.28125,-0.34375 0.60938,-0.35937 0.89063,-0.92187 v -1.73438 h -1.14063 q -2.65625,0 -2.65625,1.5625 0,0.67188 0.45313,1.0625 0.45312,0.375 1.17187,0.375 z m 7.45313,1.10938 h -1.45313 v -12 h 1.45313 z"
       fill="#ffffff" />
    <path
       id="path17"
       fill-rule="nonzero"
       d="m 90.30469,144.40192 q -0.328125,-0.0625 -0.71875,-0.0625 -1.421875,0 -1.921875,1.21875 v 6 H 86.21094 v -8.45313 h 1.40625 l 0.03125,0.96875 q 0.703125,-1.125 2.015625,-1.125 0.421875,0 0.640625,0.10938 z m 4.6875,7.3125 q -1.71875,0 -2.796875,-1.125 -1.078125,-1.14063 -1.078125,-3.03125 v -0.26563 q 0,-1.25 0.46875,-2.23437 0.484375,-1 1.34375,-1.54688 0.875,-0.5625 1.875,-0.5625 1.65625,0 2.5625,1.09375 0.921875,1.07813 0.921875,3.09375 v 0.60938 H 92.55469 q 0.03125,1.25 0.734375,2.01562 0.703125,0.76563 1.78125,0.76563 0.765625,0 1.296875,-0.3125 0.53125,-0.3125 0.921875,-0.82813 l 0.890625,0.6875 q -1.0625,1.64063 -3.1875,1.64063 z m -0.1875,-7.57813 q -0.875,0 -1.46875,0.64063 -0.59375,0.625 -0.734375,1.78125 h 4.234375 v -0.10938 q -0.0625,-1.10937 -0.59375,-1.70312 -0.53125,-0.60938 -1.4375,-0.60938 z m 10.07031,5.17188 q 0,-0.57813 -0.4375,-0.90625 -0.4375,-0.32813 -1.54687,-0.5625 -1.09375,-0.23438 -1.73438,-0.5625 -0.64062,-0.32813 -0.95312,-0.78125 -0.312503,-0.45313 -0.312503,-1.07813 0,-1.03125 0.875003,-1.75 0.89062,-0.71875 2.25,-0.71875 1.4375,0 2.32812,0.75 0.90625,0.73438 0.90625,1.89063 h -1.45312 q 0,-0.59375 -0.51563,-1.01563 -0.5,-0.4375 -1.26562,-0.4375 -0.78125,0 -1.23438,0.34375 -0.4375,0.34375 -0.4375,0.89063 0,0.53125 0.40625,0.79687 0.42188,0.26563 1.5,0.51563 1.07813,0.23437 1.75,0.57812 0.67188,0.32813 1,0.79688 0.32813,0.46875 0.32813,1.15625 0,1.125 -0.90625,1.8125 -0.90625,0.6875 -2.35938,0.6875 -1.01562,0 -1.79687,-0.35938 -0.78125,-0.35937 -1.21875,-1 -0.437503,-0.65625 -0.437503,-1.40625 h 1.437503 q 0.0469,0.73438 0.57812,1.15625 0.54688,0.42188 1.4375,0.42188 0.82813,0 1.3125,-0.32813 0.5,-0.32812 0.5,-0.89062 z m 5.29688,-8.25 v 2.04687 H 111.75 v 1.10938 h -1.57812 v 5.25 q 0,0.5 0.20312,0.76562 0.21875,0.25 0.71875,0.25 0.25,0 0.6875,-0.0937 v 1.17188 q -0.5625,0.15625 -1.10937,0.15625 -0.96875,0 -1.46875,-0.57813 -0.48438,-0.59375 -0.48438,-1.67187 v -5.25 h -1.53125 v -1.10938 h 1.53125 v -2.04687 z m 7.35156,3.34375 q -0.32813,-0.0625 -0.71875,-0.0625 -1.42188,0 -1.92188,1.21875 v 6 h -1.45312 v -8.45313 h 1.40625 l 0.0312,0.96875 q 0.70312,-1.125 2.01562,-1.125 0.42188,0 0.64063,0.10938 z m 2.89844,7.15625 h -1.45313 v -8.45313 h 1.45313 z m -1.5625,-10.70313 q 0,-0.34375 0.20312,-0.57812 0.21875,-0.25 0.64063,-0.25 0.42187,0 0.64062,0.25 0.21875,0.23437 0.21875,0.59375 0,0.34375 -0.21875,0.57812 -0.21875,0.23438 -0.64062,0.23438 -0.42188,0 -0.64063,-0.23438 -0.20312,-0.23437 -0.20312,-0.59375 z m 7.25781,9.67188 q 0.78125,0 1.35937,-0.46875 0.57813,-0.46875 0.64063,-1.17188 h 1.35937 q -0.0312,0.73438 -0.5,1.39063 -0.45312,0.65625 -1.23437,1.04687 -0.76563,0.39063 -1.625,0.39063 -1.71875,0 -2.75,-1.15625 -1.01563,-1.15625 -1.01563,-3.15625 v -0.23438 q 0,-1.23437 0.45313,-2.1875 0.45312,-0.96875 1.29687,-1.5 0.85938,-0.53125 2.01563,-0.53125 1.42187,0 2.35937,0.85938 0.9375,0.84375 1,2.20312 h -1.35937 q -0.0625,-0.82812 -0.625,-1.34375 -0.5625,-0.53125 -1.375,-0.53125 -1.10938,0 -1.71875,0.79688 -0.59375,0.78125 -0.59375,2.28125 v 0.28125 q 0,1.45312 0.59375,2.25 0.60937,0.78125 1.71875,0.78125 z m 6.95312,-9.46875 v 2.04687 h 1.57813 v 1.10938 h -1.57813 v 5.25 q 0,0.5 0.20313,0.76562 0.21875,0.25 0.71875,0.25 0.25,0 0.6875,-0.0937 v 1.17188 q -0.5625,0.15625 -1.10938,0.15625 -0.96875,0 -1.46875,-0.57813 -0.48437,-0.59375 -0.48437,-1.67187 v -5.25 h -1.53125 v -1.10938 h 1.53125 v -2.04687 z m 4.83594,10.5 h -1.45312 v -8.45313 h 1.45312 z m -1.5625,-10.70313 q 0,-0.34375 0.20313,-0.57812 0.21875,-0.25 0.64062,-0.25 0.42188,0 0.64063,0.25 0.21875,0.23437 0.21875,0.59375 0,0.34375 -0.21875,0.57812 -0.21875,0.23438 -0.64063,0.23438 -0.42187,0 -0.64062,-0.23438 -0.20313,-0.23437 -0.20313,-0.59375 z m 3.49219,6.39063 q 0,-1.23438 0.48437,-2.21875 0.48438,-1 1.35938,-1.53125 0.875,-0.54688 1.98437,-0.54688 1.73438,0 2.79688,1.20313 1.0625,1.1875 1.0625,3.17187 v 0.0937 q 0,1.23438 -0.46875,2.21875 -0.46875,0.98438 -1.35938,1.53125 -0.875,0.54688 -2.01562,0.54688 -1.71875,0 -2.78125,-1.1875 -1.0625,-1.20313 -1.0625,-3.17188 z m 1.45312,0.17187 q 0,1.40625 0.64063,2.26563 0.65625,0.84375 1.75,0.84375 1.10937,0 1.75,-0.85938 0.65625,-0.85937 0.65625,-2.42187 0,-1.39063 -0.67188,-2.25 -0.65625,-0.85938 -1.75,-0.85938 -1.0625,0 -1.71875,0.85938 -0.65625,0.84375 -0.65625,2.42187 z m 9.42188,-4.3125 0.0469,1.0625 q 0.96875,-1.21875 2.53125,-1.21875 2.67188,0 2.70313,3.01563 v 5.59375 h -1.45313 v -5.59375 q 0,-0.92188 -0.42187,-1.35938 -0.40625,-0.4375 -1.26563,-0.4375 -0.70312,0 -1.23437,0.375 -0.53125,0.375 -0.82813,0.98438 v 6.03125 h -1.45312 v -8.45313 z m 15.82031,3.84375 h -2.67187 v 4.60938 h -1.51563 v -11.375 h 3.76563 q 1.92187,0 2.95312,0.875 1.04688,0.875 1.04688,2.54687 0,1.0625 -0.57813,1.85938 -0.57812,0.78125 -1.59375,1.17187 l 2.67188,4.82813 v 0.0937 H 169 Z m -2.67187,-1.21875 h 2.29687 q 1.125,0 1.78125,-0.57812 0.65625,-0.57813 0.65625,-1.54688 0,-1.0625 -0.625,-1.625 -0.625,-0.5625 -1.8125,-0.5625 h -2.29687 z"
       fill="#ffffff" />
    <path
       id="path19"
       fill-rule="evenodd"
       d="M 0,126.53281 H 72"
       fill-opacity="0"
       fill="#000000" />
    <path
       id="path21"
       fill-rule="evenodd"
       d="M 0,126.53281 H 65.14583"
       stroke-linecap="butt"
       stroke-linejoin="round"
       stroke-width="2"
       stroke="#4a86e8" />
    <path
       id="path23"
       fill-rule="evenodd"
       d="m 65.14583,126.53281 -2.249168,2.24918 6.179535,-2.24918 -6.179535,-2.24917 z"
       stroke-linecap="butt"
       stroke-width="2"
       stroke="#4a86e8"
       fill="#4a86e8" />
    <path
       id="path25"
       fill-rule="evenodd"
       d="m 16,94.2021 h 40 v 63.33858 H 16 Z"
       fill-opacity="0"
       fill="#000000" />
    <path
       id="path27"
       fill-rule="nonzero"
       d="M 33.71875,118.5621 H 32.203125 L 31.5,116.32773 h -4.25 l -0.71875,2.23437 H 25.078125 L 28.46875,108.34335 H 30.375 Z m -2.625,-3.46875 -1.71875,-5.46875 -1.734375,5.46875 z"
       fill="#000000" />
    <path
       id="path29"
       fill-rule="evenodd"
       d="m 184,126.69817 h 96"
       fill-opacity="0"
       fill="#000000" />
    <path
       id="path31"
       fill-rule="evenodd"
       d="m 184,126.69817 h 89.14584"
       stroke-linecap="butt"
       stroke-linejoin="round"
       stroke-width="2"
       stroke="#4a86e8" />
    <path
       id="path33"
       fill-rule="evenodd"
       d="m 273.1458,126.69817 -2.24915,2.24916 6.17954,-2.24916 -6.17954,-2.24917 z"
       stroke-linecap="butt"
       stroke-width="2"
       stroke="#4a86e8"
       fill="#4a86e8" />
    <path
       id="path35"
       fill-rule="evenodd"
       d="m 184,94.2021 h 104 v 31.33858 H 184 Z"
       fill-opacity="0"
       fill="#000000" />
    <path
       id="path37"
       fill-rule="nonzero"
       d="m 201.1875,118.5621 h -1.75 l -3.82813,-5.01562 v 5.01562 h -1.39062 v -10.21875 h 1.39062 v 4.75 l 3.75,-4.75 H 201 l -4.03125,4.85938 z m 9.375,-10.21875 -3.46875,10.21875 h -1.875 l -3.39063,-10.21875 h 1.57813 l 2.20312,6.89063 0.625,2.01562 0.64063,-2.01562 2.20312,-6.89063 z m 7.20312,9.48438 -0.84375,0.85937 -5.25,-4.39062 5.25,-4.375 0.84375,0.85937 -4.25,3.5 z m 10.34375,0.73437 h -1.51562 l -0.70313,-2.23437 h -4.25 l -0.71875,2.23437 h -1.45312 l 3.39062,-10.21875 h 1.90625 z m -2.625,-3.46875 -1.71875,-5.46875 -1.73437,5.46875 z m 4.5625,5.07813 q 0.40625,0.0156 0.78125,-0.0781 0.375,-0.0781 0.65625,-0.25 0.28125,-0.17187 0.45313,-0.42187 0.17187,-0.25 0.17187,-0.5625 0,-0.34375 -0.10937,-0.54688 -0.10938,-0.20312 -0.25,-0.375 -0.14063,-0.17187 -0.26563,-0.35937 -0.10937,-0.20313 -0.10937,-0.53125 0,-0.15625 0.0625,-0.32813 0.0625,-0.1875 0.1875,-0.32812 0.14062,-0.15625 0.32812,-0.25 0.20313,-0.0937 0.48438,-0.0937 0.26562,0 0.51562,0.10937 0.26563,0.10938 0.45313,0.34375 0.1875,0.23438 0.29687,0.59375 0.125,0.34375 0.125,0.82813 0,0.65625 -0.25,1.25 -0.23437,0.59375 -0.70312,1.04687 -0.46875,0.46875 -1.1875,0.73438 -0.70313,0.28125 -1.64063,0.28125 z M 254,118.5621 h -1.57813 l -1.51562,-3.26562 q -0.17188,-0.375 -0.35938,-0.625 -0.17187,-0.25 -0.39062,-0.39063 -0.20313,-0.14062 -0.45313,-0.20312 -0.23437,-0.0625 -0.54687,-0.0625 H 248.5 v 4.54687 h -1.39063 v -10.21875 h 2.73438 q 0.89062,0 1.53125,0.20313 0.64062,0.1875 1.04687,0.54687 0.42188,0.34375 0.60938,0.84375 0.1875,0.5 0.1875,1.09375 0,0.48438 -0.14063,0.90625 -0.14062,0.42188 -0.42187,0.78125 -0.26563,0.34375 -0.6875,0.59375 -0.40625,0.25 -0.9375,0.375 0.4375,0.15625 0.73437,0.53125 0.29688,0.35938 0.60938,0.98438 z m -2.23438,-7.40625 q 0,-0.82812 -0.51562,-1.23437 -0.5,-0.40625 -1.4375,-0.40625 H 248.5 v 3.375 h 1.125 q 0.5,0 0.89062,-0.10938 0.39063,-0.10937 0.67188,-0.32812 0.28125,-0.23438 0.42187,-0.54688 0.15625,-0.32812 0.15625,-0.75 z m 4.45313,-0.375 0.84375,-0.85937 5.25,4.375 -5.25,4.39062 -0.84375,-0.85937 4.25,-3.51563 z"
       fill="#000000" />
    <path
       id="path39"
       fill-rule="evenodd"
       d="m 280,87.2021 h 176 v 78.99213 H 280 Z"
       fill="#ff9900" />
    <path
       id="path41"
       fill-rule="nonzero"
       d="m 330.8711,108.48004 q -1.92187,-0.54687 -2.8125,-1.35937 -0.875,-0.8125 -0.875,-2 0,-1.34375 1.07813,-2.21875 1.07812,-0.875 2.79687,-0.875 1.17188,0 2.07813,0.45312 0.92187,0.45313 1.42187,1.25 0.51563,0.79688 0.51563,1.73438 h -1.51563 q 0,-1.03125 -0.65625,-1.60938 -0.65625,-0.59375 -1.84375,-0.59375 -1.10937,0 -1.73437,0.48438 -0.625,0.48437 -0.625,1.35937 0,0.6875 0.59375,1.17188 0.59375,0.48437 2,0.89062 1.42187,0.39063 2.21875,0.875 0.8125,0.46875 1.1875,1.10938 0.39062,0.64062 0.39062,1.51562 0,1.375 -1.07812,2.21875 -1.07813,0.82813 -2.875,0.82813 -1.17188,0 -2.1875,-0.45313 -1.01563,-0.45312 -1.57813,-1.23437 -0.54687,-0.78125 -0.54687,-1.76563 h 1.51562 q 0,1.03125 0.75,1.625 0.76563,0.59375 2.04688,0.59375 1.1875,0 1.8125,-0.48437 0.64062,-0.48438 0.64062,-1.3125 0,-0.84375 -0.59375,-1.29688 -0.57812,-0.45312 -2.125,-0.90625 z m 13.05469,0.9375 q 0,1.9375 -0.89063,3.125 -0.875,1.17188 -2.375,1.17188 -1.54687,0 -2.42187,-0.98438 v 4.07813 h -1.45313 v -11.70313 h 1.32813 l 0.0625,0.9375 q 0.89062,-1.09375 2.45312,-1.09375 1.53125,0 2.40625,1.15625 0.89063,1.14063 0.89063,3.1875 z m -1.4375,-0.15625 q 0,-1.4375 -0.60938,-2.26562 -0.60937,-0.82813 -1.67187,-0.82813 -1.3125,0 -1.96875,1.17188 v 4.03125 q 0.64062,1.15625 1.98437,1.15625 1.03125,0 1.64063,-0.8125 0.625,-0.82813 0.625,-2.45313 z m 4.85156,4.29688 h -1.45312 v -12 h 1.45312 z m 3.88281,0 h -1.45312 v -8.45313 h 1.45312 z m -1.5625,-10.70313 q 0,-0.34375 0.20313,-0.57812 0.21875,-0.25 0.64062,-0.25 0.42188,0 0.64063,0.25 0.21875,0.23437 0.21875,0.59375 0,0.34375 -0.21875,0.57812 -0.21875,0.23438 -0.64063,0.23438 -0.42187,0 -0.64062,-0.23438 -0.20313,-0.23437 -0.20313,-0.59375 z m 5.83594,0.20313 v 2.04687 h 1.57813 v 1.10938 h -1.57813 v 5.25 q 0,0.5 0.20313,0.76562 0.21875,0.25 0.71875,0.25 0.25,0 0.6875,-0.0937 v 1.17188 q -0.5625,0.15625 -1.10938,0.15625 -0.96875,0 -1.46875,-0.57813 -0.48437,-0.59375 -0.48437,-1.67187 v -5.25 h -1.53125 v -1.10938 h 1.53125 v -2.04687 z m 10.73438,10.65625 q -1.71875,0 -2.79688,-1.125 -1.07812,-1.14063 -1.07812,-3.03125 v -0.26563 q 0,-1.25 0.46875,-2.23437 0.48437,-1 1.34375,-1.54688 0.875,-0.5625 1.875,-0.5625 1.65625,0 2.5625,1.09375 0.92187,1.07813 0.92187,3.09375 v 0.60938 h -5.73437 q 0.0312,1.25 0.73437,2.01562 0.70313,0.76563 1.78125,0.76563 0.76563,0 1.29688,-0.3125 0.53125,-0.3125 0.92187,-0.82813 l 0.89063,0.6875 q -1.0625,1.64063 -3.1875,1.64063 z m -0.1875,-7.57813 q -0.875,0 -1.46875,0.64063 -0.59375,0.625 -0.73438,1.78125 h 4.23438 v -0.10938 q -0.0625,-1.10937 -0.59375,-1.70312 -0.53125,-0.60938 -1.4375,-0.60938 z m 10.36718,7.42188 q -0.125,-0.25 -0.20312,-0.89063 -1,1.04688 -2.40625,1.04688 -1.25,0 -2.04688,-0.70313 -0.79687,-0.71875 -0.79687,-1.79687 0,-1.32813 1,-2.04688 1,-0.73437 2.82812,-0.73437 h 1.40625 v -0.67188 q 0,-0.75 -0.45312,-1.20312 -0.45313,-0.45313 -1.34375,-0.45313 -0.76563,0 -1.29688,0.39063 -0.51562,0.39062 -0.51562,0.95312 h -1.45313 q 0,-0.64062 0.4375,-1.21875 0.45313,-0.59375 1.21875,-0.9375 0.78125,-0.34375 1.70313,-0.34375 1.45312,0 2.28125,0.73438 0.82812,0.71875 0.85937,2 v 3.89062 q 0,1.17188 0.29688,1.85938 v 0.125 z m -2.39062,-1.10938 q 0.67187,0 1.28125,-0.34375 0.60937,-0.35937 0.89062,-0.92187 v -1.73438 h -1.14062 q -2.65625,0 -2.65625,1.5625 0,0.67188 0.45312,1.0625 0.45313,0.375 1.17188,0.375 z m 9.26562,0.0781 q 0.78125,0 1.35938,-0.46875 0.57812,-0.46875 0.64062,-1.17188 h 1.35938 q -0.0312,0.73438 -0.5,1.39063 -0.45313,0.65625 -1.23438,1.04687 -0.76562,0.39063 -1.625,0.39063 -1.71875,0 -2.75,-1.15625 -1.01562,-1.15625 -1.01562,-3.15625 v -0.23438 q 0,-1.23437 0.45312,-2.1875 0.45313,-0.96875 1.29688,-1.5 0.85937,-0.53125 2.01562,-0.53125 1.42188,0 2.35938,0.85938 0.9375,0.84375 1,2.20312 h -1.35938 q -0.0625,-0.82812 -0.625,-1.34375 -0.5625,-0.53125 -1.375,-0.53125 -1.10937,0 -1.71875,0.79688 -0.59375,0.78125 -0.59375,2.28125 v 0.28125 q 0,1.45312 0.59375,2.25 0.60938,0.78125 1.71875,0.78125 z m 6.4375,-6.40625 q 0.95313,-1.17188 2.5,-1.17188 2.67188,0 2.70313,3.01563 v 5.59375 h -1.45313 v -5.59375 q 0,-0.92188 -0.42187,-1.35938 -0.40625,-0.4375 -1.26563,-0.4375 -0.70312,0 -1.23437,0.375 -0.53125,0.375 -0.82813,0.98438 v 6.03125 h -1.45312 v -12 h 1.45312 z m 15.72657,2.82812 h -2.67188 v 4.60938 h -1.51562 v -11.375 h 3.76562 q 1.92188,0 2.95313,0.875 1.04687,0.875 1.04687,2.54687 0,1.0625 -0.57812,1.85938 -0.57813,0.78125 -1.59375,1.17187 l 2.67187,4.82813 v 0.0937 h -1.60937 z m -2.67188,-1.21875 h 2.29688 q 1.125,0 1.78125,-0.57812 0.65625,-0.57813 0.65625,-1.54688 0,-1.0625 -0.625,-1.625 -0.625,-0.5625 -1.8125,-0.5625 h -2.29688 z"
       fill="#ffffff" />
    <path
       id="path43"
       fill-rule="nonzero"
       d="m 326.09766,122.05817 v 2.04688 h 1.57813 v 1.10937 h -1.57813 v 5.25 q 0,0.5 0.20313,0.76563 0.21875,0.25 0.71875,0.25 0.25,0 0.6875,-0.0937 v 1.17187 q -0.5625,0.15625 -1.10938,0.15625 -0.96875,0 -1.46875,-0.57812 -0.48437,-0.59375 -0.48437,-1.67188 v -5.25 h -1.53125 v -1.10937 h 1.53125 v -2.04688 z m 2.72656,6.1875 q 0,-1.23437 0.48438,-2.21875 0.48437,-1 1.35937,-1.53125 0.875,-0.54687 1.98438,-0.54687 1.73437,0 2.79687,1.20312 1.0625,1.1875 1.0625,3.17188 v 0.0937 q 0,1.23437 -0.46875,2.21875 -0.46875,0.98437 -1.35937,1.53125 -0.875,0.54687 -2.01563,0.54687 -1.71875,0 -2.78125,-1.1875 -1.0625,-1.20312 -1.0625,-3.17187 z m 1.45313,0.17188 q 0,1.40625 0.64062,2.26562 0.65625,0.84375 1.75,0.84375 1.10938,0 1.75,-0.85937 0.65625,-0.85938 0.65625,-2.42188 0,-1.39062 -0.67187,-2.25 -0.65625,-0.85937 -1.75,-0.85937 -1.0625,0 -1.71875,0.85937 -0.65625,0.84375 -0.65625,2.42188 z m 19.14844,0 q 0,1.9375 -0.89063,3.125 -0.875,1.17187 -2.375,1.17187 -1.54687,0 -2.42187,-0.98437 v 4.07812 h -1.45313 v -11.70312 h 1.32813 l 0.0625,0.9375 q 0.89062,-1.09375 2.45312,-1.09375 1.53125,0 2.40625,1.15625 0.89063,1.14062 0.89063,3.1875 z m -1.4375,-0.15625 q 0,-1.4375 -0.60938,-2.26563 -0.60937,-0.82812 -1.67187,-0.82812 -1.3125,0 -1.96875,1.17187 v 4.03125 q 0.64062,1.15625 1.98437,1.15625 1.03125,0 1.64063,-0.8125 0.625,-0.82812 0.625,-2.45312 z m 8.49218,4.29687 q -0.125,-0.25 -0.20312,-0.89062 -1,1.04687 -2.40625,1.04687 -1.25,0 -2.04688,-0.70312 -0.79687,-0.71875 -0.79687,-1.79688 0,-1.32812 1,-2.04687 1,-0.73438 2.82812,-0.73438 h 1.40625 v -0.67187 q 0,-0.75 -0.45312,-1.20313 -0.45313,-0.45312 -1.34375,-0.45312 -0.76563,0 -1.29688,0.39062 -0.51562,0.39063 -0.51562,0.95313 h -1.45313 q 0,-0.64063 0.4375,-1.21875 0.45313,-0.59375 1.21875,-0.9375 0.78125,-0.34375 1.70313,-0.34375 1.45312,0 2.28125,0.73437 0.82812,0.71875 0.85937,2 v 3.89063 q 0,1.17187 0.29688,1.85937 v 0.125 z m -2.39062,-1.10937 q 0.67187,0 1.28125,-0.34375 0.60937,-0.35938 0.89062,-0.92188 v -1.73437 h -1.14062 q -2.65625,0 -2.65625,1.5625 0,0.67187 0.45312,1.0625 0.45313,0.375 1.17188,0.375 z m 9.96875,-6.04688 q -0.32813,-0.0625 -0.71875,-0.0625 -1.42188,0 -1.92188,1.21875 v 6 h -1.45312 v -8.45312 h 1.40625 l 0.0312,0.96875 q 0.70312,-1.125 2.01562,-1.125 0.42188,0 0.64063,0.10937 z m 6.22656,7.15625 q -0.125,-0.25 -0.20312,-0.89062 -1,1.04687 -2.40625,1.04687 -1.25,0 -2.04688,-0.70312 -0.79687,-0.71875 -0.79687,-1.79688 0,-1.32812 1,-2.04687 1,-0.73438 2.82812,-0.73438 h 1.40625 v -0.67187 q 0,-0.75 -0.45312,-1.20313 -0.45313,-0.45312 -1.34375,-0.45312 -0.76563,0 -1.29688,0.39062 -0.51562,0.39063 -0.51562,0.95313 h -1.45313 q 0,-0.64063 0.4375,-1.21875 0.45313,-0.59375 1.21875,-0.9375 0.78125,-0.34375 1.70313,-0.34375 1.45312,0 2.28125,0.73437 0.82812,0.71875 0.85937,2 v 3.89063 q 0,1.17187 0.29688,1.85937 v 0.125 z m -2.39062,-1.10937 q 0.67187,0 1.28125,-0.34375 0.60937,-0.35938 0.89062,-0.92188 v -1.73437 h -1.14062 q -2.65625,0 -2.65625,1.5625 0,0.67187 0.45312,1.0625 0.45313,0.375 1.17188,0.375 z m 7.45312,1.10937 h -1.45312 v -12 h 1.45312 z m 3.88281,0 h -1.45312 v -12 h 1.45312 z m 5.82032,0.15625 q -1.71875,0 -2.79688,-1.125 -1.07812,-1.14062 -1.07812,-3.03125 v -0.26562 q 0,-1.25 0.46875,-2.23438 0.48437,-1 1.34375,-1.54687 0.875,-0.5625 1.875,-0.5625 1.65625,0 2.5625,1.09375 0.92187,1.07812 0.92187,3.09375 v 0.60937 h -5.73437 q 0.0312,1.25 0.73437,2.01563 0.70313,0.76562 1.78125,0.76562 0.76563,0 1.29688,-0.3125 0.53125,-0.3125 0.92187,-0.82812 l 0.89063,0.6875 q -1.0625,1.64062 -3.1875,1.64062 z m -0.1875,-7.57812 q -0.875,0 -1.46875,0.64062 -0.59375,0.625 -0.73438,1.78125 h 4.23438 v -0.10937 q -0.0625,-1.10938 -0.59375,-1.70313 -0.53125,-0.60937 -1.4375,-0.60937 z m 6.72656,7.42187 h -1.45313 v -12 h 1.45313 z m 3.88281,0 h -1.45312 v -8.45312 h 1.45312 z m -1.5625,-10.70312 q 0,-0.34375 0.20313,-0.57813 0.21875,-0.25 0.64062,-0.25 0.42188,0 0.64063,0.25 0.21875,0.23438 0.21875,0.59375 0,0.34375 -0.21875,0.57813 -0.21875,0.23437 -0.64063,0.23437 -0.42187,0 -0.64062,-0.23437 -0.20313,-0.23438 -0.20313,-0.59375 z m 5.22656,9.51562 h 4.95313 v 1.1875 h -6.71875 v -1.0625 l 4.67187,-6.20312 h -4.59375 v -1.1875 h 6.40625 v 1.01562 z m 9.96094,1.34375 q -1.71875,0 -2.79687,-1.125 -1.07813,-1.14062 -1.07813,-3.03125 v -0.26562 q 0,-1.25 0.46875,-2.23438 0.48438,-1 1.34375,-1.54687 0.875,-0.5625 1.875,-0.5625 1.65625,0 2.5625,1.09375 0.92188,1.07812 0.92188,3.09375 v 0.60937 h -5.73438 q 0.0312,1.25 0.73438,2.01563 0.70312,0.76562 1.78125,0.76562 0.76562,0 1.29687,-0.3125 0.53125,-0.3125 0.92188,-0.82812 l 0.89062,0.6875 q -1.0625,1.64062 -3.1875,1.64062 z m -0.1875,-7.57812 q -0.875,0 -1.46875,0.64062 -0.59375,0.625 -0.73437,1.78125 h 4.23437 v -0.10937 q -0.0625,-1.10938 -0.59375,-1.70313 -0.53125,-0.60937 -1.4375,-0.60937 z"
       fill="#ffffff" />
    <path
       id="path45"
       fill-rule="nonzero"
       d="m 320.51562,147.41754 q 0,1.9375 -0.89062,3.125 -0.875,1.17187 -2.375,1.17187 -1.54688,0 -2.42188,-0.98437 v 4.07812 H 313.375 v -11.70312 h 1.32812 l 0.0625,0.9375 q 0.89063,-1.09375 2.45313,-1.09375 1.53125,0 2.40625,1.15625 0.89062,1.14062 0.89062,3.1875 z m -1.4375,-0.15625 q 0,-1.4375 -0.60937,-2.26563 -0.60938,-0.82812 -1.67188,-0.82812 -1.3125,0 -1.96875,1.17187 v 4.03125 q 0.64063,1.15625 1.98438,1.15625 1.03125,0 1.64062,-0.8125 0.625,-0.82812 0.625,-2.45312 z m 7.36719,-2.85938 q -0.32813,-0.0625 -0.71875,-0.0625 -1.42188,0 -1.92188,1.21875 v 6 h -1.45312 v -8.45312 h 1.40625 l 0.0312,0.96875 q 0.70312,-1.125 2.01562,-1.125 0.42188,0 0.64063,0.10937 z m 0.78906,2.84375 q 0,-1.23437 0.48438,-2.21875 0.48437,-1 1.35937,-1.53125 0.875,-0.54687 1.98438,-0.54687 1.73437,0 2.79687,1.20312 1.0625,1.1875 1.0625,3.17188 v 0.0937 q 0,1.23437 -0.46875,2.21875 -0.46875,0.98437 -1.35937,1.53125 -0.875,0.54687 -2.01563,0.54687 -1.71875,0 -2.78125,-1.1875 -1.0625,-1.20312 -1.0625,-3.17187 z m 1.45313,0.17188 q 0,1.40625 0.64062,2.26562 0.65625,0.84375 1.75,0.84375 1.10938,0 1.75,-0.85937 0.65625,-0.85938 0.65625,-2.42188 0,-1.39062 -0.67187,-2.25 -0.65625,-0.85937 -1.75,-0.85937 -1.0625,0 -1.71875,0.85937 -0.65625,0.84375 -0.65625,2.42188 z m 11.4375,3.10937 q 0.78125,0 1.35937,-0.46875 0.57813,-0.46875 0.64063,-1.17187 h 1.35937 q -0.0312,0.73437 -0.5,1.39062 -0.45312,0.65625 -1.23437,1.04688 -0.76563,0.39062 -1.625,0.39062 -1.71875,0 -2.75,-1.15625 -1.01563,-1.15625 -1.01563,-3.15625 v -0.23437 q 0,-1.23438 0.45313,-2.1875 0.45312,-0.96875 1.29687,-1.5 0.85938,-0.53125 2.01563,-0.53125 1.42187,0 2.35937,0.85937 0.9375,0.84375 1,2.20313 H 342.125 q -0.0625,-0.82813 -0.625,-1.34375 -0.5625,-0.53125 -1.375,-0.53125 -1.10938,0 -1.71875,0.79687 -0.59375,0.78125 -0.59375,2.28125 v 0.28125 q 0,1.45313 0.59375,2.25 0.60937,0.78125 1.71875,0.78125 z m 8.5,1.1875 q -1.71875,0 -2.79688,-1.125 -1.07812,-1.14062 -1.07812,-3.03125 v -0.26562 q 0,-1.25 0.46875,-2.23438 0.48437,-1 1.34375,-1.54687 0.875,-0.5625 1.875,-0.5625 1.65625,0 2.5625,1.09375 0.92187,1.07812 0.92187,3.09375 v 0.60937 h -5.73437 q 0.0312,1.25 0.73437,2.01563 0.70313,0.76562 1.78125,0.76562 0.76563,0 1.29688,-0.3125 0.53125,-0.3125 0.92187,-0.82812 l 0.89063,0.6875 q -1.0625,1.64062 -3.1875,1.64062 z m -0.1875,-7.57812 q -0.875,0 -1.46875,0.64062 -0.59375,0.625 -0.73438,1.78125 h 4.23438 v -0.10937 q -0.0625,-1.10938 -0.59375,-1.70313 -0.53125,-0.60937 -1.4375,-0.60937 z m 10.07031,5.17187 q 0,-0.57812 -0.4375,-0.90625 -0.4375,-0.32812 -1.54688,-0.5625 -1.09375,-0.23437 -1.73437,-0.5625 -0.64063,-0.32812 -0.95313,-0.78125 -0.3125,-0.45312 -0.3125,-1.07812 0,-1.03125 0.875,-1.75 0.89063,-0.71875 2.25,-0.71875 1.4375,0 2.32813,0.75 0.90625,0.73437 0.90625,1.89062 h -1.45313 q 0,-0.59375 -0.51562,-1.01562 -0.5,-0.4375 -1.26563,-0.4375 -0.78125,0 -1.23437,0.34375 -0.4375,0.34375 -0.4375,0.89062 0,0.53125 0.40625,0.79688 0.42187,0.26562 1.5,0.51562 1.07812,0.23438 1.75,0.57813 0.67187,0.32812 1,0.79687 0.32812,0.46875 0.32812,1.15625 0,1.125 -0.90625,1.8125 -0.90625,0.6875 -2.35937,0.6875 -1.01563,0 -1.79688,-0.35937 -0.78125,-0.35938 -1.21875,-1 -0.4375,-0.65625 -0.4375,-1.40625 h 1.4375 q 0.0469,0.73437 0.57813,1.15625 0.54687,0.42187 1.4375,0.42187 0.82812,0 1.3125,-0.32812 0.5,-0.32813 0.5,-0.89063 z m 8.25,0 q 0,-0.57812 -0.4375,-0.90625 -0.4375,-0.32812 -1.54688,-0.5625 -1.09375,-0.23437 -1.73437,-0.5625 -0.64063,-0.32812 -0.95313,-0.78125 -0.3125,-0.45312 -0.3125,-1.07812 0,-1.03125 0.875,-1.75 0.89063,-0.71875 2.25,-0.71875 1.4375,0 2.32813,0.75 0.90625,0.73437 0.90625,1.89062 h -1.45313 q 0,-0.59375 -0.51562,-1.01562 -0.5,-0.4375 -1.26563,-0.4375 -0.78125,0 -1.23437,0.34375 -0.4375,0.34375 -0.4375,0.89062 0,0.53125 0.40625,0.79688 0.42187,0.26562 1.5,0.51562 1.07812,0.23438 1.75,0.57813 0.67187,0.32812 1,0.79687 0.32812,0.46875 0.32812,1.15625 0,1.125 -0.90625,1.8125 -0.90625,0.6875 -2.35937,0.6875 -1.01563,0 -1.79688,-0.35937 -0.78125,-0.35938 -1.21875,-1 -0.4375,-0.65625 -0.4375,-1.40625 h 1.4375 q 0.0469,0.73437 0.57813,1.15625 0.54687,0.42187 1.4375,0.42187 0.82812,0 1.3125,-0.32812 0.5,-0.32813 0.5,-0.89063 z m 4.90625,2.25 h -1.45313 v -8.45312 h 1.45313 z m -1.5625,-10.70312 q 0,-0.34375 0.20312,-0.57813 0.21875,-0.25 0.64063,-0.25 0.42187,0 0.64062,0.25 0.21875,0.23438 0.21875,0.59375 0,0.34375 -0.21875,0.57813 -0.21875,0.23437 -0.64062,0.23437 -0.42188,0 -0.64063,-0.23437 -0.20312,-0.23438 -0.20312,-0.59375 z m 5.24219,2.25 0.0469,1.0625 q 0.96875,-1.21875 2.53125,-1.21875 2.67188,0 2.70313,3.01562 v 5.59375 h -1.45313 v -5.59375 q 0,-0.92187 -0.42187,-1.35937 -0.40625,-0.4375 -1.26563,-0.4375 -0.70312,0 -1.23437,0.375 -0.53125,0.375 -0.82813,0.98437 v 6.03125 h -1.45312 v -8.45312 z m 7.10937,4.15625 q 0,-1.98438 0.90625,-3.14063 0.92188,-1.17187 2.4375,-1.17187 1.54688,0 2.40625,1.09375 l 0.0781,-0.9375 h 1.3125 v 8.25 q 0,1.64062 -0.96875,2.57812 -0.96875,0.95313 -2.60938,0.95313 -0.92187,0 -1.79687,-0.39063 -0.875,-0.39062 -1.32813,-1.0625 l 0.75,-0.875 q 0.92188,1.15625 2.26563,1.15625 1.0625,0 1.64062,-0.59375 0.59375,-0.59375 0.59375,-1.6875 v -0.71875 q -0.85937,1 -2.35937,1 -1.48438,0 -2.40625,-1.1875 -0.92188,-1.20312 -0.92188,-3.26562 z m 1.45313,0.15625 q 0,1.4375 0.57812,2.25 0.59375,0.8125 1.65625,0.8125 1.35938,0 2,-1.23438 v -3.85937 q -0.65625,-1.21875 -1.98437,-1.21875 -1.0625,0 -1.65625,0.82812 -0.59375,0.8125 -0.59375,2.42188 z m 11.45312,-0.17188 q 0,-1.23437 0.48438,-2.21875 0.48437,-1 1.35937,-1.53125 0.875,-0.54687 1.98438,-0.54687 1.73437,0 2.79687,1.20312 1.0625,1.1875 1.0625,3.17188 v 0.0937 q 0,1.23437 -0.46875,2.21875 -0.46875,0.98437 -1.35937,1.53125 -0.875,0.54687 -2.01563,0.54687 -1.71875,0 -2.78125,-1.1875 -1.0625,-1.20312 -1.0625,-3.17187 z m 1.45313,0.17188 q 0,1.40625 0.64062,2.26562 0.65625,0.84375 1.75,0.84375 1.10938,0 1.75,-0.85937 0.65625,-0.85938 0.65625,-2.42188 0,-1.39062 -0.67187,-2.25 -0.65625,-0.85937 -1.75,-0.85937 -1.0625,0 -1.71875,0.85937 -0.65625,0.84375 -0.65625,2.42188 z m 8.76562,4.14062 v -7.34375 h -1.34375 v -1.10937 h 1.34375 v -0.875 q 0,-1.35938 0.71875,-2.09375 0.73438,-0.75 2.0625,-0.75 0.5,0 0.98438,0.14062 l -0.0781,1.17188 q -0.35937,-0.0781 -0.78125,-0.0781 -0.70312,0 -1.09375,0.42188 -0.375,0.40625 -0.375,1.17187 v 0.89063 h 1.8125 v 1.10937 h -1.8125 v 7.34375 z m 15.3125,-2.96875 H 416.125 l -1.07813,2.96875 H 413.5 l 4.34375,-11.375 h 1.3125 l 4.35937,11.375 h -1.54687 z m -4.3125,-1.23437 h 3.85938 L 418.5,142.02691 Z"
       fill="#ffffff" />
    <path
       id="path47"
       fill-rule="evenodd"
       d="M 456,126.53281 H 568"
       fill-opacity="0"
       fill="#000000" />
    <path
       id="path49"
       fill-rule="evenodd"
       d="M 456,126.53281 H 561.14581"
       stroke-linecap="butt"
       stroke-linejoin="round"
       stroke-width="2"
       stroke="#4a86e8" />
    <path
       id="path51"
       fill-rule="evenodd"
       d="m 561.1458,126.53281 -2.24915,2.24918 6.17951,-2.24918 -6.17951,-2.24917 z"
       stroke-linecap="butt"
       stroke-width="2"
       stroke="#4a86e8"
       fill="#4a86e8" />
    <path
       id="path53"
       fill-rule="evenodd"
       d="M 460,55.217846 H 564 V 125.86352 H 460 Z"
       fill-opacity="0"
       fill="#000000" />
    <path
       id="path55"
       fill-rule="nonzero"
       d="m 477.1875,79.57785 h -1.75 l -3.82813,-5.015625 v 5.015625 h -1.39062 V 69.3591 h 1.39062 v 4.75 l 3.75,-4.75 H 477 l -4.03125,4.859375 z m 9.375,-10.21875 -3.46875,10.21875 h -1.875 L 477.82812,69.3591 h 1.57813 l 2.20312,6.890625 0.625,2.015625 0.64063,-2.015625 2.20312,-6.890625 z m 7.20312,9.484375 -0.84375,0.859375 -5.25,-4.390625 5.25,-4.375 0.84375,0.859375 -4.25,3.5 z m 10.34375,0.734375 h -1.51562 l -0.70313,-2.234375 h -4.25 l -0.71875,2.234375 h -1.45312 l 3.39062,-10.21875 h 1.90625 z m -2.625,-3.46875 -1.71875,-5.46875 -1.73437,5.46875 z m 4.5625,5.078125 q 0.40625,0.01563 0.78125,-0.07813 0.375,-0.07813 0.65625,-0.25 0.28125,-0.171875 0.45313,-0.421875 0.17187,-0.25 0.17187,-0.5625 0,-0.34375 -0.10937,-0.546875 -0.10938,-0.203125 -0.25,-0.375 -0.14063,-0.171875 -0.26563,-0.359375 -0.10937,-0.203125 -0.10937,-0.53125 0,-0.15625 0.0625,-0.328125 0.0625,-0.1875 0.1875,-0.328125 0.14062,-0.15625 0.32812,-0.25 0.20313,-0.09375 0.48438,-0.09375 0.26562,0 0.51562,0.109375 0.26563,0.109375 0.45313,0.34375 0.1875,0.234375 0.29687,0.59375 0.125,0.34375 0.125,0.828125 0,0.65625 -0.25,1.25 -0.23437,0.59375 -0.70312,1.046875 -0.46875,0.46875 -1.1875,0.734375 -0.70313,0.28125 -1.64063,0.28125 z M 530,79.57785 h -1.57813 l -1.51562,-3.265625 q -0.17188,-0.375 -0.35938,-0.625 -0.17187,-0.25 -0.39062,-0.390625 -0.20313,-0.140625 -0.45313,-0.203125 -0.23437,-0.0625 -0.54687,-0.0625 H 524.5 v 4.546875 h -1.39063 V 69.3591 h 2.73438 q 0.89062,0 1.53125,0.203125 0.64062,0.1875 1.04687,0.546875 0.42188,0.34375 0.60938,0.84375 0.1875,0.5 0.1875,1.09375 0,0.484375 -0.14063,0.90625 -0.14062,0.421875 -0.42187,0.78125 -0.26563,0.34375 -0.6875,0.59375 -0.40625,0.25 -0.9375,0.375 0.4375,0.15625 0.73437,0.53125 0.29688,0.359375 0.60938,0.984375 z m -2.23438,-7.40625 q 0,-0.828125 -0.51562,-1.234375 -0.5,-0.40625 -1.4375,-0.40625 H 524.5 v 3.375 h 1.125 q 0.5,0 0.89062,-0.109375 0.39063,-0.109375 0.67188,-0.328125 0.28125,-0.234375 0.42187,-0.546875 0.15625,-0.328125 0.15625,-0.75 z"
       fill="#000000" />
    <path
       id="path57"
       fill-rule="nonzero"
       d="m 535.7656,85.57785 h -4.26563 V 84.7341 h 1.75 v -4.96875 l -1.64062,0.890625 -0.32813,-0.765625 2.15625,-1.140625 h 0.8125 V 84.7341 h 1.51563 z"
       fill="#000000" />
    <path
       id="path59"
       fill-rule="nonzero"
       d="m 538.07764,71.7966 0.84375,-0.859375 5.25,4.375 -5.25,4.390625 -0.84375,-0.859375 4.25,-3.515625 z"
       fill="#000000" />
    <path
       id="path61"
       fill-rule="nonzero"
       d="m 473.34375,96.1091 q 0.26562,0 0.5,0.109375 0.23437,0.09375 0.40625,0.28125 0.1875,0.171875 0.28125,0.421875 0.10937,0.234375 0.10937,0.5 0,0.265625 -0.10937,0.5 -0.0937,0.234375 -0.28125,0.421875 -0.17188,0.171875 -0.40625,0.265625 -0.23438,0.109375 -0.5,0.109375 -0.28125,0 -0.51563,-0.109375 -0.23437,-0.09375 -0.40625,-0.265625 -0.17187,-0.1875 -0.28125,-0.421875 -0.0937,-0.234375 -0.0937,-0.5 0,-0.265625 0.0937,-0.5 0.10938,-0.25 0.28125,-0.421875 0.17188,-0.1875 0.40625,-0.28125 0.23438,-0.109375 0.51563,-0.109375 z m 8.79687,0 q 0.26563,0 0.5,0.109375 0.23438,0.09375 0.40625,0.28125 0.1875,0.171875 0.28125,0.421875 0.10938,0.234375 0.10938,0.5 0,0.265625 -0.10938,0.5 -0.0937,0.234375 -0.28125,0.421875 -0.17187,0.171875 -0.40625,0.265625 -0.23437,0.109375 -0.5,0.109375 -0.28125,0 -0.51562,-0.109375 -0.23438,-0.09375 -0.40625,-0.265625 -0.17188,-0.1875 -0.28125,-0.421875 -0.0937,-0.234375 -0.0937,-0.5 0,-0.265625 0.0937,-0.5 0.10937,-0.25 0.28125,-0.421875 0.17187,-0.1875 0.40625,-0.28125 0.23437,-0.109375 0.51562,-0.109375 z m 8.79688,0 q 0.26562,0 0.5,0.109375 0.23437,0.09375 0.40625,0.28125 0.1875,0.171875 0.28125,0.421875 0.10937,0.234375 0.10937,0.5 0,0.265625 -0.10937,0.5 -0.0937,0.234375 -0.28125,0.421875 -0.17188,0.171875 -0.40625,0.265625 -0.23438,0.109375 -0.5,0.109375 -0.28125,0 -0.51563,-0.109375 -0.23437,-0.09375 -0.40625,-0.265625 -0.17187,-0.1875 -0.28125,-0.421875 -0.0937,-0.234375 -0.0937,-0.5 0,-0.265625 0.0937,-0.5 0.10938,-0.25 0.28125,-0.421875 0.17188,-0.1875 0.40625,-0.28125 0.23438,-0.109375 0.51563,-0.109375 z"
       fill="#000000" />
    <path
       id="path63"
       fill-rule="nonzero"
       d="m 477.1875,117.57785 h -1.75 l -3.82813,-5.01563 v 5.01563 h -1.39062 V 107.3591 h 1.39062 v 4.75 l 3.75,-4.75 H 477 l -4.03125,4.85937 z m 9.375,-10.21875 -3.46875,10.21875 h -1.875 l -3.39063,-10.21875 h 1.57813 l 2.20312,6.89062 0.625,2.01563 0.64063,-2.01563 2.20312,-6.89062 z m 7.20312,9.48437 -0.84375,0.85938 -5.25,-4.39063 5.25,-4.375 0.84375,0.85938 -4.25,3.5 z m 10.34375,0.73438 h -1.51562 l -0.70313,-2.23438 h -4.25 l -0.71875,2.23438 h -1.45312 l 3.39062,-10.21875 h 1.90625 z m -2.625,-3.46875 -1.71875,-5.46875 -1.73437,5.46875 z m 4.5625,5.07812 q 0.40625,0.0156 0.78125,-0.0781 0.375,-0.0781 0.65625,-0.25 0.28125,-0.17188 0.45313,-0.42188 0.17187,-0.25 0.17187,-0.5625 0,-0.34375 -0.10937,-0.54687 -0.10938,-0.20313 -0.25,-0.375 -0.14063,-0.17188 -0.26563,-0.35938 -0.10937,-0.20312 -0.10937,-0.53125 0,-0.15625 0.0625,-0.32812 0.0625,-0.1875 0.1875,-0.32813 0.14062,-0.15625 0.32812,-0.25 0.20313,-0.0937 0.48438,-0.0937 0.26562,0 0.51562,0.10938 0.26563,0.10937 0.45313,0.34375 0.1875,0.23437 0.29687,0.59375 0.125,0.34375 0.125,0.82812 0,0.65625 -0.25,1.25 -0.23437,0.59375 -0.70312,1.04688 -0.46875,0.46875 -1.1875,0.73437 -0.70313,0.28125 -1.64063,0.28125 z M 530,117.57785 h -1.57813 l -1.51562,-3.26563 q -0.17188,-0.375 -0.35938,-0.625 -0.17187,-0.25 -0.39062,-0.39062 -0.20313,-0.14063 -0.45313,-0.20313 -0.23437,-0.0625 -0.54687,-0.0625 H 524.5 v 4.54688 h -1.39063 V 107.3591 h 2.73438 q 0.89062,0 1.53125,0.20312 0.64062,0.1875 1.04687,0.54688 0.42188,0.34375 0.60938,0.84375 0.1875,0.5 0.1875,1.09375 0,0.48437 -0.14063,0.90625 -0.14062,0.42187 -0.42187,0.78125 -0.26563,0.34375 -0.6875,0.59375 -0.40625,0.25 -0.9375,0.375 0.4375,0.15625 0.73437,0.53125 0.29688,0.35937 0.60938,0.98437 z m -2.23438,-7.40625 q 0,-0.82813 -0.51562,-1.23438 -0.5,-0.40625 -1.4375,-0.40625 H 524.5 v 3.375 h 1.125 q 0.5,0 0.89062,-0.10937 0.39063,-0.10938 0.67188,-0.32813 0.28125,-0.23437 0.42187,-0.54687 0.15625,-0.32813 0.15625,-0.75 z"
       fill="#000000" />
    <path
       id="path65"
       fill-rule="nonzero"
       d="m 535.8281,123.57785 h -1.21875 l -1.96875,-4.23438 -0.57813,-1.375 v 3.4375 2.17188 h -0.85937 v -6.79688 h 1.1875 l 1.89062,4.01563 0.67188,1.54687 v -3.64062 -1.92188 h 0.875 z"
       fill="#000000" />
    <path
       id="path67"
       fill-rule="nonzero"
       d="m 538.07764,109.7966 0.84375,-0.85938 5.25,4.375 -5.25,4.39063 -0.84375,-0.85938 4.25,-3.51562 z"
       fill="#000000" />
    <path
       id="path69"
       fill-rule="evenodd"
       d="m 568,87.2021 h 152 v 78.99213 H 568 Z"
       fill="#ff9900" />
    <path
       id="path71"
       fill-rule="nonzero"
       d="m 580.03906,118.60504 v 4.45313 h -1.5 v -11.375 h 4.1875 q 1.875,0 2.92187,0.95312 1.0625,0.95313 1.0625,2.51563 0,1.65625 -1.03125,2.5625 -1.03125,0.89062 -2.96875,0.89062 z m 0,-1.23437 h 2.6875 q 1.20312,0 1.84375,-0.5625 0.64062,-0.5625 0.64062,-1.64063 0,-1.01562 -0.64062,-1.625 -0.64063,-0.60937 -1.75,-0.625 h -2.78125 z m 12.45312,-1.46875 q -0.32812,-0.0625 -0.71875,-0.0625 -1.42187,0 -1.92187,1.21875 v 6 h -1.45313 v -8.45313 h 1.40625 l 0.0312,0.96875 q 0.70313,-1.125 2.01563,-1.125 0.42187,0 0.64062,0.10938 z m 0.78907,2.84375 q 0,-1.23438 0.48437,-2.21875 0.48438,-1 1.35938,-1.53125 0.875,-0.54688 1.98437,-0.54688 1.73438,0 2.79688,1.20313 1.0625,1.1875 1.0625,3.17187 v 0.0937 q 0,1.23438 -0.46875,2.21875 -0.46875,0.98438 -1.35938,1.53125 -0.875,0.54688 -2.01562,0.54688 -1.71875,0 -2.78125,-1.1875 -1.0625,-1.20313 -1.0625,-3.17188 z m 1.45312,0.17187 q 0,1.40625 0.64063,2.26563 0.65625,0.84375 1.75,0.84375 1.10937,0 1.75,-0.85938 0.65625,-0.85937 0.65625,-2.42187 0,-1.39063 -0.67188,-2.25 -0.65625,-0.85938 -1.75,-0.85938 -1.0625,0 -1.71875,0.85938 -0.65625,0.84375 -0.65625,2.42187 z m 11.4375,3.10938 q 0.78125,0 1.35938,-0.46875 0.57812,-0.46875 0.64062,-1.17188 h 1.35938 q -0.0312,0.73438 -0.5,1.39063 -0.45313,0.65625 -1.23438,1.04687 -0.76562,0.39063 -1.625,0.39063 -1.71875,0 -2.75,-1.15625 -1.01562,-1.15625 -1.01562,-3.15625 v -0.23438 q 0,-1.23437 0.45312,-2.1875 0.45313,-0.96875 1.29688,-1.5 0.85937,-0.53125 2.01562,-0.53125 1.42188,0 2.35938,0.85938 0.9375,0.84375 1,2.20312 h -1.35938 q -0.0625,-0.82812 -0.625,-1.34375 -0.5625,-0.53125 -1.375,-0.53125 -1.10937,0 -1.71875,0.79688 -0.59375,0.78125 -0.59375,2.28125 v 0.28125 q 0,1.45312 0.59375,2.25 0.60938,0.78125 1.71875,0.78125 z m 8.5,1.1875 q -1.71875,0 -2.79687,-1.125 -1.07813,-1.14063 -1.07813,-3.03125 v -0.26563 q 0,-1.25 0.46875,-2.23437 0.48438,-1 1.34375,-1.54688 0.875,-0.5625 1.875,-0.5625 1.65625,0 2.5625,1.09375 0.92188,1.07813 0.92188,3.09375 v 0.60938 h -5.73438 q 0.0312,1.25 0.73438,2.01562 0.70312,0.76563 1.78125,0.76563 0.76562,0 1.29687,-0.3125 0.53125,-0.3125 0.92188,-0.82813 l 0.89062,0.6875 q -1.0625,1.64063 -3.1875,1.64063 z m -0.1875,-7.57813 q -0.875,0 -1.46875,0.64063 -0.59375,0.625 -0.73437,1.78125 h 4.23437 v -0.10938 q -0.0625,-1.10937 -0.59375,-1.70312 -0.53125,-0.60938 -1.4375,-0.60938 z m 10.07031,5.17188 q 0,-0.57813 -0.4375,-0.90625 -0.4375,-0.32813 -1.54687,-0.5625 -1.09375,-0.23438 -1.73438,-0.5625 -0.64062,-0.32813 -0.95312,-0.78125 -0.3125,-0.45313 -0.3125,-1.07813 0,-1.03125 0.875,-1.75 0.89062,-0.71875 2.25,-0.71875 1.4375,0 2.32812,0.75 0.90625,0.73438 0.90625,1.89063 h -1.45312 q 0,-0.59375 -0.51563,-1.01563 -0.5,-0.4375 -1.26562,-0.4375 -0.78125,0 -1.23438,0.34375 -0.4375,0.34375 -0.4375,0.89063 0,0.53125 0.40625,0.79687 0.42188,0.26563 1.5,0.51563 1.07813,0.23437 1.75,0.57812 0.67188,0.32813 1,0.79688 0.32813,0.46875 0.32813,1.15625 0,1.125 -0.90625,1.8125 -0.90625,0.6875 -2.35938,0.6875 -1.01562,0 -1.79687,-0.35938 -0.78125,-0.35937 -1.21875,-1 -0.4375,-0.65625 -0.4375,-1.40625 h 1.4375 q 0.0469,0.73438 0.57812,1.15625 0.54688,0.42188 1.4375,0.42188 0.82813,0 1.3125,-0.32813 0.5,-0.32812 0.5,-0.89062 z m 8.25,0 q 0,-0.57813 -0.4375,-0.90625 -0.4375,-0.32813 -1.54687,-0.5625 -1.09375,-0.23438 -1.73438,-0.5625 -0.64062,-0.32813 -0.95312,-0.78125 -0.3125,-0.45313 -0.3125,-1.07813 0,-1.03125 0.875,-1.75 0.89062,-0.71875 2.25,-0.71875 1.4375,0 2.32812,0.75 0.90625,0.73438 0.90625,1.89063 h -1.45312 q 0,-0.59375 -0.51563,-1.01563 -0.5,-0.4375 -1.26562,-0.4375 -0.78125,0 -1.23438,0.34375 -0.4375,0.34375 -0.4375,0.89063 0,0.53125 0.40625,0.79687 0.42188,0.26563 1.5,0.51563 1.07813,0.23437 1.75,0.57812 0.67188,0.32813 1,0.79688 0.32813,0.46875 0.32813,1.15625 0,1.125 -0.90625,1.8125 -0.90625,0.6875 -2.35938,0.6875 -1.01562,0 -1.79687,-0.35938 -0.78125,-0.35937 -1.21875,-1 -0.4375,-0.65625 -0.4375,-1.40625 h 1.4375 q 0.0469,0.73438 0.57812,1.15625 0.54688,0.42188 1.4375,0.42188 0.82813,0 1.3125,-0.32813 0.5,-0.32812 0.5,-0.89062 z m 10.80469,2.40625 q -1.71875,0 -2.79687,-1.125 -1.07813,-1.14063 -1.07813,-3.03125 v -0.26563 q 0,-1.25 0.46875,-2.23437 0.48438,-1 1.34375,-1.54688 0.875,-0.5625 1.875,-0.5625 1.65625,0 2.5625,1.09375 0.92188,1.07813 0.92188,3.09375 v 0.60938 h -5.73438 q 0.0312,1.25 0.73438,2.01562 0.70312,0.76563 1.78125,0.76563 0.76562,0 1.29687,-0.3125 0.53125,-0.3125 0.92188,-0.82813 l 0.89062,0.6875 q -1.0625,1.64063 -3.1875,1.64063 z m -0.1875,-7.57813 q -0.875,0 -1.46875,0.64063 -0.59375,0.625 -0.73437,1.78125 h 4.23437 v -0.10938 q -0.0625,-1.10937 -0.59375,-1.70312 -0.53125,-0.60938 -1.4375,-0.60938 z m 6.72656,7.42188 h -1.45312 v -12 h 1.45312 z m 5.82032,0.15625 q -1.71875,0 -2.79688,-1.125 -1.07812,-1.14063 -1.07812,-3.03125 v -0.26563 q 0,-1.25 0.46875,-2.23437 0.48437,-1 1.34375,-1.54688 0.875,-0.5625 1.875,-0.5625 1.65625,0 2.5625,1.09375 0.92187,1.07813 0.92187,3.09375 v 0.60938 h -5.73437 q 0.0312,1.25 0.73437,2.01562 0.70313,0.76563 1.78125,0.76563 0.76563,0 1.29688,-0.3125 0.53125,-0.3125 0.92187,-0.82813 l 0.89063,0.6875 q -1.0625,1.64063 -3.1875,1.64063 z m -0.1875,-7.57813 q -0.875,0 -1.46875,0.64063 -0.59375,0.625 -0.73438,1.78125 h 4.23438 v -0.10938 q -0.0625,-1.10937 -0.59375,-1.70312 -0.53125,-0.60938 -1.4375,-0.60938 z m 6.50781,-1.03125 0.0469,0.9375 q 0.92188,-1.09375 2.5,-1.09375 1.78125,0 2.42188,1.35938 0.42187,-0.60938 1.09375,-0.98438 0.67187,-0.375 1.59375,-0.375 2.78125,0 2.82812,2.9375 v 5.67188 h -1.4375 v -5.57813 q 0,-0.90625 -0.42187,-1.35937 -0.40625,-0.45313 -1.39063,-0.45313 -0.79687,0 -1.32812,0.48438 -0.53125,0.48437 -0.625,1.29687 v 5.60938 h -1.45313 v -5.54688 q 0,-1.84375 -1.79687,-1.84375 -1.42188,0 -1.95313,1.21875 v 6.17188 h -1.4375 v -8.45313 z m 16.17969,8.60938 q -1.71875,0 -2.79688,-1.125 -1.07812,-1.14063 -1.07812,-3.03125 v -0.26563 q 0,-1.25 0.46875,-2.23437 0.48437,-1 1.34375,-1.54688 0.875,-0.5625 1.875,-0.5625 1.65625,0 2.5625,1.09375 0.92187,1.07813 0.92187,3.09375 v 0.60938 h -5.73437 q 0.0312,1.25 0.73437,2.01562 0.70313,0.76563 1.78125,0.76563 0.76563,0 1.29688,-0.3125 0.53125,-0.3125 0.92187,-0.82813 l 0.89063,0.6875 q -1.0625,1.64063 -3.1875,1.64063 z m -0.1875,-7.57813 q -0.875,0 -1.46875,0.64063 -0.59375,0.625 -0.73438,1.78125 h 4.23438 v -0.10938 q -0.0625,-1.10937 -0.59375,-1.70312 -0.53125,-0.60938 -1.4375,-0.60938 z m 6.52344,-1.03125 0.0469,1.0625 q 0.96875,-1.21875 2.53125,-1.21875 2.67188,0 2.70313,3.01563 v 5.59375 h -1.45313 v -5.59375 q 0,-0.92188 -0.42187,-1.35938 -0.40625,-0.4375 -1.26563,-0.4375 -0.70312,0 -1.23437,0.375 -0.53125,0.375 -0.82813,0.98438 v 6.03125 h -1.45312 v -8.45313 z m 9.42187,-2.04687 v 2.04687 h 1.57813 v 1.10938 h -1.57813 v 5.25 q 0,0.5 0.20313,0.76562 0.21875,0.25 0.71875,0.25 0.25,0 0.6875,-0.0937 v 1.17188 q -0.5625,0.15625 -1.10938,0.15625 -0.96875,0 -1.46875,-0.57813 -0.48437,-0.59375 -0.48437,-1.67187 v -5.25 h -1.53125 v -1.10938 h 1.53125 v -2.04687 z m 13.73438,7.53125 h -4.76563 l -1.07812,2.96875 h -1.54688 l 4.34375,-11.375 h 1.3125 l 4.35938,11.375 h -1.54688 z m -4.3125,-1.23438 h 3.85937 l -1.9375,-5.32812 z"
       fill="#ffffff" />
    <path
       id="path73"
       fill-rule="nonzero"
       d="m 626.78845,142.05817 q -0.125,-0.25 -0.20313,-0.89063 -1,1.04688 -2.40625,1.04688 -1.25,0 -2.04687,-0.70313 -0.79688,-0.71875 -0.79688,-1.79687 0,-1.32813 1,-2.04688 1,-0.73437 2.82813,-0.73437 h 1.40625 v -0.67188 q 0,-0.75 -0.45313,-1.20312 -0.45312,-0.45313 -1.34375,-0.45313 -0.76562,0 -1.29687,0.39063 -0.51563,0.39062 -0.51563,0.95312 h -1.45312 q 0,-0.64062 0.4375,-1.21875 0.45312,-0.59375 1.21875,-0.9375 0.78125,-0.34375 1.70312,-0.34375 1.45313,0 2.28125,0.73438 0.82813,0.71875 0.85938,2 v 3.89062 q 0,1.17188 0.29687,1.85938 v 0.125 z m -2.39063,-1.10938 q 0.67188,0 1.28125,-0.34375 0.60938,-0.35937 0.89063,-0.92187 v -1.73438 h -1.14063 q -2.65625,0 -2.65625,1.5625 0,0.67188 0.45313,1.0625 0.45312,0.375 1.17187,0.375 z m 7.25,-7.34375 0.0469,1.0625 q 0.96875,-1.21875 2.53125,-1.21875 2.67187,0 2.70312,3.01563 v 5.59375 h -1.45312 v -5.59375 q 0,-0.92188 -0.42188,-1.35938 -0.40625,-0.4375 -1.26562,-0.4375 -0.70313,0 -1.23438,0.375 -0.53125,0.375 -0.82812,0.98438 v 6.03125 h -1.45313 v -8.45313 z m 7.10938,4.15625 q 0,-1.95312 0.92187,-3.125 0.92188,-1.1875 2.40625,-1.1875 1.48438,0 2.35938,1.01563 v -4.40625 h 1.4375 v 12 h -1.32813 l -0.0625,-0.90625 q -0.875,1.0625 -2.42187,1.0625 -1.46875,0 -2.39063,-1.20313 -0.92187,-1.20312 -0.92187,-3.14062 z m 1.4375,0.15625 q 0,1.4375 0.59375,2.25 0.59375,0.8125 1.64062,0.8125 1.375,0 2.01563,-1.23437 v -3.875 q -0.65625,-1.20313 -2,-1.20313 -1.0625,0 -1.65625,0.82813 -0.59375,0.8125 -0.59375,2.42187 z m 16.29687,-0.46875 h -2.67187 v 4.60938 h -1.51563 v -11.375 h 3.76563 q 1.92187,0 2.95312,0.875 1.04688,0.875 1.04688,2.54687 0,1.0625 -0.57813,1.85938 -0.57812,0.78125 -1.59375,1.17187 l 2.67188,4.82813 v 0.0937 h -1.60938 z m -2.67187,-1.21875 h 2.29687 q 1.125,0 1.78125,-0.57812 0.65625,-0.57813 0.65625,-1.54688 0,-1.0625 -0.625,-1.625 -0.625,-0.5625 -1.8125,-0.5625 h -2.29687 z"
       fill="#ffffff" />
    <path
       id="path75"
       fill-rule="nonzero"
       d="m 664.1869,143.38629 1.82813,-2.90625 h 1.17187 l -2.39062,3.76562 2.45312,3.8125 h -1.1875 l -1.875,-2.95312 -1.85937,2.95312 h -1.1875 l 2.45312,-3.8125 -2.39062,-3.76562 h 1.17187 z"
       fill="#ffffff" />
    <path
       id="path77"
       fill-rule="evenodd"
       d="m 736,94.2021 h 32 v 31.33858 h -32 z"
       fill-opacity="0"
       fill="#000000" />
    <path
       id="path79"
       fill-rule="nonzero"
       d="m 752.9375,115.4996 q 0,0.73438 -0.28125,1.3125 -0.28125,0.5625 -0.8125,0.95313 -0.53125,0.39062 -1.28125,0.59375 -0.73438,0.20312 -1.65625,0.20312 h -2.67188 v -10.21875 h 2.92188 q 3.42187,0 3.42187,2.48438 0,0.82812 -0.40625,1.42187 -0.39062,0.59375 -1.28125,0.89063 0.42188,0.0781 0.78125,0.26562 0.375,0.1875 0.65625,0.48438 0.28125,0.29687 0.4375,0.70312 0.17188,0.40625 0.17188,0.90625 z m -1.8125,-4.48437 q 0,-0.3125 -0.0937,-0.57813 -0.0937,-0.28125 -0.32813,-0.48437 -0.23437,-0.20313 -0.64062,-0.3125 -0.39063,-0.125 -1,-0.125 h -1.4375 v 3.20312 h 1.39062 q 0.48438,0 0.85938,-0.0937 0.39062,-0.10937 0.67187,-0.3125 0.28125,-0.21875 0.42188,-0.53125 0.15625,-0.32812 0.15625,-0.76562 z m 0.34375,4.53125 q 0,-0.39063 -0.17188,-0.70313 -0.15625,-0.3125 -0.46875,-0.51562 -0.3125,-0.21875 -0.76562,-0.32813 -0.45313,-0.125 -1.01563,-0.125 H 747.625 v 3.51563 h 1.46875 q 1.20312,0 1.78125,-0.4375 0.59375,-0.45313 0.59375,-1.40625 z"
       fill="#000000" />
    <path
       id="path81"
       fill-rule="evenodd"
       d="m 720,126.69817 56,-0.31497"
       fill-opacity="0"
       fill="#000000" />
    <path
       id="path83"
       fill-rule="evenodd"
       d="m 720,126.69817 49.14593,-0.27642"
       stroke-linecap="butt"
       stroke-linejoin="round"
       stroke-width="2"
       stroke="#4a86e8" />
    <path
       id="path85"
       fill-rule="evenodd"
       d="m 769.14594,126.42175 -2.23651,2.26178 6.16681,-2.28389 -6.19208,-2.21437 z"
       stroke-linecap="butt"
       stroke-width="2"
       stroke="#4a86e8"
       fill="#4a86e8" />
    <path
       id="path87"
       fill-rule="evenodd"
       d="M 670.224,165.70341 V 190.2021 H 528 v -63"
       fill-opacity="0"
       fill="#000000" />
    <path
       id="path89"
       fill-rule="evenodd"
       d="M 670.224,165.70341 V 190.2021 H 528 v -56.14583"
       stroke-linecap="butt"
       stroke-linejoin="round"
       stroke-width="2"
       stroke="#4a86e8" />
    <path
       id="path91"
       fill-rule="evenodd"
       d="m 528,134.05627 2.24915,2.24916 L 528,130.1259 l -2.24915,6.17953 z"
       stroke-linecap="butt"
       stroke-width="2"
       stroke="#4a86e8"
       fill="#4a86e8" />
    <path
       id="path93"
       fill-rule="evenodd"
       d="m 548.3436,182.09636 v 0 c -0.99908,-2.58107 2.28101,-5.13618 8.4483,-6.5811 6.1673,-1.44492 14.14026,-1.52623 20.53565,-0.20944 v 0 c 2.26544,-1.50074 6.4118,-2.5369 11.185,-2.79506 4.77319,-0.25817 9.61248,0.29201 13.05413,1.48408 v 0 c 1.92987,-1.36067 5.71918,-2.27487 10.02332,-2.41819 4.30414,-0.14331 8.51392,0.50453 11.1355,1.71365 v 0 c 3.48657,-1.44231 9.03381,-2.04959 14.24139,-1.55905 5.20752,0.49054 9.14014,1.99077 10.09607,3.85154 v 0 c 4.27161,0.40963 7.82983,1.45095 9.75525,2.85491 1.92541,1.40396 2.02917,3.03285 0.28448,4.4658 v 0 c 4.2063,1.92463 5.19025,4.48916 2.58466,6.73656 -2.60559,2.24741 -8.40924,3.84004 -15.24524,4.18356 -0.0482,2.10927 -3.33862,4.04471 -8.60309,5.06032 -5.26446,1.01561 -11.68091,0.95279 -16.77606,-0.16423 -2.17029,2.52622 -8.27887,4.38498 -15.68664,4.77324 -7.40778,0.38826 -14.78675,-0.76358 -18.94892,-2.9579 -5.10193,1.08159 -11.22388,1.39316 -16.9848,0.86443 -5.76087,-0.52874 -10.67548,-1.85323 -13.63519,-3.6747 v 0 c -5.21357,0.21449 -10.25434,-0.73513 -12.62067,-2.37755 -2.36627,-1.64241 -1.55432,-3.62801 2.03284,-4.97133 v 0 c -4.65064,-0.96229 -7.02362,-2.87181 -5.88166,-4.7328 1.14203,-1.861 5.54029,-3.25176 10.90131,-3.44707 z"
       fill="#ff9900" />
    <path
       id="path95"
       fill-rule="evenodd"
       d="m 543.22095,190.37572 v 0 c 2.19464,0.4541 4.72998,0.6601 7.26556,0.59032 m 3.32111,6.75872 c 1.09039,-0.0449 2.15918,-0.13984 3.17883,-0.28253 m 27.43964,3.09269 c -0.76691,-0.40433 -1.409,-0.83638 -1.91535,-1.28881 m 36.55225,-0.52661 v 0 c 0.39563,-0.46057 0.65204,-0.93458 0.76477,-1.41415 m 24.6134,-3.48175 c 0.0513,-2.24566 -3.57678,-4.30179 -9.32586,-5.28525 m 21.98626,-5.63465 c -0.93103,0.7647 -2.35235,1.44303 -4.15258,1.98185 m -5.88623,-9.30275 v 0 c 0.15863,0.3088 0.23205,0.62223 0.21923,0.93597 m -24.55627,-3.22838 v 0 c -0.86969,0.35979 -1.58624,0.76184 -2.12732,1.19365 m -19.03168,-0.48926 v 0 c -0.4635,0.32679 -0.80963,0.6726 -1.03033,1.02944 m -23.20917,0.28157 v 0 c 1.35321,0.27862 2.60517,0.614 3.72833,0.99872 m -32.71191,5.79185 v 0 c 0.1377,0.35575 0.35523,0.70709 0.65064,1.05078"
       fill-opacity="0"
       fill="#000000" />
    <path
       id="path97"
       fill-rule="nonzero"
       d="m 572.07404,181.51132 q -0.23438,1.32812 -1.1875,2.10937 -0.95313,0.76563 -2.28125,0.73438 -0.79688,-0.0312 -1.39063,-0.39063 -0.59375,-0.375 -0.92187,-1.07812 -0.32813,-0.70313 -0.35938,-1.54688 -0.0156,-0.48437 0.0469,-0.9375 l 0.0937,-0.70312 q 0.28125,-1.92188 1.34375,-3.03125 1.07812,-1.10938 2.625,-1.09375 1.20312,0.0312 1.90625,0.78125 0.70312,0.75 0.73437,2.09375 h -1.09375 q -0.0781,-1.79688 -1.40625,-1.9375 l -0.1875,-0.0156 q -1.10937,-0.0312 -1.85937,0.82813 -0.73438,0.85937 -0.95313,2.32812 l -0.125,0.89063 -0.0312,0.51562 q -0.0312,1.07813 0.375,1.71875 0.42188,0.625 1.25,0.65625 0.89063,0.0156 1.46875,-0.4375 0.59375,-0.45312 0.89063,-1.46875 z m 2.94727,-2.84375 q 0.84375,-0.90625 1.92187,-0.89063 0.89063,0.0156 1.3125,0.625 0.4375,0.59375 0.32813,1.67188 l -0.6875,4.15625 h -1.0625 l 0.70312,-4.17188 q 0.0312,-0.28125 0,-0.53125 -0.0937,-0.82812 -0.96875,-0.84375 -0.96875,-0.0156 -1.67187,1.01563 l -0.78125,4.53125 h -1.0625 l 1.5625,-9 h 1.0625 z m 7.23437,5.6875 q -1.1875,-0.0312 -1.85937,-0.875 -0.65625,-0.85938 -0.54688,-2.1875 l 0.0312,-0.25 q 0.0937,-0.9375 0.54688,-1.71875 0.46875,-0.78125 1.125,-1.17188 0.67187,-0.39062 1.4375,-0.375 0.96875,0.0156 1.53125,0.64063 0.5625,0.625 0.60937,1.70312 0.0156,0.375 -0.0312,0.76563 l -0.0625,0.48437 h -4.14062 q -0.10938,0.85938 0.28125,1.46875 0.39062,0.59375 1.17187,0.625 0.9375,0.0156 1.73438,-0.84375 l 0.60937,0.51563 q -0.40625,0.57812 -1.03125,0.90625 -0.625,0.3125 -1.40625,0.3125 z m 0.67188,-5.70313 q -0.65625,-0.0156 -1.14063,0.45313 -0.48437,0.45312 -0.78125,1.375 h 3.09375 l 0.0156,-0.0937 q 0.0937,-0.73438 -0.23438,-1.21875 -0.32812,-0.5 -0.95312,-0.51563 z m 5.48828,4.8125 q 0.5625,0.0156 1.01562,-0.32812 0.46875,-0.34375 0.60938,-0.90625 h 1 q -0.0937,0.59375 -0.48438,1.09375 -0.375,0.48437 -0.96875,0.76562 -0.59375,0.28125 -1.21875,0.26563 -0.79687,-0.0156 -1.34375,-0.42188 -0.54687,-0.40625 -0.8125,-1.125 -0.25,-0.71875 -0.15625,-1.60937 l 0.0156,-0.29688 q 0.125,-0.90625 0.54687,-1.625 0.42188,-0.71875 1.09375,-1.125 0.6875,-0.40625 1.5,-0.375 1,0.0156 1.59375,0.67188 0.59375,0.64062 0.59375,1.625 h -0.98437 q -0.0156,-0.625 -0.35938,-1 -0.32812,-0.39063 -0.89062,-0.42188 -0.82813,-0.0156 -1.375,0.625 -0.54688,0.625 -0.6875,1.76563 l -0.0156,0.15625 q -0.0312,0.375 0,0.76562 0.0312,0.6875 0.375,1.09375 0.34375,0.39063 0.95313,0.40625 z m 5.74609,-2.15625 -0.82812,0.73438 -0.375,2.1875 h -1.0625 l 1.5625,-9 h 1.0625 l -0.9375,5.375 0.65625,-0.65625 2.25,-2.0625 h 1.375 l -2.92188,2.70312 2.01563,3.64063 h -1.17188 z m 9.42773,-0.21875 q -0.10937,0.96875 -0.51562,1.75 -0.40625,0.76563 -1.01563,1.15625 -0.59375,0.375 -1.3125,0.35938 -1.10937,-0.0312 -1.6875,-0.75 l -0.5625,3.0625 h -1.0625 l 1.51563,-8.78125 h 0.96875 l -0.125,0.70312 q 0.78125,-0.84375 1.89062,-0.8125 0.90625,0.0156 1.40625,0.67188 0.51563,0.64062 0.54688,1.79687 0.0156,0.375 -0.0312,0.71875 z m -1.04687,-0.125 0.0312,-0.48437 q 0,-0.85938 -0.32813,-1.3125 -0.3125,-0.45313 -0.9375,-0.48438 -0.92187,-0.0156 -1.57812,0.875 l -0.53125,3.04688 q 0.34375,0.84375 1.28125,0.85937 0.78125,0.0156 1.32812,-0.60937 0.5625,-0.64063 0.73438,-1.89063 z m 5.41992,-3.1875 q 0.79688,0 1.35938,0.42188 0.57812,0.42187 0.84375,1.17187 0.28125,0.73438 0.1875,1.625 l -0.0156,0.125 q -0.10937,0.92188 -0.54687,1.67188 -0.4375,0.75 -1.14063,1.17187 -0.6875,0.40625 -1.53125,0.39063 -0.78125,-0.0156 -1.35937,-0.4375 -0.5625,-0.42188 -0.82813,-1.14063 -0.26562,-0.73437 -0.1875,-1.60937 0.0781,-0.98438 0.51563,-1.76563 0.45312,-0.79687 1.15625,-1.21875 0.70312,-0.4375 1.54687,-0.40625 z m -2.15625,3.39063 q -0.0469,0.375 0,0.76562 0.0625,0.70313 0.40625,1.10938 0.35938,0.40625 0.95313,0.42187 0.53125,0.0156 0.96875,-0.25 0.45312,-0.28125 0.75,-0.84375 0.3125,-0.5625 0.39062,-1.25 0.0469,-0.54687 0.0312,-0.90625 -0.0781,-0.71875 -0.4375,-1.125 -0.35937,-0.40625 -0.95312,-0.4375 -0.8125,-0.0156 -1.39063,0.65625 -0.57812,0.65625 -0.70312,1.73438 z m 6.47852,3.0625 h -1.04688 l 1.09375,-6.34375 h 1.0625 z m 0.875,-8.65625 q 0.26562,-0.0156 0.4375,0.15625 0.1875,0.17187 0.1875,0.45312 0,0.28125 -0.17188,0.46875 -0.17187,0.17188 -0.45312,0.1875 -0.28125,0 -0.45313,-0.17187 -0.17187,-0.17188 -0.17187,-0.4375 0.0156,-0.28125 0.17187,-0.45313 0.17188,-0.1875 0.45313,-0.20312 z m 2.96093,2.3125 -0.14062,0.79687 q 0.84375,-0.9375 1.9375,-0.90625 0.89062,0.0156 1.3125,0.625 0.4375,0.59375 0.32812,1.67188 l -0.6875,4.15625 h -1.0625 l 0.70313,-4.17188 q 0.0312,-0.28125 0,-0.53125 -0.0937,-0.82812 -0.96875,-0.84375 -0.95313,-0.0156 -1.67188,1.01563 l -0.78125,4.53125 h -1.0625 l 1.09375,-6.34375 z m 7.1836,-1.53125 -0.26563,1.53125 h 1.15625 l -0.15625,0.84375 h -1.14062 l -0.67188,3.9375 q -0.0156,0.15625 0,0.28125 0.0469,0.45312 0.5,0.45312 0.1875,0 0.51563,-0.0469 l -0.0781,0.875 q -0.39062,0.10937 -0.78125,0.10937 -0.625,-0.0156 -0.95312,-0.46875 -0.3125,-0.45312 -0.23438,-1.21875 l 0.64063,-3.92187 h -1.125 l 0.15625,-0.84375 h 1.10937 l 0.26563,-1.53125 z"
       fill="#ffffff" />
    <path
       id="path99"
       fill-rule="nonzero"
       d="m 579.96466,198.96445 h -0.95313 l 5.0625,-9.26563 h 0.95313 z m 11.61133,-2.45313 q 0.0937,-0.65625 -0.71875,-0.92187 l -1.10938,-0.32813 q -1.39062,-0.48437 -1.34375,-1.59375 0.0469,-0.82812 0.76563,-1.35937 0.71875,-0.54688 1.70312,-0.53125 0.95313,0 1.54688,0.5625 0.60937,0.54687 0.59375,1.42187 l -1.0625,-0.0156 q 0.0156,-0.46875 -0.29688,-0.76563 -0.3125,-0.29687 -0.82812,-0.3125 -0.54688,-0.0156 -0.9375,0.26563 -0.375,0.26562 -0.4375,0.70312 -0.0781,0.54688 0.67187,0.79688 l 0.53125,0.14062 q 1.09375,0.28125 1.54688,0.73438 0.46875,0.45312 0.42187,1.125 -0.0312,0.59375 -0.39062,1.03125 -0.34375,0.4375 -0.9375,0.67187 -0.57813,0.23438 -1.23438,0.21875 -1.01562,-0.0156 -1.67187,-0.59375 -0.65625,-0.57812 -0.625,-1.48437 h 1.0625 q 0,0.53125 0.32812,0.85937 0.34375,0.3125 0.9375,0.3125 0.57813,0.0156 1,-0.23437 0.42188,-0.25 0.48438,-0.70313 z m 7.87109,-1.42187 q -0.10937,0.96875 -0.51562,1.75 -0.40625,0.76562 -1.01563,1.15625 -0.59375,0.375 -1.3125,0.35937 -1.10937,-0.0312 -1.6875,-0.75 l -0.5625,3.0625 h -1.0625 l 1.51563,-8.78125 h 0.96875 l -0.125,0.70313 q 0.78125,-0.84375 1.89062,-0.8125 0.90625,0.0156 1.40625,0.67187 0.51563,0.64063 0.54688,1.79688 0.0156,0.375 -0.0312,0.71875 z m -1.04687,-0.125 0.0312,-0.48438 q 0,-0.85937 -0.32813,-1.3125 -0.3125,-0.45312 -0.9375,-0.48437 -0.92187,-0.0156 -1.57812,0.875 l -0.53125,3.04687 q 0.34375,0.84375 1.28125,0.85938 0.78125,0.0156 1.32812,-0.60938 0.5625,-0.64062 0.73438,-1.89062 z m 3.04492,3.26562 h -1.04688 l 1.54688,-9 h 1.0625 z m 2.88281,0 h -1.04687 l 1.09375,-6.34375 h 1.0625 z m 0.875,-8.65625 q 0.26563,-0.0156 0.4375,0.15625 0.1875,0.17188 0.1875,0.45313 0,0.28125 -0.17187,0.46875 -0.17188,0.17187 -0.45313,0.1875 -0.28125,0 -0.45312,-0.17188 -0.17188,-0.17187 -0.17188,-0.4375 0.0156,-0.28125 0.17188,-0.45312 0.17187,-0.1875 0.45312,-0.20313 z m 3.66406,0.78125 -0.26562,1.53125 h 1.15625 l -0.15625,0.84375 h -1.14063 l -0.67187,3.9375 q -0.0156,0.15625 0,0.28125 0.0469,0.45313 0.5,0.45313 0.1875,0 0.51562,-0.0469 l -0.0781,0.875 q -0.39063,0.10938 -0.78125,0.10938 -0.625,-0.0156 -0.95313,-0.46875 -0.3125,-0.45313 -0.23437,-1.21875 l 0.64062,-3.92188 h -1.125 l 0.15625,-0.84375 h 1.10938 l 0.26562,-1.53125 z"
       fill="#ffffff" />
    <path
       id="path101"
       fill-rule="evenodd"
       d="m 547.1102,195.32545 h 104 v 31.33859 h -104 z"
       fill-opacity="0"
       fill="#000000" />
    <path
       id="path103"
       fill-rule="nonzero"
       d="m 564.2977,219.68546 h -1.75 l -3.82813,-5.01563 v 5.01563 h -1.39062 v -10.21875 h 1.39062 v 4.75 l 3.75,-4.75 h 1.64063 l -4.03125,4.85937 z m 9.375,-10.21875 -3.46875,10.21875 h -1.875 l -3.39063,-10.21875 h 1.57813 l 2.20312,6.89062 0.625,2.01563 0.64063,-2.01563 2.20312,-6.89062 z m 7.20312,9.48437 -0.84375,0.85938 -5.25,-4.39063 5.25,-4.375 0.84375,0.85938 -4.25,3.5 z m 10.34375,0.73438 h -1.51562 l -0.70313,-2.23438 h -4.25 l -0.71875,2.23438 h -1.45312 l 3.39062,-10.21875 h 1.90625 z m -2.625,-3.46875 -1.71875,-5.46875 -1.73437,5.46875 z m 4.5625,5.07812 q 0.40625,0.0156 0.78125,-0.0781 0.375,-0.0781 0.65625,-0.25 0.28125,-0.17188 0.45313,-0.42188 0.17187,-0.25 0.17187,-0.5625 0,-0.34375 -0.10937,-0.54687 -0.10938,-0.20313 -0.25,-0.375 -0.14063,-0.17188 -0.26563,-0.35938 -0.10937,-0.20312 -0.10937,-0.53125 0,-0.15625 0.0625,-0.32812 0.0625,-0.1875 0.1875,-0.32813 0.14062,-0.15625 0.32812,-0.25 0.20313,-0.0937 0.48438,-0.0937 0.26562,0 0.51562,0.10938 0.26563,0.10937 0.45313,0.34375 0.1875,0.23437 0.29687,0.59375 0.125,0.34375 0.125,0.82812 0,0.65625 -0.25,1.25 -0.23437,0.59375 -0.70312,1.04688 -0.46875,0.46875 -1.1875,0.73437 -0.70313,0.28125 -1.64063,0.28125 z m 23.95313,-1.60937 h -1.57813 l -1.51562,-3.26563 q -0.17188,-0.375 -0.35938,-0.625 -0.17187,-0.25 -0.39062,-0.39062 -0.20313,-0.14063 -0.45313,-0.20313 -0.23437,-0.0625 -0.54687,-0.0625 h -0.65625 v 4.54688 h -1.39063 v -10.21875 h 2.73438 q 0.89062,0 1.53125,0.20312 0.64062,0.1875 1.04687,0.54688 0.42188,0.34375 0.60938,0.84375 0.1875,0.5 0.1875,1.09375 0,0.48437 -0.14063,0.90625 -0.14062,0.42187 -0.42187,0.78125 -0.26563,0.34375 -0.6875,0.59375 -0.40625,0.25 -0.9375,0.375 0.4375,0.15625 0.73437,0.53125 0.29688,0.35937 0.60938,0.98437 z m -2.23438,-7.40625 q 0,-0.82813 -0.51562,-1.23438 -0.5,-0.40625 -1.4375,-0.40625 h -1.3125 v 3.375 h 1.125 q 0.5,0 0.89062,-0.10937 0.39063,-0.10938 0.67188,-0.32813 0.28125,-0.23437 0.42187,-0.54687 0.15625,-0.32813 0.15625,-0.75 z"
       fill="#000000" />
    <path
       id="path105"
       fill-rule="nonzero"
       d="m 623.4227,225.68546 h -1.17188 l -1.65625,-2.75 -1.65625,2.75 h -1.15625 l 2.26563,-3.46875 -2.07813,-3.32813 h 1.09375 l 1.54688,2.5625 1.57812,-2.5625 h 1.0625 l -2.09375,3.28125 z m 3.65576,-7.35938 -0.15625,2.45313 h -0.89062 l -0.14063,-2.45313 z"
       fill="#000000" />
    <path
       id="path107"
       fill-rule="nonzero"
       d="m 631.0467,211.9042 0.84375,-0.85938 5.25,4.375 -5.25,4.39063 -0.84375,-0.85938 4.25,-3.51562 z"
       fill="#000000" />
    <path
       id="path109"
       fill-rule="evenodd"
       d="m 433.0334,25.323118 v 0 c -1.55396,-3.918263 3.548,-7.797104 13.14096,-9.99059 9.59299,-2.193486 21.99454,-2.316926 31.94223,-0.317941 v 0 c 3.5238,-2.27824 9.97333,-3.851207 17.3978,-4.24311 7.42444,-0.391903 14.95178,0.443288 20.30508,2.252947 v 0 c 3.00183,-2.065599 8.89594,-3.4534183 15.59076,-3.6709857 6.69489,-0.2175684 13.24304,0.7659057 17.3208,2.6014337 v 0 c 5.42322,-2.1895293 14.0517,-3.1114129 22.1518,-2.3667449 8.10015,0.7446669 14.2171,3.0221369 15.70397,5.8469339 v 0 c 6.64435,0.621835 12.17896,2.202625 15.17383,4.333942 2.99494,2.131315 3.15631,4.604082 0.44251,6.779417 v 0 c 6.54272,2.921711 8.07324,6.814854 4.02038,10.226582 -4.05291,3.411724 -13.08026,5.82946 -23.71325,6.350944 -0.075,3.202027 -5.19312,6.140167 -13.38178,7.681938 -8.18866,1.541768 -18.16907,1.446408 -26.09436,-0.249321 -3.37573,3.83498 -12.87738,6.656723 -24.39984,7.246128 -11.52246,0.589409 -23.00009,-1.159183 -29.47415,-4.490314 -7.93588,1.641926 -17.45822,2.11491 -26.41907,1.312263 -8.96081,-0.80265 -16.60528,-2.813324 -21.20895,-5.578453 v 0 c -8.10944,0.3256 -15.95017,-1.115978 -19.63083,-3.609291 -3.68067,-2.493309 -2.41776,-5.507583 3.16195,-7.546848 v 0 c -7.23382,-1.460834 -10.92495,-4.359611 -9.14862,-7.184732 1.77634,-2.825123 8.61765,-4.936407 16.95642,-5.232903 z"
       fill="#ff9900" />
    <path
       id="path111"
       fill-rule="evenodd"
       d="m 425.06528,37.891766 v 0 c 3.4137,0.689373 7.35727,1.002087 11.3013,0.89616 m 5.1658,10.260231 c 1.69608,-0.0681 3.35855,-0.212307 4.94455,-0.428902 m 42.68109,4.694912 c -1.1929,-0.613792 -2.19168,-1.269683 -2.97928,-1.956493 m 56.85532,-0.799435 v 0 c 0.61548,-0.699173 1.01422,-1.418773 1.18964,-2.146797 m 38.28503,-5.285549 c 0.0798,-3.40905 -5.56354,-6.530414 -14.50598,-8.023369 m 34.19867,-8.553799 c -1.44818,1.160845 -3.65906,2.190617 -6.45917,3.008572 m -9.15582,-14.122235 v 0 c 0.24676,0.468776 0.36096,0.944598 0.341,1.420869 m -38.1961,-4.900916 v 0 c -1.35285,0.546178 -2.46735,1.156526 -3.30896,1.812038 m -29.60291,-0.742725 v 0 c -0.72095,0.49609 -1.25928,1.021039 -1.60266,1.562752 m -36.1008,0.427452 v 0 c 2.10495,0.422985 4.05228,0.932091 5.79925,1.516137 m -50.88186,8.79245 v 0 c 0.21417,0.540039 0.55258,1.073417 1.01205,1.595148"
       fill-opacity="0"
       fill="#000000" />
    <path
       id="path113"
       fill-rule="nonzero"
       d="m 456.44363,19.39394 h -1.96875 l -0.59375,3.453125 h -1.10938 l 1.48438,-8.531251 h 2.5625 q 1.34375,0.01563 2.04687,0.6875 0.70313,0.671875 0.59375,1.828126 -0.0625,0.8125 -0.59375,1.421875 -0.51562,0.609375 -1.375,0.90625 l 1.32813,3.609375 -0.0156,0.07813 h -1.17187 z m -1.8125,-0.921875 1.625,0.01563 q 0.84375,0 1.42187,-0.453125 0.57813,-0.453125 0.67188,-1.203125 0.0937,-0.734375 -0.29688,-1.140626 -0.375,-0.421875 -1.15625,-0.4375 l -1.70312,-0.01563 z m 9.22461,3.75 q -0.73438,0.765625 -1.89063,0.75 -0.90625,-0.03125 -1.34375,-0.65625 -0.4375,-0.625 -0.32812,-1.71875 l 0.6875,-4.09375 h 1.0625 l -0.6875,4.109375 q -0.0312,0.265625 -0.0156,0.515625 0.0312,0.421875 0.25,0.65625 0.21875,0.234375 0.625,0.265625 1.14063,0.03125 1.75,-0.921875 l 0.79688,-4.625 h 1.0625 l -1.09375,6.34375 h -1 z m 4.55273,-5.71875 -0.14062,0.796875 q 0.84375,-0.9375 1.9375,-0.90625 0.89062,0.01563 1.3125,0.625 0.4375,0.59375 0.32812,1.671875 l -0.6875,4.15625 h -1.0625 l 0.70313,-4.171875 q 0.0312,-0.28125 0,-0.53125 -0.0937,-0.828125 -0.96875,-0.84375 -0.95313,-0.01563 -1.67188,1.015625 l -0.78125,4.53125 h -1.0625 l 1.09375,-6.34375 z m 6.48047,0 -0.14062,0.796875 q 0.84375,-0.9375 1.9375,-0.90625 0.89062,0.01563 1.3125,0.625 0.4375,0.59375 0.32812,1.671875 l -0.6875,4.15625 h -1.0625 l 0.70313,-4.171875 q 0.0312,-0.28125 0,-0.53125 -0.0937,-0.828125 -0.96875,-0.84375 -0.95313,-0.01563 -1.67188,1.015625 l -0.78125,4.53125 h -1.0625 l 1.09375,-6.34375 z m 7.1211,6.46875 q -1.1875,-0.03125 -1.85938,-0.875 -0.65625,-0.859375 -0.54687,-2.1875 l 0.0312,-0.25 q 0.0937,-0.9375 0.54687,-1.71875 0.46875,-0.78125 1.125,-1.171875 0.67188,-0.390625 1.4375,-0.375 0.96875,0.01563 1.53125,0.640625 0.5625,0.625 0.60938,1.703125 0.0156,0.375 -0.0312,0.765625 l -0.0625,0.484375 h -4.14063 q -0.10937,0.859375 0.28125,1.46875 0.39063,0.59375 1.17188,0.625 0.9375,0.01563 1.73437,-0.84375 l 0.60938,0.515625 q -0.40625,0.578125 -1.03125,0.90625 -0.625,0.3125 -1.40625,0.3125 z m 0.67187,-5.703125 q -0.65625,-0.01563 -1.14062,0.453125 -0.48438,0.453125 -0.78125,1.375 h 3.09375 l 0.0156,-0.09375 q 0.0937,-0.734375 -0.23437,-1.21875 -0.32813,-0.5 -0.95313,-0.515625 z m 6.75391,0.203125 -0.5,-0.04687 q -1.01563,0 -1.60938,0.921875 l -0.76562,4.5 h -1.0625 l 1.09375,-6.34375 h 1.03125 l -0.15625,0.734375 q 0.67187,-0.890625 1.57812,-0.859375 0.20313,0 0.51563,0.09375 z m 6.9375,0 -0.5,-0.04687 q -1.01563,0 -1.60938,0.921875 l -0.76562,4.5 h -1.0625 l 1.09375,-6.34375 h 1.03125 l -0.15625,0.734375 q 0.67187,-0.890625 1.57812,-0.859375 0.20313,0 0.51563,0.09375 z m 2.68164,5.5 q -1.1875,-0.03125 -1.85938,-0.875 -0.65625,-0.859375 -0.54687,-2.1875 l 0.0312,-0.25 q 0.0937,-0.9375 0.54687,-1.71875 0.46875,-0.78125 1.125,-1.171875 0.67188,-0.390625 1.4375,-0.375 0.96875,0.01563 1.53125,0.640625 0.5625,0.625 0.60938,1.703125 0.0156,0.375 -0.0312,0.765625 l -0.0625,0.484375 h -4.14063 q -0.10937,0.859375 0.28125,1.46875 0.39063,0.59375 1.17188,0.625 0.9375,0.01563 1.73437,-0.84375 l 0.60938,0.515625 q -0.40625,0.578125 -1.03125,0.90625 -0.625,0.3125 -1.40625,0.3125 z m 0.67187,-5.703125 q -0.65625,-0.01563 -1.14062,0.453125 -0.48438,0.453125 -0.78125,1.375 h 3.09375 l 0.0156,-0.09375 q 0.0937,-0.734375 -0.23437,-1.21875 -0.32813,-0.5 -0.95313,-0.515625 z m 3.11328,2.390625 q 0.125,-0.96875 0.53125,-1.734375 0.42188,-0.78125 1.03125,-1.171875 0.60938,-0.390625 1.34375,-0.375 1.0625,0.03125 1.625,0.78125 l 0.60938,-3.312501 h 1.0625 l -1.5625,9.000001 h -0.96875 l 0.10937,-0.6875 q -0.75,0.828125 -1.84375,0.8125 -0.875,-0.03125 -1.40625,-0.6875 -0.51562,-0.671875 -0.5625,-1.796875 -0.0156,-0.34375 0.0312,-0.828125 z m 1.01563,0.609375 q -0.0156,0.84375 0.29687,1.3125 0.32813,0.453125 0.9375,0.46875 0.92188,0.04687 1.625,-0.921875 l 0.51563,-2.9375 q -0.35938,-0.859375 -1.28125,-0.890625 -0.625,-0.01563 -1.10938,0.390625 -0.46875,0.390625 -0.71875,1.109375 -0.25,0.703125 -0.26562,1.46875 z m 6.44922,2.578125 h -1.04688 l 1.09375,-6.34375 h 1.0625 z m 0.875,-8.656251 q 0.26562,-0.01563 0.4375,0.15625 0.1875,0.171875 0.1875,0.453125 0,0.28125 -0.17188,0.46875 -0.17187,0.171875 -0.45312,0.1875 -0.28125,0 -0.45313,-0.171875 -0.17187,-0.171875 -0.17187,-0.4375 0.0156,-0.28125 0.17187,-0.453125 0.17188,-0.1875 0.45313,-0.203125 z m 4.78903,6.937501 q 0.0937,-0.65625 -0.71875,-0.921875 l -1.10938,-0.328125 q -1.39062,-0.484375 -1.34375,-1.59375 0.0469,-0.828125 0.76563,-1.359375 0.71875,-0.546875 1.70312,-0.53125 0.95313,0 1.54688,0.5625 0.60937,0.546875 0.59375,1.421875 l -1.0625,-0.01563 q 0.0156,-0.46875 -0.29688,-0.765625 -0.3125,-0.296875 -0.82812,-0.3125 -0.54688,-0.01563 -0.9375,0.265625 -0.375,0.265625 -0.4375,0.703125 -0.0781,0.546875 0.67187,0.796875 l 0.53125,0.140625 q 1.09375,0.28125 1.54688,0.734375 0.46875,0.453125 0.42187,1.125 -0.0312,0.59375 -0.39062,1.03125 -0.34375,0.4375 -0.9375,0.671875 -0.57813,0.234375 -1.23438,0.21875 -1.01562,-0.01563 -1.67187,-0.59375 -0.65625,-0.578125 -0.625,-1.484375 h 1.0625 q 0,0.53125 0.32812,0.859375 0.34375,0.3125 0.9375,0.3125 0.57813,0.01563 1,-0.234375 0.42188,-0.25 0.48438,-0.703125 z m 4.93359,-6.156251 -0.26562,1.531251 h 1.15625 l -0.15625,0.84375 h -1.14063 l -0.67187,3.9375 q -0.0156,0.15625 0,0.28125 0.0469,0.453125 0.5,0.453125 0.1875,0 0.51562,-0.04687 l -0.0781,0.875 q -0.39063,0.109375 -0.78125,0.109375 -0.625,-0.01563 -0.95313,-0.46875 -0.3125,-0.453125 -0.23437,-1.21875 l 0.64062,-3.921875 h -1.125 l 0.15625,-0.84375 h 1.10938 l 0.26562,-1.531251 z m 5.00196,2.500001 -0.5,-0.04687 q -1.01563,0 -1.60938,0.921875 l -0.76562,4.5 h -1.0625 l 1.09375,-6.34375 h 1.03125 l -0.15625,0.734375 q 0.67187,-0.890625 1.57812,-0.859375 0.20313,0 0.51563,0.09375 z m 1.19922,5.375 h -1.04688 l 1.09375,-6.34375 h 1.0625 z m 0.875,-8.656251 q 0.26562,-0.01563 0.4375,0.15625 0.1875,0.171875 0.1875,0.453125 0,0.28125 -0.17188,0.46875 -0.17187,0.171875 -0.45312,0.1875 -0.28125,0 -0.45313,-0.171875 -0.17187,-0.171875 -0.17187,-0.4375 0.0156,-0.28125 0.17187,-0.453125 0.17188,-0.1875 0.45313,-0.203125 z m 6.61718,5.515626 q -0.125,0.96875 -0.54687,1.75 -0.40625,0.78125 -1,1.15625 -0.59375,0.375 -1.3125,0.359375 -1.14063,-0.03125 -1.70313,-0.859375 l -0.21875,0.734375 h -0.96875 l 1.5625,-9.000001 h 1.0625 l -0.64062,3.359376 q 0.76562,-0.84375 1.84375,-0.8125 0.92187,0.01563 1.42187,0.671875 0.51563,0.640625 0.54688,1.796875 0,0.375 -0.0312,0.71875 z m -1.01562,-0.609375 q 0.0312,-0.859375 -0.28125,-1.3125 -0.29688,-0.453125 -0.9375,-0.484375 -0.98438,-0.01563 -1.67188,1 l -0.46875,2.765625 q 0.34375,0.953125 1.3125,0.984375 0.625,0.01563 1.09375,-0.375 0.46875,-0.390625 0.70313,-1.09375 0.23437,-0.703125 0.25,-1.484375 z m 5.87304,3.125 q -0.73437,0.765625 -1.89062,0.75 -0.90625,-0.03125 -1.34375,-0.65625 -0.4375,-0.625 -0.32813,-1.71875 l 0.6875,-4.09375 h 1.0625 l -0.6875,4.109375 q -0.0312,0.265625 -0.0156,0.515625 0.0312,0.421875 0.25,0.65625 0.21875,0.234375 0.625,0.265625 1.14062,0.03125 1.75,-0.921875 l 0.79687,-4.625 h 1.0625 l -1.09375,6.34375 h -1 z m 5.25586,-7.250001 -0.26562,1.531251 h 1.15625 l -0.15625,0.84375 h -1.14063 l -0.67187,3.9375 q -0.0156,0.15625 0,0.28125 0.0469,0.453125 0.5,0.453125 0.1875,0 0.51562,-0.04687 l -0.0781,0.875 q -0.39063,0.109375 -0.78125,0.109375 -0.625,-0.01563 -0.95313,-0.46875 -0.3125,-0.453125 -0.23437,-1.21875 l 0.64062,-3.921875 h -1.125 l 0.15625,-0.84375 h 1.10938 l 0.26562,-1.531251 z m 3.79883,8.000001 q -1.1875,-0.03125 -1.85937,-0.875 -0.65625,-0.859375 -0.54688,-2.1875 l 0.0312,-0.25 q 0.0937,-0.9375 0.54688,-1.71875 0.46875,-0.78125 1.125,-1.171875 0.67187,-0.390625 1.4375,-0.375 0.96875,0.01563 1.53125,0.640625 0.5625,0.625 0.60937,1.703125 0.0156,0.375 -0.0312,0.765625 l -0.0625,0.484375 h -4.14062 q -0.10938,0.859375 0.28125,1.46875 0.39062,0.59375 1.17187,0.625 0.9375,0.01563 1.73438,-0.84375 l 0.60937,0.515625 q -0.40625,0.578125 -1.03125,0.90625 -0.625,0.3125 -1.40625,0.3125 z m 0.67188,-5.703125 q -0.65625,-0.01563 -1.14063,0.453125 -0.48437,0.453125 -0.78125,1.375 h 3.09375 l 0.0156,-0.09375 q 0.0937,-0.734375 -0.23438,-1.21875 -0.32812,-0.5 -0.95312,-0.515625 z m 6.73828,3.859375 q 0.0937,-0.65625 -0.71875,-0.921875 l -1.10938,-0.328125 q -1.39062,-0.484375 -1.34375,-1.59375 0.0469,-0.828125 0.76563,-1.359375 0.71875,-0.546875 1.70312,-0.53125 0.95313,0 1.54688,0.5625 0.60937,0.546875 0.59375,1.421875 l -1.0625,-0.01563 q 0.0156,-0.46875 -0.29688,-0.765625 -0.3125,-0.296875 -0.82812,-0.3125 -0.54688,-0.01563 -0.9375,0.265625 -0.375,0.265625 -0.4375,0.703125 -0.0781,0.546875 0.67187,0.796875 l 0.53125,0.140625 q 1.09375,0.28125 1.54688,0.734375 0.46875,0.453125 0.42187,1.125 -0.0312,0.59375 -0.39062,1.03125 -0.34375,0.4375 -0.9375,0.671875 -0.57813,0.234375 -1.23438,0.21875 -1.01562,-0.01563 -1.67187,-0.59375 -0.65625,-0.578125 -0.625,-1.484375 h 1.0625 q 0,0.53125 0.32812,0.859375 0.34375,0.3125 0.9375,0.3125 0.57813,0.01563 1,-0.234375 0.42188,-0.25 0.48438,-0.703125 z"
       fill="#ffffff" />
    <path
       id="path115"
       fill-rule="nonzero"
       d="m 469.0911,36.847065 q -0.0469,-0.171875 -0.0469,-0.328125 l 0.0156,-0.34375 q -0.85938,0.8125 -1.84375,0.796875 -0.84375,-0.01563 -1.375,-0.53125 -0.51563,-0.53125 -0.46875,-1.3125 0.0625,-1 0.875,-1.5625 0.82812,-0.5625 2.17187,-0.5625 h 1.10938 l 0.0781,-0.5 q 0.0469,-0.578127 -0.23437,-0.906252 -0.26563,-0.328125 -0.82813,-0.34375 -0.54687,-0.01563 -0.96875,0.265625 -0.40625,0.28125 -0.5,0.734377 l -1.07812,0.01563 q 0.0625,-0.562502 0.4375,-0.984377 0.375,-0.4375 0.96875,-0.671875 0.60937,-0.234375 1.25,-0.234375 0.98437,0.03125 1.53125,0.609375 0.5625,0.578125 0.46875,1.531252 l -0.51563,3.140625 -0.0312,0.453125 q -0.0156,0.3125 0.0781,0.640625 l -0.0156,0.09375 z m -1.67188,-0.828125 q 0.51563,0.01563 0.96875,-0.234375 0.45313,-0.25 0.78125,-0.703125 l 0.23438,-1.3125 h -0.8125 q -1,0 -1.53125,0.3125 -0.53125,0.3125 -0.59375,0.890625 -0.0625,0.453125 0.20312,0.75 0.26563,0.296875 0.75,0.296875 z m 6.86133,0.0625 q 0.5625,0.01563 1.01563,-0.328125 0.46875,-0.34375 0.60937,-0.90625 h 1 q -0.0937,0.59375 -0.48437,1.09375 -0.375,0.484375 -0.96875,0.765625 -0.59375,0.28125 -1.21875,0.265625 -0.79688,-0.01563 -1.34375,-0.421875 -0.54688,-0.40625 -0.8125,-1.125 -0.25,-0.71875 -0.15625,-1.609375 l 0.0156,-0.296875 q 0.125,-0.90625 0.54688,-1.625002 0.42187,-0.71875 1.09375,-1.125 0.6875,-0.40625 1.5,-0.375 1,0.01563 1.59375,0.671875 0.59375,0.640625 0.59375,1.625002 h -0.98438 q -0.0156,-0.625 -0.35937,-1.000002 -0.32813,-0.390625 -0.89063,-0.421875 -0.82812,-0.01563 -1.375,0.625 -0.54687,0.625002 -0.6875,1.765627 l -0.0156,0.15625 q -0.0312,0.375 0,0.765625 0.0312,0.6875 0.375,1.09375 0.34375,0.390625 0.95312,0.40625 z m 7.41797,-4.609377 -0.5,-0.04687 q -1.01562,0 -1.60937,0.921877 l -0.76563,4.5 h -1.0625 l 1.09375,-6.343752 h 1.03125 l -0.15625,0.734375 q 0.67188,-0.890625 1.57813,-0.859375 0.20312,0 0.51562,0.09375 z m 3.45703,-1.078125 q 0.79688,0 1.35938,0.421875 0.57812,0.421875 0.84375,1.171875 0.28125,0.734377 0.1875,1.625002 l -0.0156,0.125 q -0.10937,0.921875 -0.54687,1.671875 -0.4375,0.75 -1.14063,1.171875 -0.6875,0.40625 -1.53125,0.390625 -0.78125,-0.01563 -1.35937,-0.4375 -0.5625,-0.421875 -0.82813,-1.140625 -0.26562,-0.734375 -0.1875,-1.609375 0.0781,-0.984375 0.51563,-1.765625 0.45312,-0.796877 1.15625,-1.218752 0.70312,-0.4375 1.54687,-0.40625 z m -2.15625,3.390627 q -0.0469,0.375 0,0.765625 0.0625,0.703125 0.40625,1.109375 0.35938,0.40625 0.95313,0.421875 0.53125,0.01563 0.96875,-0.25 0.45312,-0.28125 0.75,-0.84375 0.3125,-0.5625 0.39062,-1.25 0.0469,-0.546875 0.0312,-0.90625 -0.0781,-0.71875 -0.4375,-1.125002 -0.35937,-0.40625 -0.95312,-0.4375 -0.8125,-0.01563 -1.39063,0.65625 -0.57812,0.656252 -0.70312,1.734377 z m 9.25977,1.34375 q 0.0937,-0.65625 -0.71875,-0.921875 l -1.10938,-0.328125 q -1.39062,-0.484375 -1.34375,-1.59375 0.0469,-0.828127 0.76563,-1.359377 0.71875,-0.546875 1.70312,-0.53125 0.95313,0 1.54688,0.5625 0.60937,0.546875 0.59375,1.421877 l -1.0625,-0.01563 q 0.0156,-0.468752 -0.29688,-0.765627 -0.3125,-0.296875 -0.82812,-0.3125 -0.54688,-0.01563 -0.9375,0.265625 -0.375,0.265625 -0.4375,0.703127 -0.0781,0.546875 0.67187,0.796875 l 0.53125,0.140625 q 1.09375,0.28125 1.54688,0.734375 0.46875,0.453125 0.42187,1.125 -0.0312,0.59375 -0.39062,1.03125 -0.34375,0.4375 -0.9375,0.671875 -0.57813,0.234375 -1.23438,0.21875 -1.01562,-0.01563 -1.67187,-0.59375 -0.65625,-0.578125 -0.625,-1.484375 h 1.0625 q 0,0.53125 0.32812,0.859375 0.34375,0.3125 0.9375,0.3125 0.57813,0.01563 1,-0.234375 0.42188,-0.25 0.48438,-0.703125 z m 6.05859,0 q 0.0937,-0.65625 -0.71875,-0.921875 l -1.10937,-0.328125 q -1.39063,-0.484375 -1.34375,-1.59375 0.0469,-0.828127 0.76562,-1.359377 0.71875,-0.546875 1.70313,-0.53125 0.95312,0 1.54687,0.5625 0.60938,0.546875 0.59375,1.421877 l -1.0625,-0.01563 q 0.0156,-0.468752 -0.29687,-0.765627 -0.3125,-0.296875 -0.82813,-0.3125 -0.54687,-0.01563 -0.9375,0.265625 -0.375,0.265625 -0.4375,0.703127 -0.0781,0.546875 0.67188,0.796875 l 0.53125,0.140625 q 1.09375,0.28125 1.54687,0.734375 0.46875,0.453125 0.42188,1.125 -0.0312,0.59375 -0.39063,1.03125 -0.34375,0.4375 -0.9375,0.671875 -0.57812,0.234375 -1.23437,0.21875 -1.01563,-0.01563 -1.67188,-0.59375 -0.65625,-0.578125 -0.625,-1.484375 h 1.0625 q 0,0.53125 0.32813,0.859375 0.34375,0.3125 0.9375,0.3125 0.57812,0.01563 1,-0.234375 0.42187,-0.25 0.48437,-0.703125 z m 7.17188,-4.625002 -0.14063,0.703125 q 0.79688,-0.84375 1.92188,-0.8125 0.60937,0 1.03125,0.265625 0.42187,0.265625 0.57812,0.75 0.89063,-1.046875 2.09375,-1.015625 0.95313,0.01563 1.40622,0.640625 0.45313,0.609375 0.32813,1.640627 l -0.6875,4.171875 h -1.06247 l 0.6875,-4.171875 q 0.0469,-0.3125 0,-0.5625 -0.10938,-0.796877 -1.03125,-0.812502 -0.57813,-0.01563 -1.0625,0.359375 -0.46875,0.375002 -0.59375,0.968752 l -0.73438,4.21875 h -1.0625 l 0.70313,-4.171875 q 0.0781,-0.65625 -0.20313,-1.000002 -0.26562,-0.359375 -0.84375,-0.359375 -0.98437,-0.03125 -1.5625,0.890627 l -0.8125,4.640625 h -1.0625 l 1.10938,-6.343752 z m 12.18161,5.718752 q -0.73438,0.765625 -1.89063,0.75 -0.90625,-0.03125 -1.34375,-0.65625 -0.4375,-0.625 -0.32812,-1.71875 l 0.6875,-4.093752 h 1.0625 l -0.6875,4.109377 q -0.0312,0.265625 -0.0156,0.515625 0.0312,0.421875 0.25,0.65625 0.21875,0.234375 0.625,0.265625 1.14063,0.03125 1.75,-0.921875 l 0.79688,-4.625002 h 1.0625 l -1.09375,6.343752 h -1 z m 5.25586,-7.250002 -0.26563,1.53125 h 1.15625 l -0.15625,0.84375 h -1.14062 l -0.67188,3.937502 q -0.0156,0.15625 0,0.28125 0.0469,0.453125 0.5,0.453125 0.1875,0 0.51563,-0.04687 l -0.0781,0.875 q -0.39062,0.109375 -0.78125,0.109375 -0.625,-0.01563 -0.95312,-0.46875 -0.3125,-0.453125 -0.23438,-1.21875 l 0.64063,-3.921877 h -1.125 l 0.15625,-0.84375 h 1.10937 l 0.26563,-1.53125 z m 2.20508,7.875002 h -1.04688 l 1.54688,-9.000002 h 1.0625 z m 2.88281,0 h -1.04688 l 1.09375,-6.343752 h 1.0625 z m 0.875,-8.656252 q 0.26562,-0.01563 0.4375,0.15625 0.1875,0.171875 0.1875,0.453125 0,0.28125 -0.17188,0.46875 -0.17187,0.171875 -0.45312,0.1875 -0.28125,0 -0.45313,-0.171875 -0.17187,-0.171875 -0.17187,-0.4375 0.0156,-0.28125 0.17187,-0.453125 0.17188,-0.1875 0.45313,-0.203125 z m 6.60156,5.515627 q -0.10937,0.96875 -0.51562,1.75 -0.40625,0.765625 -1.01563,1.15625 -0.59375,0.375 -1.3125,0.359375 -1.10937,-0.03125 -1.6875,-0.75 l -0.5625,3.0625 h -1.0625 l 1.51563,-8.781252 h 0.96875 l -0.125,0.703125 q 0.78125,-0.84375 1.89062,-0.8125 0.90625,0.01563 1.40625,0.671875 0.51563,0.640625 0.54688,1.796877 0.0156,0.375 -0.0312,0.71875 z m -1.04687,-0.125 0.0312,-0.484375 q 0,-0.859375 -0.32813,-1.312502 -0.3125,-0.453125 -0.9375,-0.484375 -0.92187,-0.01563 -1.57812,0.875002 l -0.53125,3.046875 q 0.34375,0.84375 1.28125,0.859375 0.78125,0.01563 1.32812,-0.609375 0.5625,-0.640625 0.73438,-1.890625 z m 3.04492,3.265625 h -1.04688 l 1.54688,-9.000002 h 1.0625 z m 4.47656,0.125 q -1.1875,-0.03125 -1.85938,-0.875 -0.65625,-0.859375 -0.54687,-2.1875 l 0.0312,-0.25 q 0.0937,-0.9375 0.54687,-1.718752 0.46875,-0.78125 1.125,-1.171875 0.67188,-0.390625 1.4375,-0.375 0.96875,0.01563 1.53125,0.640625 0.5625,0.625 0.60938,1.703127 0.0156,0.375 -0.0312,0.765625 l -0.0625,0.484375 h -4.14063 q -0.10937,0.859375 0.28125,1.46875 0.39063,0.59375 1.17188,0.625 0.9375,0.01563 1.73437,-0.84375 l 0.60938,0.515625 q -0.40625,0.578125 -1.03125,0.90625 -0.625,0.3125 -1.40625,0.3125 z m 0.67187,-5.703127 q -0.65625,-0.01563 -1.14062,0.453125 -0.48438,0.453127 -0.78125,1.375002 h 3.09375 l 0.0156,-0.09375 q 0.0937,-0.734375 -0.23437,-1.218752 -0.32813,-0.5 -0.95313,-0.515625 z"
       fill="#ffffff" />
    <path
       id="path117"
       fill-rule="nonzero"
       d="m 490.21317,49.347065 2.01562,-4.84375 h 1.09375 l -2.89062,6.34375 h -0.85938 l -0.65625,-4.796875 -2.28125,4.796875 h -0.85937 l -0.6875,-6.34375 h 1.01562 l 0.39063,4.71875 2.25,-4.71875 h 0.84375 z m 6.63477,-4.953125 q 0.79687,0 1.35937,0.421875 0.57813,0.421875 0.84375,1.171875 0.28125,0.734375 0.1875,1.625 l -0.0156,0.125 q -0.10938,0.921875 -0.54688,1.671875 -0.4375,0.75 -1.14062,1.171875 -0.6875,0.40625 -1.53125,0.390625 -0.78125,-0.01563 -1.35938,-0.4375 -0.5625,-0.421875 -0.82812,-1.140625 -0.26563,-0.734375 -0.1875,-1.609375 0.0781,-0.984375 0.51562,-1.765625 0.45313,-0.796875 1.15625,-1.21875 0.70313,-0.4375 1.54688,-0.40625 z m -2.15625,3.390625 q -0.0469,0.375 0,0.765625 0.0625,0.703125 0.40625,1.109375 0.35937,0.40625 0.95312,0.421875 0.53125,0.01563 0.96875,-0.25 0.45313,-0.28125 0.75,-0.84375 0.3125,-0.5625 0.39063,-1.25 0.0469,-0.546875 0.0312,-0.90625 -0.0781,-0.71875 -0.4375,-1.125 -0.35938,-0.40625 -0.95313,-0.4375 -0.8125,-0.01563 -1.39062,0.65625 -0.57813,0.65625 -0.70313,1.734375 z m 9.27539,-2.3125 -0.5,-0.04687 q -1.01563,0 -1.60938,0.921875 l -0.76562,4.5 h -1.0625 l 1.09375,-6.34375 h 1.03125 l -0.15625,0.734375 q 0.67187,-0.890625 1.57812,-0.859375 0.20313,0 0.51563,0.09375 z m 2.32422,2.453125 -0.82813,0.734375 -0.375,2.1875 h -1.0625 l 1.5625,-9 h 1.0625 l -0.9375,5.375 0.65625,-0.65625 2.25,-2.0625 h 1.375 l -2.92187,2.703125 2.01562,3.640625 h -1.17187 z m 6.31051,3.046875 q -1.18747,-0.03125 -1.85934,-0.875 -0.65625,-0.859375 -0.54688,-2.1875 l 0.0312,-0.25 q 0.0937,-0.9375 0.54688,-1.71875 0.46875,-0.78125 1.125,-1.171875 0.67184,-0.390625 1.43747,-0.375 0.96875,0.01563 1.53125,0.640625 0.5625,0.625 0.60937,1.703125 0.0156,0.375 -0.0312,0.765625 l -0.0625,0.484375 h -4.14059 q -0.10938,0.859375 0.28125,1.46875 0.39062,0.59375 1.17184,0.625 0.9375,0.01563 1.73438,-0.84375 l 0.60937,0.515625 q -0.40625,0.578125 -1.03125,0.90625 -0.625,0.3125 -1.40625,0.3125 z m 0.67188,-5.703125 q -0.65625,-0.01563 -1.14063,0.453125 -0.48434,0.453125 -0.78122,1.375 h 3.09372 l 0.0156,-0.09375 q 0.0937,-0.734375 -0.23438,-1.21875 -0.32812,-0.5 -0.95312,-0.515625 z m 6.7539,0.203125 -0.5,-0.04687 q -1.01562,0 -1.60937,0.921875 l -0.76563,4.5 h -1.0625 l 1.09375,-6.34375 h 1.03125 l -0.15625,0.734375 q 0.67188,-0.890625 1.57813,-0.859375 0.20312,0 0.51562,0.09375 z m 3.98047,3.65625 q 0.0937,-0.65625 -0.71875,-0.921875 l -1.10937,-0.328125 q -1.39063,-0.484375 -1.34375,-1.59375 0.0469,-0.828125 0.76562,-1.359375 0.71875,-0.546875 1.70313,-0.53125 0.95312,0 1.54687,0.5625 0.60938,0.546875 0.59375,1.421875 l -1.0625,-0.01563 q 0.0156,-0.46875 -0.29687,-0.765625 -0.3125,-0.296875 -0.82813,-0.3125 -0.54687,-0.01563 -0.9375,0.265625 -0.375,0.265625 -0.4375,0.703125 -0.0781,0.546875 0.67188,0.796875 l 0.53125,0.140625 q 1.09375,0.28125 1.54687,0.734375 0.46875,0.453125 0.42188,1.125 -0.0312,0.59375 -0.39063,1.03125 -0.34375,0.4375 -0.9375,0.671875 -0.57812,0.234375 -1.23437,0.21875 -1.01563,-0.01563 -1.67188,-0.59375 -0.65625,-0.578125 -0.625,-1.484375 h 1.0625 q 0,0.53125 0.32813,0.859375 0.34375,0.3125 0.9375,0.3125 0.57812,0.01563 1,-0.234375 0.42187,-0.25 0.48437,-0.703125 z"
       fill="#ffffff" />
  </g>
</svg>
