<!--
 Licensed to the Apache Software Foundation (ASF) under one
 or more contributor license agreements.  See the NOTICE file
 distributed with this work for additional information
 regarding copyright ownership.  The ASF licenses this file
 to you under the Apache License, Version 2.0 (the
 "License"); you may not use this file except in compliance
 with the License.  You may obtain a copy of the License at

   http://www.apache.org/licenses/LICENSE-2.0

 Unless required by applicable law or agreed to in writing,
 software distributed under the License is distributed on an
 "AS IS" BASIS, WITHOUT WARRANTIES OR CONDITIONS OF ANY
 KIND, either express or implied.  See the License for the
 specific language governing permissions and limitations
 under the License.
-->

<svg version="1.1" xmlns="http://www.w3.org/2000/svg" viewBox="0 0 1760 760" width="1760" height="760">
  <!-- svg-source:excalidraw -->
  
  <defs>
    <style>
      @font-face {
        font-family: "Virgil";
        src: url("https://excalidraw.com/Virgil.woff2");
      }
      @font-face {
        font-family: "Cascadia";
        src: url("https://excalidraw.com/Cascadia.woff2");
      }
    </style>
  </defs>
  <g stroke-linecap="round" transform="translate(250 10) rotate(0 630 370)"><path d="M0 0 L1260 0 L1260 740 L0 740" stroke="none" stroke-width="0" fill="#c4e1ff"></path><path d="M0 0 C397.89 0, 795.78 0, 1260 0 M0 0 C477.48 0, 954.96 0, 1260 0 M1260 0 C1260 260.17, 1260 520.35, 1260 740 M1260 0 C1260 187.03, 1260 374.07, 1260 740 M1260 740 C851.51 740, 443.02 740, 0 740 M1260 740 C779.96 740, 299.91 740, 0 740 M0 740 C0 507.56, 0 275.12, 0 0 M0 740 C0 476.82, 0 213.65, 0 0" stroke="#ffff" stroke-width="1" fill="none"></path></g><g stroke-linecap="round" transform="translate(310 330) rotate(0 90 80)"><path d="M0 0 L180 0 L180 160 L0 160" stroke="none" stroke-width="0" fill="#fffee9"></path><path d="M0 0 C62.69 0, 125.39 0, 180 0 M0 0 C57.98 0, 115.96 0, 180 0 M180 0 C180 56.49, 180 112.97, 180 160 M180 0 C180 42.51, 180 85.02, 180 160 M180 160 C113.89 160, 47.77 160, 0 160 M180 160 C143.05 160, 106.1 160, 0 160 M0 160 C0 114.03, 0 68.06, 0 0 M0 160 C0 126.95, 0 93.91, 0 0" stroke="#ffff" stroke-width="1" fill="none"></path></g><g stroke-linecap="round" transform="translate(630 330) rotate(0 90 80)"><path d="M0 0 L180 0 L180 160 L0 160" stroke="none" stroke-width="0" fill="#fffee9"></path><path d="M0 0 C61.13 0, 122.27 0, 180 0 M0 0 C54.9 0, 109.81 0, 180 0 M180 0 C180 60.17, 180 120.34, 180 160 M180 0 C180 54.94, 180 109.87, 180 160 M180 160 C108.82 160, 37.64 160, 0 160 M180 160 C138.17 160, 96.34 160, 0 160 M0 160 C0 99.55, 0 39.09, 0 0 M0 160 C0 104.69, 0 49.37, 0 0" stroke="#ffff" stroke-width="1" fill="none"></path></g><g stroke-linecap="round" transform="translate(950 110) rotate(0 90 80)"><path d="M0 0 L180 0 L180 160 L0 160" stroke="none" stroke-width="0" fill="#fffee9"></path><path d="M0 0 C71.52 0, 143.04 0, 180 0 M0 0 C56.33 0, 112.66 0, 180 0 M180 0 C180 44.34, 180 88.68, 180 160 M180 0 C180 59.06, 180 118.12, 180 160 M180 160 C121.4 160, 62.8 160, 0 160 M180 160 C121.87 160, 63.74 160, 0 160 M0 160 C0 114.71, 0 69.42, 0 0 M0 160 C0 125.66, 0 91.32, 0 0" stroke="#ffff" stroke-width="1" fill="none"></path></g><g stroke-linecap="round" transform="translate(950 330) rotate(0 90 80)"><path d="M0 0 L180 0 L180 160 L0 160" stroke="none" stroke-width="0" fill="#fffee9"></path><path d="M0 0 C66.09 0, 132.18 0, 180 0 M0 0 C71.48 0, 142.96 0, 180 0 M180 0 C180 57.07, 180 114.14, 180 160 M180 0 C180 39.95, 180 79.89, 180 160 M180 160 C121.66 160, 63.32 160, 0 160 M180 160 C136.06 160, 92.12 160, 0 160 M0 160 C0 102.14, 0 44.28, 0 0 M0 160 C0 108.29, 0 56.59, 0 0" stroke="#ffff" stroke-width="1" fill="none"></path></g><g stroke-linecap="round" transform="translate(1270 210) rotate(0 90 80)"><path d="M0 0 L180 0 L180 160 L0 160" stroke="none" stroke-width="0" fill="#fffee9"></path><path d="M0 0 C50.37 0, 100.75 0, 180 0 M0 0 C44.38 0, 88.76 0, 180 0 M180 0 C180 51.69, 180 103.38, 180 160 M180 0 C180 37.48, 180 74.96, 180 160 M180 160 C112.24 160, 44.47 160, 0 160 M180 160 C108.91 160, 37.82 160, 0 160 M0 160 C0 126.05, 0 92.11, 0 0 M0 160 C0 103.03, 0 46.05, 0 0" stroke="#ffff" stroke-width="1" fill="none"></path></g><g stroke-linecap="round" transform="translate(1270 530) rotate(0 90 80)"><path d="M0 0 L180 0 L180 160 L0 160" stroke="none" stroke-width="0" fill="#fffee9"></path><path d="M0 0 C53.63 0, 107.27 0, 180 0 M0 0 C69.68 0, 139.36 0, 180 0 M180 0 C180 62.32, 180 124.64, 180 160 M180 0 C180 38.14, 180 76.28, 180 160 M180 160 C136.76 160, 93.52 160, 0 160 M180 160 C111.59 160, 43.17 160, 0 160 M0 160 C0 117.29, 0 74.57, 0 0 M0 160 C0 110.13, 0 60.27, 0 0" stroke="#ffff" stroke-width="1" fill="none"></path></g><g stroke-linecap="round" transform="translate(950 530) rotate(0 90 80)"><path d="M0 0 L180 0 L180 160 L0 160" stroke="none" stroke-width="0" fill="#fffee9"></path><path d="M0 0 C52.88 0, 105.76 0, 180 0 M0 0 C57.91 0, 115.83 0, 180 0 M180 0 C180 45.76, 180 91.53, 180 160 M180 0 C180 53, 180 106, 180 160 M180 160 C112.51 160, 45.01 160, 0 160 M180 160 C143.9 160, 107.81 160, 0 160 M0 160 C0 103.71, 0 47.42, 0 0 M0 160 C0 102.94, 0 45.89, 0 0" stroke="#ffff" stroke-width="1" fill="none"></path></g><g transform="translate(830 30) rotate(0 51 11.5)"><text x="0" y="18" font-family="Helvetica, Segoe UI Emoji" font-size="20px" fill="#000000" text-anchor="start" style="white-space: pre;" direction="ltr">Beam DAG</text></g><g transform="translate(315 398.5) rotate(0 85 11.5)"><text x="85" y="18" font-family="Helvetica, Segoe UI Emoji" font-size="20px" fill="#000000" text-anchor="middle" style="white-space: pre;" direction="ltr">Load Data</text></g><g transform="translate(635 398.5) rotate(0 85 11.5)"><text x="85" y="18" font-family="Helvetica, Segoe UI Emoji" font-size="20px" fill="#000000" text-anchor="middle" style="white-space: pre;" direction="ltr">Transform</text></g><g transform="translate(955 178.5) rotate(0 85 11.5)"><text x="85" y="18" font-family="Helvetica, Segoe UI Emoji" font-size="20px" fill="#000000" text-anchor="middle" style="white-space: pre;" direction="ltr">Transform</text></g><g transform="translate(955 398.5) rotate(0 85 11.5)"><text x="85" y="18" font-family="Helvetica, Segoe UI Emoji" font-size="20px" fill="#000000" text-anchor="middle" style="white-space: pre;" direction="ltr">Transform</text></g><g transform="translate(1275 278.5) rotate(0 85 11.5)"><text x="85" y="18" font-family="Helvetica, Segoe UI Emoji" font-size="20px" fill="#000000" text-anchor="middle" style="white-space: pre;" direction="ltr">Transform</text></g><g transform="translate(1275 598.5) rotate(0 85 11.5)"><text x="85" y="18" font-family="Helvetica, Segoe UI Emoji" font-size="20px" fill="#000000" text-anchor="middle" style="white-space: pre;" direction="ltr">Transform</text></g><g transform="translate(955 598.5) rotate(0 85 11.5)"><text x="85" y="18" font-family="Helvetica, Segoe UI Emoji" font-size="20px" fill="#000000" text-anchor="middle" style="white-space: pre;" direction="ltr">Transform</text></g><g stroke-linecap="round" transform="translate(10 330) rotate(0 80 80)"><path d="M0 0 C39.45 0, 78.9 0, 160 0 M160 0 C160 51.69, 160 103.38, 160 160 M160 160 C122.52 160, 85.04 160, 0 160 M0 160 C0 99.76, 0 39.53, 0 0" stroke="#000000" stroke-width="1.5" fill="none" stroke-dasharray="8 9"></path></g><g stroke-linecap="round" transform="translate(1590 210) rotate(0 80 80)"><path d="M0 0 C61.94 0, 123.87 0, 160 0 M160 0 C160 62.32, 160 124.64, 160 160 M160 160 C121.86 160, 83.72 160, 0 160 M0 160 C0 121.56, 0 83.13, 0 0" stroke="#000000" stroke-width="1.5" fill="none" stroke-dasharray="8 9"></path></g><g stroke-linecap="round" transform="translate(1590 530) rotate(0 80 80)"><path d="M0 0 C51.48 0, 102.96 0, 160 0 M160 0 C160 45.76, 160 91.53, 160 160 M160 160 C107 160, 54 160, 0 160 M0 160 C0 100, 0 40.01, 0 0" stroke="#000000" stroke-width="1.5" fill="none" stroke-dasharray="8 9"></path></g><g transform="translate(15 398.5) rotate(0 75 11.5)"><text x="75" y="18" font-family="Helvetica, Segoe UI Emoji" font-size="20px" fill="#000000" text-anchor="middle" style="white-space: pre;" direction="ltr">Data sources</text></g><g transform="translate(1595 278.5) rotate(0 75 11.5)"><text x="75" y="18" font-family="Helvetica, Segoe UI Emoji" font-size="20px" fill="#000000" text-anchor="middle" style="white-space: pre;" direction="ltr">Output</text></g><g transform="translate(1595 598.5) rotate(0 75 11.5)"><text x="75" y="18" font-family="Helvetica, Segoe UI Emoji" font-size="20px" fill="#000000" text-anchor="middle" style="white-space: pre;" direction="ltr">Output</text></g><g stroke-linecap="round"><g transform="translate(171 410) rotate(0 69 0)"><path d="M0 0 C23 0, 115 0, 138 0 M0 0 C23 0, 115 0, 138 0" stroke="#000000" stroke-width="1" fill="none"></path></g><g transform="translate(171 410) rotate(0 69 0)"><path d="M109.81 10.26 C119.72 6.65, 129.63 3.05, 138 0 M109.81 10.26 C116.93 7.67, 124.06 5.07, 138 0" stroke="#000000" stroke-width="1" fill="none"></path></g><g transform="translate(171 410) rotate(0 69 0)"><path d="M109.81 -10.26 C119.72 -6.65, 129.63 -3.05, 138 0 M109.81 -10.26 C116.93 -7.67, 124.06 -5.07, 138 0" stroke="#000000" stroke-width="1" fill="none"></path></g></g><g stroke-linecap="round"><g transform="translate(1130 610) rotate(0 70 0)"><path d="M0 0 C23.33 0, 116.67 0, 140 0 M0 0 C23.33 0, 116.67 0, 140 0" stroke="#000000" stroke-width="1" fill="none"></path></g><g transform="translate(1130 610) rotate(0 70 0)"><path d="M111.81 10.26 C121.76 6.64, 131.71 3.02, 140 0 M111.81 10.26 C119.3 7.53, 126.79 4.81, 140 0" stroke="#000000" stroke-width="1" fill="none"></path></g><g transform="translate(1130 610) rotate(0 70 0)"><path d="M111.81 -10.26 C121.76 -6.64, 131.71 -3.02, 140 0 M111.81 -10.26 C119.3 -7.53, 126.79 -4.81, 140 0" stroke="#000000" stroke-width="1" fill="none"></path></g></g><g stroke-linecap="round"><g transform="translate(1450 610) rotate(0 70 0)"><path d="M0 0 C23.33 0, 116.67 0, 140 0 M0 0 C23.33 0, 116.67 0, 140 0" stroke="#000000" stroke-width="1" fill="none"></path></g><g transform="translate(1450 610) rotate(0 70 0)"><path d="M111.81 10.26 C122.41 6.4, 133.01 2.54, 140 0 M111.81 10.26 C121.49 6.74, 131.17 3.21, 140 0" stroke="#000000" stroke-width="1" fill="none"></path></g><g transform="translate(1450 610) rotate(0 70 0)"><path d="M111.81 -10.26 C122.41 -6.4, 133.01 -2.54, 140 0 M111.81 -10.26 C121.49 -6.74, 131.17 -3.21, 140 0" stroke="#000000" stroke-width="1" fill="none"></path></g></g><g stroke-linecap="round"><g transform="translate(1450 290) rotate(0 70 0)"><path d="M0 0 C23.33 0, 116.67 0, 140 0 M0 0 C23.33 0, 116.67 0, 140 0" stroke="#000000" stroke-width="1" fill="none"></path></g><g transform="translate(1450 290) rotate(0 70 0)"><path d="M111.81 10.26 C119.62 7.42, 127.43 4.57, 140 0 M111.81 10.26 C122.22 6.47, 132.62 2.69, 140 0" stroke="#000000" stroke-width="1" fill="none"></path></g><g transform="translate(1450 290) rotate(0 70 0)"><path d="M111.81 -10.26 C119.62 -7.42, 127.43 -4.57, 140 0 M111.81 -10.26 C122.22 -6.47, 132.62 -2.69, 140 0" stroke="#000000" stroke-width="1" fill="none"></path></g></g><g stroke-linecap="round"><g transform="translate(810 410) rotate(0 70 0)"><path d="M0 0 C23.33 0, 116.67 0, 140 0 M0 0 C23.33 0, 116.67 0, 140 0" stroke="#000000" stroke-width="1" fill="none"></path></g><g transform="translate(810 410) rotate(0 70 0)"><path d="M111.81 10.26 C121.86 6.6, 131.92 2.94, 140 0 M111.81 10.26 C118.85 7.7, 125.89 5.14, 140 0" stroke="#000000" stroke-width="1" fill="none"></path></g><g transform="translate(810 410) rotate(0 70 0)"><path d="M111.81 -10.26 C121.86 -6.6, 131.92 -2.94, 140 0 M111.81 -10.26 C118.85 -7.7, 125.89 -5.14, 140 0" stroke="#000000" stroke-width="1" fill="none"></path></g></g><g stroke-linecap="round"><g transform="translate(491 410) rotate(0 68.5 0)"><path d="M0 0 C22.83 0, 114.17 0, 137 0 M0 0 C22.83 0, 114.17 0, 137 0" stroke="#000000" stroke-width="1" fill="none"></path></g><g transform="translate(491 410) rotate(0 68.5 0)"><path d="M108.81 10.26 C117.92 6.95, 127.02 3.63, 137 0 M108.81 10.26 C115.41 7.86, 122.02 5.45, 137 0" stroke="#000000" stroke-width="1" fill="none"></path></g><g transform="translate(491 410) rotate(0 68.5 0)"><path d="M108.81 -10.26 C117.92 -6.95, 127.02 -3.63, 137 0 M108.81 -10.26 C115.41 -7.86, 122.02 -5.45, 137 0" stroke="#000000" stroke-width="1" fill="none"></path></g></g><g stroke-linecap="round"><g transform="translate(811 391.2337350905036) rotate(0 69 -96.45043848603018)"><path d="M0 0 C23 -32.15, 115 -160.75, 138 -192.9 M0 0 C23 -32.15, 115 -160.75, 138 -192.9" stroke="#000000" stroke-width="1" fill="none"></path></g><g transform="translate(811 391.2337350905036) rotate(0 69 -96.45043848603018)"><path d="M129.94 -164 C133.08 -175.26, 136.22 -186.51, 138 -192.9 M129.94 -164 C131.86 -170.89, 133.78 -177.78, 138 -192.9" stroke="#000000" stroke-width="1" fill="none"></path></g><g transform="translate(811 391.2337350905036) rotate(0 69 -96.45043848603018)"><path d="M113.25 -175.94 C122.89 -182.55, 132.53 -189.15, 138 -192.9 M113.25 -175.94 C119.15 -179.99, 125.05 -184.03, 138 -192.9" stroke="#000000" stroke-width="1" fill="none"></path></g></g><g stroke-linecap="round"><g transform="translate(949 612.4354086716662) rotate(180 -69 -96.99615350109252)"><path d="M0 0 C-23 -32.33, -115 -161.66, -138 -193.99 M0 0 C-23 -32.33, -115 -161.66, -138 -193.99" stroke="#000000" stroke-width="1" fill="none"></path></g><g transform="translate(949 612.4354086716662) rotate(180 -69 -96.99615350109252)"><path d="M-113.3 -176.97 C-120.36 -181.84, -127.43 -186.71, -138 -193.99 M-113.3 -176.97 C-121.48 -182.61, -129.66 -188.25, -138 -193.99" stroke="#000000" stroke-width="1" fill="none"></path></g><g transform="translate(949 612.4354086716662) rotate(180 -69 -96.99615350109252)"><path d="M-130.02 -165.07 C-132.3 -173.34, -134.58 -181.62, -138 -193.99 M-130.02 -165.07 C-132.66 -174.65, -135.31 -184.23, -138 -193.99" stroke="#000000" stroke-width="1" fill="none"></path></g></g><g stroke-linecap="round"><g transform="translate(1130 190) rotate(0 70 40)"><path d="M0 0 C23.33 13.33, 116.67 66.67, 140 80 M0 0 C23.33 13.33, 116.67 66.67, 140 80" stroke="#000000" stroke-width="1" fill="none"></path></g><g transform="translate(1130 190) rotate(0 70 40)"><path d="M110.43 74.92 C119.97 76.56, 129.5 78.2, 140 80 M110.43 74.92 C116.88 76.03, 123.32 77.14, 140 80" stroke="#000000" stroke-width="1" fill="none"></path></g><g transform="translate(1130 190) rotate(0 70 40)"><path d="M120.61 57.1 C126.87 64.49, 133.12 71.87, 140 80 M120.61 57.1 C124.84 62.09, 129.06 67.08, 140 80" stroke="#000000" stroke-width="1" fill="none"></path></g></g><g stroke-linecap="round"><g transform="translate(1130 410) rotate(0 70 -50)"><path d="M0 0 C23.33 -16.67, 116.67 -83.33, 140 -100 M0 0 C23.33 -16.67, 116.67 -83.33, 140 -100" stroke="#000000" stroke-width="1" fill="none"></path></g><g transform="translate(1130 410) rotate(0 70 -50)"><path d="M123.02 -75.27 C127.96 -82.45, 132.89 -89.64, 140 -100 M123.02 -75.27 C128.24 -82.87, 133.46 -90.47, 140 -100" stroke="#000000" stroke-width="1" fill="none"></path></g><g transform="translate(1130 410) rotate(0 70 -50)"><path d="M111.1 -91.96 C119.49 -94.3, 127.89 -96.63, 140 -100 M111.1 -91.96 C119.98 -94.43, 128.86 -96.9, 140 -100" stroke="#000000" stroke-width="1" fill="none"></path></g></g></svg>