<!--
 Licensed to the Apache Software Foundation (ASF) under one
 or more contributor license agreements.  See the NOTICE file
 distributed with this work for additional information
 regarding copyright ownership.  The ASF licenses this file
 to you under the Apache License, Version 2.0 (the
 "License"); you may not use this file except in compliance
 with the License.  You may obtain a copy of the License at

   http://www.apache.org/licenses/LICENSE-2.0

 Unless required by applicable law or agreed to in writing,
 software distributed under the License is distributed on an
 "AS IS" BASIS, WITHOUT WARRANTIES OR CONDITIONS OF ANY
 KIND, either express or implied.  See the License for the
 specific language governing permissions and limitations
 under the License.
-->
<svg id="Layer_1" data-name="Layer 1" xmlns="http://www.w3.org/2000/svg" xmlns:xlink="http://www.w3.org/1999/xlink" viewBox="0 0 103.45402 144.00986"><defs><style>.cls-1{fill:#fee900;}.cls-2{fill:#ffc400;}.cls-3{opacity:0.75;fill:url(#linear-gradient);}.cls-4{fill:#ffe082;}.cls-5{fill:url(#linear-gradient-2);}.cls-6{fill:#fff;}.cls-7{fill:#ff6d00;stroke:#ff6d00;stroke-miterlimit:10;stroke-width:0.4px;}</style><linearGradient id="linear-gradient" x1="0.58001" y1="71.96326" x2="36.38805" y2="71.96326" gradientUnits="userSpaceOnUse"><stop offset="0" stop-color="#ffc400"/><stop offset="0.13695" stop-color="#fecd00"/><stop offset="0.36528" stop-color="#fed400"/><stop offset="1" stop-color="#fed600"/></linearGradient><linearGradient id="linear-gradient-2" x1="0.57999" y1="59.87316" x2="75.04996" y2="59.87316" gradientUnits="userSpaceOnUse"><stop offset="0" stop-color="#ff0" stop-opacity="0.7"/><stop offset="0.13194" stop-color="#fff600" stop-opacity="0.66022"/><stop offset="0.31385" stop-color="#feef00" stop-opacity="0.62592"/><stop offset="0.54652" stop-color="#feea00" stop-opacity="0.60587"/><stop offset="1" stop-color="#fee900" stop-opacity="0.6"/></linearGradient></defs><title>beam-logo_3-color</title><polygon class="cls-1" points="0.58 49.532 36.388 72.005 75.05 47.741 75.05 28.795 0.58 5.452 0.58 49.532"/><polygon class="cls-2" points="0.58 5.452 0.58 49.532 0.58 50.125 0.58 94.477 75.05 47.741 75.05 28.795 0.58 5.452"/><polygon class="cls-3" points="0.58 50.083 0.58 94.436 36.388 71.963 0.58 49.491 0.58 50.083"/><polygon class="cls-2" points="0.58 49.532 0.58 94.477 0.58 138.111 75.05 115.215 75.05 96.268 0.58 49.532"/><polygon class="cls-4" points="0.25 101.665 0.25 109.775 75.05 116.435 75.05 95.005 0.25 101.665"/><polygon class="cls-4" points="0 34.463 0 42.573 74.703 49.233 74.703 27.803 0 34.463"/><polygon class="cls-1" points="0.58 5.452 75.05 28.795 75.05 28.795 0.58 5.452"/><polygon class="cls-5" points="36.388 72.005 75.05 47.741 36.388 72.005 36.388 72.005"/><path class="cls-6" d="M114.62478,606.24574a8.5081,8.5081,0,0,0,8.50819,8.50819V597.73756A8.50823,8.50823,0,0,0,114.62478,606.24574Z" transform="translate(-48.083 -500.52599)"/><path class="cls-6" d="M114.62478,539.04416a8.5081,8.5081,0,0,0,8.50819,8.50819V530.536A8.50823,8.50823,0,0,0,114.62478,539.04416Z" transform="translate(-48.083 -500.52599)"/><path class="cls-7" d="M149.85752,591.5673a31.95182,31.95182,0,0,0-4.48779-9.56738,30.16459,30.16459,0,0,0-7.59473-7.5459,34.29159,34.29159,0,0,0-10.80029-4.88232q10.25684-4.33887,15.584-12.23047a31.00862,31.00862,0,0,0,5.32617-17.75391,41.11393,41.11393,0,0,0-3.40283-17.40869,30.92584,30.92584,0,0,0-9.814-12.08252,44.12955,44.12955,0,0,0-15.68262-7.05225A86.44973,86.44973,0,0,0,98.07529,500.726H48.85752v5.54242l72.89409,22.71047a2,2,0,0,1,1.38136,1.90192v16.275a2,2,0,0,1-1.02211,1.74463L84.76393,572.53086l37.34693,23.63052A2,2,0,0,1,123.133,597.906v16.275a2,2,0,0,1-1.38136,1.90192L48.85752,638.79337v5.54248h52.66992a75.21864,75.21864,0,0,0,20.86084-2.66309,43.55411,43.55411,0,0,0,15.68262-7.94043,34.29293,34.29293,0,0,0,9.86328-13.11816,45.37613,45.37613,0,0,0,3.40283-18.19727A39.65034,39.65034,0,0,0,149.85752,591.5673Z" transform="translate(-48.083 -500.52599)"/></svg>
